/* XPM */
static char *xpm_[] = {
/* columns rows colors chars-per-pixel */
"64 64 204 2 ",
"   c #DFB81F",
".  c #E9B603",
"X  c #EDBF07",
"o  c #E4BC0D",
"O  c #ECBC0C",
"+  c #F4B603",
"@  c #FCB503",
"#  c #F5BB02",
"$  c #FBBB04",
"%  c #F4B60D",
"&  c #FCB50A",
"*  c #F5BC0B",
"=  c #FBBD0C",
"-  c #ECB514",
";  c #ECBC13",
":  c #E7B61C",
">  c #EDB61A",
",  c #E5BA1E",
"<  c #ECBC1C",
"1  c #F2B613",
"2  c #F4BB13",
"3  c #FBBD13",
"4  c #F4B61B",
"5  c #F2BA1B",
"6  c #FDBE1C",
"7  c #DDBF3D",
"8  c #E6B724",
"9  c #EDB721",
"0  c #ECBC22",
"q  c #EBB62A",
"w  c #E4BC2B",
"e  c #EBBC2B",
"r  c #F4B626",
"t  c #F2BA24",
"y  c #FABF23",
"u  c #F6B62E",
"i  c #F3BA2A",
"p  c #EBBC33",
"a  c #E5BF3A",
"s  c #ECBB3B",
"d  c #F2BF30",
"f  c #EDC204",
"g  c #EFC00E",
"h  c #F3C002",
"j  c #FBC304",
"k  c #FCCB05",
"l  c #F5C10C",
"z  c #FEC30D",
"x  c #F6C90E",
"c  c #FCC90C",
"v  c #EFC116",
"b  c #EDC01F",
"n  c #F5C316",
"m  c #FEC616",
"M  c #F5CA16",
"N  c #FCC914",
"B  c #F6C41B",
"V  c #FDC51A",
"C  c #F5CB1A",
"Z  c #FCC91B",
"A  c #EFC123",
"S  c #E6C32B",
"D  c #ECC52E",
"F  c #E9C82B",
"G  c #F4C524",
"H  c #FDC423",
"J  c #F7CA22",
"K  c #FECA22",
"L  c #F4C42B",
"P  c #FCC42B",
"I  c #F6CA2D",
"U  c #FBCA2C",
"Y  c #E6C635",
"T  c #ECC432",
"R  c #EEC835",
"E  c #E5C23A",
"W  c #ECC33B",
"Q  c #E7C83A",
"!  c #EDCB3E",
"~  c #F3C334",
"^  c #FDC435",
"/  c #F4CA34",
"(  c #F8CA33",
")  c #F3C43C",
"_  c #FCC73C",
"`  c #F4C93B",
"'  c #FCCA3B",
"]  c #FCD033",
"[  c #FFD03C",
"{  c #E5BD43",
"}  c #EFBF43",
"|  c #E7BB4A",
" . c #EDB94B",
".. c #EDC343",
"X. c #ECCA44",
"o. c #E6C64B",
"O. c #E9C34A",
"+. c #E7C94E",
"@. c #ECCC4B",
"#. c #F4C443",
"$. c #F6CA47",
"%. c #FDCB43",
"&. c #F2C44B",
"*. c #F8C64B",
"=. c #F2CC4B",
"-. c #FACE4C",
";. c #FED344",
":. c #FFD945",
">. c #FED44D",
",. c #E7C553",
"<. c #E9C554",
"1. c #E5CA57",
"2. c #EBCC53",
"3. c #EDCD5C",
"4. c #F3CB52",
"5. c #FCCD51",
"6. c #F2C95C",
"7. c #F8CC5C",
"8. c #EED25E",
"9. c #FFD554",
"0. c #FCDA52",
"q. c #F1D35B",
"w. c #FFD75C",
"e. c #FDDC5F",
"r. c #EACA63",
"t. c #EDCC6B",
"y. c #F6CB67",
"u. c #F1CF68",
"i. c #ECD46A",
"p. c #F4D365",
"a. c #FCD565",
"s. c #F4DB66",
"d. c #FEDC64",
"f. c #F1D26D",
"g. c #FED46C",
"h. c #F6DB6E",
"j. c #FEDC6B",
"k. c #ECCB78",
"l. c #F4CC76",
"z. c #F4CE7B",
"x. c #F7D673",
"c. c #FBD275",
"v. c #FEDC73",
"b. c #F5D57A",
"n. c #FDDC7A",
"m. c #FFE166",
"M. c #FFE268",
"N. c #FFE56B",
"B. c #FFE36F",
"V. c #FFE26D",
"C. c #FFE271",
"Z. c #FDE674",
"A. c #FEE374",
"S. c #F8E976",
"D. c #FFE17C",
"F. c #FEE27B",
"G. c #FFE979",
"H. c #F4CE8E",
"J. c #F6D582",
"K. c #F5D781",
"L. c #FCD682",
"P. c #F5DE83",
"I. c #FFDD82",
"U. c #FCDA86",
"Y. c #FFDC84",
"T. c #FCDB84",
"R. c #F4D68A",
"E. c #FCD18D",
"W. c #F6DB8C",
"Q. c #FDDF89",
"!. c #FFDF8E",
"~. c #FBDC8F",
"^. c #F8D395",
"/. c #FBDF95",
"(. c #FDDA9A",
"). c #F5E585",
"_. c #F6E482",
"`. c #F8E381",
"'. c #FFE180",
"]. c #FFE380",
"[. c #FFE283",
"{. c #FFE580",
"}. c #FFE782",
"|. c #FFE483",
" X c #F9E185",
".X c #FFE185",
"XX c #FFE186",
"oX c #FDE583",
"OX c #F5EA80",
"+X c #FDEC80",
"@X c #FEE884",
"#X c #F7E18E",
"$X c #F3E48A",
"%X c #FAE588",
"&X c #FFE489",
"*X c #FFE689",
"=X c #FFE08D",
"-X c #F9E489",
";X c #F3E88E",
":X c #FDE88E",
">X c #FFD9A0",
",X c #FFE6AA",
"<X c None",
"1X c black",
/* pixels */
"<X<X<X<X<X<X<X<X<X<X<X<X<X<X<X<X<X<X<X<X<X<X<X<X<X<X<X<X<X<X<X<X<X<X<X<X<X<X<X<X<X<X<X<X<X<X<X<X<X<X<X<X<X<X<X<X<X<X<X<X<X<X<X<X",
"<X<X<X<X<X<X<X<X<X<X<X<X<X<X<X<X<X<X<X<X<X<X<X<X<X<X<X<X<X<X<X<X<X<X<X<X<X<X<X<X<X<X<X<X<X<X<X<X<X<X<X<X<X<X<X<X<X<X<X<X<X<X<X<X",
"<X<X<X<X<X<X<X<X<X<X<X<X<X<X<X<X<X<X<X<X<X<X<X<X<X<X<X<X<X<X<X<X<X<X<X<X<X<X<X<X<X<X<X<X<X<X<X<X<X<X<X<X<X<X<X<X<X<X<X<X<X<X<X<X",
"<X<X<X<X<X<X<X<X<X<X<X<X<X<X<X<X<X<X<X<X<X<X<X<X<X<X<X<X<X<X<X<X<X<X<X<X<X<X<X<X<X<X<X<X<X<X<X<X<X<X<X<X<X<X<X<X<X<X<X<X<X<X<X<X",
"<X<X<X<X<X<X<X<X<X<X<X<X<X<X<X<X<X<X<X<X<X<X<X<X<X<X<X<X<X<X<X`.<X<X<X<X<X<X<X<X<X<X<X<X<X<X<X<X<X<X<X<X<X<X<X<X<X<X<X<X<X<X<X<X",
"<X<X<X<X<X<X<X<X<X<X<X<X<X<X<X<X<X<X<X<X<X<X<X<X<X<X<X<X<Xb.@.Q $.y.<X<X<X<X<X<X<X<X<X<X<X<X<X<X<X<X<X<X<X<X<X<X<X<X<X<X<X<X<X<X",
"<X<X<X<X<X<X<X<X<X<X<X<X<X<X<X<X<X<X<X<X<X<X<X<X<X<X<X<X7.~ G Z G e O.<X<X<X<X<X<X<X<X<X<X<X<X<X<X<X<X<X<X<X<X<X<X<X<X<X<X<X<X<X",
"<X<X<X<X<X<X<X<X<X<X<X<X<X<X<X<X<X<X<X<X<X<X<X<X<X<X<X4.i H K m N m G O.<X<X<X<X<X<X<X<X<X<X<X<X<X<X<X<X<X<X<X<X<X<X<X<X<X<X<X<X",
"<X<X<X<X<X<X<X<X<X<X<X<X<X<X<X<X<X<X<X<X<X<X<X<X<X<X2.I 6 P y V m c V t ,.<X<X<X<X<X<X<X<X<X<X<X<X<X<X<X<X<X<X<X<X<X<X<X<X<X<X<X",
"<X<X<X<X<X<X<X<X<X<X<X<X<X<X<X<X<X<X<X<X<X<X<X<X<Xi.Y ] ' ;.' P N z V n e g.<X<X<X<X<X<X<X<X<X<X<X<X<X<X<X<X<X<X<X<X<X<X<X<X<X<X",
"<X<X<X<X<X<X<X<X<X<X<X<X<X<X<X<X<X<X<X<X<X<X<X<Xh.Q Q 0.N.N.0.P V m H 6 O T <X<X<X<X<X<X<X<X<X<X<X<X<X<X<X<X<X<X<X<X<X<X<X<X<X<X",
"<X<X<X<X<X<X<X<X<X<X<X<X<X<X<X<X<X<X<X<X<X<X<X<XX.R e.G.G.G.d.' H V y H z - y.<X<X<X<X<X<X<X<X<X<X<X<X<X<X<X<X<X<X<X<X<X<X<X<X<X",
"<X<X<X<X<X<X<X<X<X<X<X<X<X<X<X<X<X<X<X<X<X<X<Xt.W >.oX%XOXS.m.%.J V H H m 1 W '.<X<X<X<X<X<X<X<X<X<X<X<X<X<X<X<X<X<X<X<X<X<X<X<X",
"<X<X<X<X<X<X<X<X<X<X<X<X<X<X<X<X<X<X<X<X<X<XD.} #.w.@X#X).G.d.' H V V V V 3 ; =.<X<X<X<X<X<X<X<X<X<X<X<X<X<X<X<X<X<X<X<X<X<X<X<X",
"<X<X<X<X<X<X<X<X<X<X<X<X<X<X<X<X<X<X<X<X<X<X5.L ' m..X!.=XoXw.( n N V B V 3 # < XX<X<X<X<X<X<X<X<X<X<X<X<X<X<X<X<X<X<X<X<X<X<X<X",
"<X<X<X<X<X<X<X<X<X<X<X<X<X<X<X<X<X<X<X<X<XU.T H :.B.'.Q./.n.-.I N N V V 6 3 j O 3.<X<X<X<X<X<X<X<X<X<X<X<X<X<X<X<X<X<X<X<X<X<X<X",
"<X<X<X<X<X<X<X<X<X<X<X<X<X<X<X<X<X<X<X<X<X=.G J >.B.n.Y.*Xj.` J m V V V m c j O a <X<X<X<X<X<X<X<X<X<X<X<X<X<X<X<X<X<X<X<X<X<X<X",
"<X<X<X<X<X<X<X<X<X<X<X<X<X<X<X<X<X<X<X<Xj.L C J ;.B.@XD.j.9.L Z m V V V m z k f 0 j.<X<X<X<X<X<X<X<X<X<X<X<X<X<X<X<X<X<X<X<X<X<X",
"<X<X<X<X<X<X<X<X<X<X<X<X<X<X<X<X<X<XXXg.' J M M ' w.A.d.;.I B V N m V P V V z # . 0 $.g.I.<X<X<X<X<X<X<X<X<X<X<X<X<X<X<X<X<X<X<X",
"<X<X<X<X<X<X<X<X<X<X<X<X<X Xi.2.4.&.) L H m N M ( %.5.%.J C C Z x N V V P V m $ j l ; 9 e p p O.t.J.<X<X<X<X<X<X<X<X<X<X<X<X<X<X",
"<X<X<X<X<X<X<X<X<X*Xa.=.R L L P P P K m m m z z H ^ ^ P x c N N N M V V V V m z $ $ $ $ = 3 2 5 < e i W @.<X<X<X<X<X<X<X<X<X<X<X",
"<X<X<X<X<X<X<XP.2.W L J m N V V H V V N m N c c B P G H c k N m N V B N V m m 3 m m m j $ z m z l * $ = ; S ,.k.<X<X<X<X<X<X<X<X",
"<X<X<X<X<XF.2.R J V 6 y H P ^ ' ' ( ( L G Z N N V Z K m c c m V V V N m c N V V 6 H H V V m m N m Z V 3 l l b e #.v.<X<X<X<X<X<X",
"<X<X<X<XA.D A Z z m P ^ %.9.a.M.d.M.d.9.( C Z Z B V N m m m 6 V H V m c z N m V P P P H V V m m N N V V N z z * % 8 f.<X<X<X<X<X",
"<X<X<X,XY Z N N N H *.g.n.@X@XoX%X@XoXB.:.G n V V V x c N V V 6 V V m m m m m N B H K H H C V N N N N V V V 6 6 3 4 s J.<X<X<X<X",
"<X<X<X^.~ N z z m U a.Y. X$X$X;X$X-XoXB.:.K V V H V c c m m V V V m m V m m N N N m B K Z V N N m N N N V 6 6 6 & & < 3.<X<X<X<X",
"<X<X<XH.~ m N z N ] v.:X@X_.%X:X-X@XB.0.( V 6 V V m c c c m V V m 6 m V m m z x N N m V V m m m m m N N V 6 m m j @ O 2.<X<X<X<X",
"<X<X<X>X*.V N z x U 9.B.A.Z.Z.Z.D.j.>.U 6 m 6 V V m c c c x m V m m V V V m m c c z m m V m z m 6 V N N m V m z j # < s.<X<X<X<X",
"<X<X<X<X4.B N c m n U ' >.>.>.;.$.%.I Z N m V V V V m c c c N V V m V m m m m c m m m V V m m m V 6 N M C N N z = - ..<X<X<X<X<X",
"<X<X<X<Xx./ C N N N N V P P P H P G V N m V m m m V m m N N Z Z N m m V V V V m V m V m V m m m V V N N C M N z % p b.<X<X<X<X<X",
"<X<X<X<X<Xa.L C H V m m H G V n m m N Z V B Z Z m m V V V V B m N N N V V H H V V V N N m m N V V V m m M N z 3 r g.<X<X<X<X<X<X",
"<X<X<X<X<X<XX.G H V m N V Z K V m N m m C C Z N m m V H V V Z m N N N V Z H H V n N N N N N V V V V m z N N 2 t  .<X<X<X<X<X<X<X",
"<X<X<X<X<X<XF.R K m V N N m K n m m m m m Z m m m m m V V Z m N N m m Z V V Z V Z Z N N Z V B V 6 V N m = 2 5 } <X<X<X<X<X<X<X<X",
"<X<X<X<X<X<X<Xv.D K Z M Z N n Z V N V V V m m N m m m m V m m V m V m m V m V V V m V V N B V V V Z z z V 9 } <X<X<X<X<X<X<X<X<X",
"<X<X<X<X<X<X<X<Xy.( M x N M m m m V V N m m m V Z V m V m V m m V m V m V m V m m V m m N m V V m m j X : O.<X<X<X<X<X<X<X<X<X<X",
"<X<X<X<X<X<X<X<X<Xp.F C N N m m N m V Z m m m V N V m V N m V m V V V V m m V N m m m m m V m m m = l , O.<X<X<X<X<X<X<X<X<X<X<X",
"<X<X<X<X<X<X<X<X<X<Xs.D Z m m m m m V m V m m m V m V N m V m m V Z V V m m m m m m z m N m m m 3 2   3.<X<X<X<X<X<X<X<X<X<X<X<X",
"<X<X<X<X<X<X<X<X<X<X<Xp.T B V V V m N m m m N V m m m V m V N V V m V Z m m Z m N m m N m m = % 1 p q.<X<X<X<X<X<X<X<X<X<X<X<X<X",
"<X<X<X<X<X<X<X<X<X<X<X<Xp./ P V V V V m N V m m m m m m N m V m V V m m m m V V m m m m z = = 5 s c.<X<X<X<X<X<X<X<X<X<X<X<X<X<X",
"<X<X<X<X<X<X<X<X<X<X<X<X<Xa.P K m m m V V V Z m m m m V V m m m N V m V V m V N m m m m = $ $ 5 v.<X<X<X<X<X<X<X<X<X<X<X<X<X<X<X",
"<X<X<X<X<X<X<X<X<X<X<X<X<X<X` V V N V m m m m m m m m Z V m V m V V m m V V N V m m m m z $ @ i <X<X<X<X<X<X<X<X<X<X<X<X<X<X<X<X",
"<X<X<X<X<X<X<X<X<X<X<X<X<X<X` V V V m m m m m m m m m m V m N V m m V N V V m m m m N z z $ $ q /.<X<X<X<X<X<X<X<X<X<X<X<X<X<X<X",
"<X<X<X<X<X<X<X<X<X<X<X<X<XW.! V N m m V m m Z V m V m m N m V m m m m V V N V m m m m m z $ $ 5 t.<X<X<X<X<X<X<X<X<X<X<X<X<X<X<X",
"<X<X<X<X<X<X<X<X<X<X<X<X<Xi./ n V m V N V V N V m m V V V m m m m m m m V m V V m m z m m z & 5 | <X<X<X<X<X<X<X<X<X<X<X<X<X<X<X",
"<X<X<X<X<X<X<X<X<X<X<X<X<X1.I m N V N m m m m m V m m m m m m m m m m m m m N Z V m m m m z $ % q <X<X<X<X<X<X<X<X<X<X<X<X<X<X<X",
"<X<X<X<X<X<X<X<X<X<X<X<X<Xo.I N m m V m m m m m m m V m V V m m V N V m Z Z B V m V m m N z = % 4 a.<X<X<X<X<X<X<X<X<X<X<X<X<X<X",
"<X<X<X<X<X<X<X<X<X<X<X<X<X..L V V V m V m m Z V V m m m m m m n m m m m V V C Z m V m m m m z * 2 &.<X<X<X<X<X<X<X<X<X<X<X<X<X<X",
"<X<X<X<X<X<X<X<X<X<X<X<X'.` H N m N N m V V V V m N m m m m z z m m m N Z N V V Z V N m m z z $ = p <X<X<X<X<X<X<X<X<X<X<X<X<X<X",
"<X<X<X<X<X<X<X<X<X<X<X<Xv.L M c c c m m V H V V m m m m m # + $ = m z m M N N N V m m m m z M # $ L <X<X<X<X<X<X<X<X<X<X<X<X<X<X",
"<X<X<X<X<X<X<X<X<X<X<X<Xd.G N c c N m m V V V m m m N * % l 3 % & & m N x N M N m m m V m N N z # t <X<X<X<X<X<X<X<X<X<X<X<X<X<X",
"<X<X<X<X<X<X<X<X<X<X<X<Xa.L H Z V V V V V m m V V m z m % < ~ i & @ + 3 N m z c m m V V m N V = & u R.<X<X<X<X<X<X<X<X<X<X<X<X<X",
"<X<X<X<X<X<X<X<X<X<X<X<Xp.L P H H H B N m m N V m m 2 - p m.<Xn.~ 5 1 2 3 z z N N V B V V m m = & u z.<X<X<X<X<X<X<X<X<X<X<X<X<X",
"<X<X<X<X<X<X<X<X<X<X<X<Xa.L H H P K V V V V m z m % 9 &.U.<X<X<X<Xp.p 4 & & $ m m N B H V m z $ & r l.<X<X<X<X<X<X<X<X<X<X<X<X<X",
"<X<X<X<X<X<X<X<X<X<X<X<Xg.L H V V V V V V m z m B 8 6.<X<X<X<X<X<X<Xn.&.t % @ & = m V V V m z $ @ 4 z.<X<X<X<X<X<X<X<X<X<X<X<X<X",
"<X<X<X<X<X<X<X<X<X<X<X<Xv./ Z x c m m m z z * A { b.<X<X<X<X<X<X<X<X<X<Xx.a < * $ & = z z $ j $ $ ; L.<X<X<X<X<X<X<X<X<X<X<X<X<X",
"<X<X<X<X<X<X<X<X<X<X<X<X<X! C c c z m m n ; T 1.<X<X<X<X<X<X<X<X<X<X<X<X<X<Xq.w 4 1 * $ $ # # # h < <X<X<X<X<X<X<X<X<X<X<X<X<X<X",
"<X<X<X<X<X<X<X<X<X<X<X<X<Xp.Y C n N N v w ,./.<X<X<X<X<X<X<X<X<X<X<X<X<X<X<X<X<Xr.W > % # # f f o X.<X<X<X<X<X<X<X<X<X<X<X<X<X<X",
"<X<X<X<X<X<X<X<X<X<X<X<X<X<X3.Q ~ D p @.D.<X<X<X<X<X<X<X<X<X<X<X<X<X<X<X<X<X<X<X<X<Xg.#.e : , w 7 P.<X<X<X<X<X<X<X<X<X<X<X<X<X<X",
"<X<X<X<X<X<X<X<X<X<X<X<X<X<X<XW.J.~.<X<X<X<X<X<X<X<X<X<X<X<X<X<X<X<X<X<X<X<X<X<X<X<X<X<X<X(.E.E.<X<X<X<X<X<X<X<X<X<X<X<X<X<X<X<X",
"<X<X<X<X<X<X<X<X<X<X<X<X<X<X<X<X<X<X<X<X<X<X<X<X<X<X<X<X<X<X<X<X<X<X<X<X<X<X<X<X<X<X<X<X<X<X<X<X<X<X<X<X<X<X<X<X<X<X<X<X<X<X<X<X",
"<X<X<X<X<X<X<X<X<X<X<X<X<X<X<X<X<X<X<X<X<X<X<X<X<X<X<X<X<X<X<X<X<X<X<X<X<X<X<X<X<X<X<X<X<X<X<X<X<X<X<X<X<X<X<X<X<X<X<X<X<X<X<X<X",
"<X<X<X<X<X<X<X<X<X<X<X<X<X<X<X<X<X<X<X<X<X<X<X<X<X<X<X<X<X<X<X<X<X<X<X<X<X<X<X<X<X<X<X<X<X<X<X<X<X<X<X<X<X<X<X<X<X<X<X<X<X<X<X<X",
"<X<X<X<X<X<X<X<X<X<X<X<X<X<X<X<X<X<X<X<X<X<X<X<X<X<X<X<X<X<X<X<X<X<X<X<X<X<X<X<X<X<X<X<X<X<X<X<X<X<X<X<X<X<X<X<X<X<X<X<X<X<X<X<X",
"<X<X<X<X<X<X<X<X<X<X<X<X<X<X<X<X<X<X<X<X<X<X<X<X<X<X<X<X<X<X<X<X<X<X<X<X<X<X<X<X<X<X<X<X<X<X<X<X<X<X<X<X<X<X<X<X<X<X<X<X<X<X<X<X"
};
