/* XPM */
static char *d18d334b6d5343a7eaf0c8eb89de4f46XZgs5cADUglz54eS[] = {
/* columns rows colors chars-per-pixel */
"64 64 247 2 ",
"   c #221917",
".  c #4B1217",
"X  c #741919",
"o  c #543128",
"O  c #752F2D",
"+  c #125213",
"@  c #1E5F19",
"#  c #33572A",
"$  c #317229",
"%  c #386536",
"&  c #4F5436",
"*  c #4D7237",
"=  c #637437",
"-  c #25495E",
";  c #30576E",
":  c #386477",
">  c #584F58",
",  c #605E5E",
"<  c #4D7446",
"1  c #57794A",
"2  c #6B7A4F",
"3  c #515D69",
"4  c #4D6B7A",
"5  c #6E7071",
"6  c #8F221A",
"7  c #8B342F",
"8  c #9A3A37",
"9  c #A53E2A",
"0  c #A13E3D",
"q  c #89483C",
"w  c #9A483A",
"e  c #AF4734",
"r  c #A5453D",
"t  c #A7523B",
"y  c #CA693D",
"u  c #AB3B44",
"i  c #9C5343",
"p  c #91534C",
"a  c #A94845",
"s  c #B64949",
"d  c #AA5745",
"f  c #B65648",
"g  c #A65B51",
"h  c #BB5756",
"j  c #91674E",
"k  c #B3684B",
"l  c #AE6F54",
"z  c #B36758",
"x  c #9B6F64",
"c  c #B27163",
"v  c #C7534B",
"b  c #D35845",
"n  c #C65A57",
"m  c #C76449",
"M  c #C96655",
"N  c #D86758",
"B  c #C97A58",
"V  c #D77753",
"C  c #E17D58",
"Z  c #D15B62",
"A  c #E45E72",
"S  c #D76C69",
"D  c #D26D6D",
"F  c #DD7565",
"G  c #DB716C",
"H  c #E27569",
"J  c #E57A6B",
"K  c #EB7D6C",
"L  c #F0756C",
"P  c #E67875",
"I  c #EB7C72",
"U  c #F27C77",
"Y  c #378B34",
"T  c #4A8F3C",
"R  c #628B32",
"E  c #588449",
"W  c #4B9847",
"Q  c #559A49",
"!  c #578E54",
"~  c #658549",
"^  c #669547",
"/  c #789648",
"(  c #688457",
")  c #708E53",
"_  c #7A9356",
"`  c #4DA341",
"'  c #53A347",
"]  c #5BA558",
"[  c #67A956",
"{  c #77A856",
"}  c #6FB551",
"|  c #75B458",
" . c #5CA162",
".. c #66AA66",
"X. c #71B868",
"o. c #77B869",
"O. c #7CC86D",
"+. c #84A85B",
"@. c #89B95B",
"#. c #91B258",
"$. c #8E9369",
"%. c #B88D6E",
"&. c #86BA67",
"*. c #95BB65",
"=. c #89B673",
"-. c #AFAA75",
";. c #D1805C",
":. c #E6855D",
">. c #F98B5D",
",. c #F7985E",
"<. c #CC8368",
"1. c #D88A66",
"2. c #CB9476",
"3. c #E68863",
"4. c #F68A65",
"5. c #FA8B62",
"6. c #F3836D",
"7. c #FA876C",
"8. c #FB8A6C",
"9. c #E59569",
"0. c #FB9464",
"q. c #FA9869",
"w. c #FC9C6B",
"e. c #EB8576",
"r. c #F48372",
"t. c #FA8573",
"y. c #F98B77",
"u. c #F3827A",
"i. c #F89477",
"p. c #FF9D72",
"a. c #FD937C",
"s. c #CBAD76",
"d. c #FCA166",
"f. c #FDA36C",
"g. c #E8A77C",
"h. c #F6A574",
"j. c #FDA472",
"k. c #F7AB79",
"l. c #FEB67A",
"z. c #90C75A",
"x. c #AFCD5C",
"c. c #86C46A",
"v. c #98C668",
"b. c #88C976",
"n. c #97CC75",
"m. c #99D374",
"M. c #ACD16E",
"N. c #A6D577",
"B. c #B4E577",
"V. c #EACE6E",
"C. c #E3C676",
"Z. c #E6C976",
"A. c #EACD75",
"S. c #E3C77B",
"D. c #E6CA7C",
"F. c #E9CC7D",
"G. c #EDD377",
"H. c #EDD37C",
"J. c #F2D676",
"K. c #F4DA7D",
"L. c #CAE876",
"P. c #D6F17C",
"I. c #166581",
"U. c #32738C",
"Y. c #497789",
"T. c #4C7B8D",
"R. c #657C85",
"E. c #F27981",
"W. c #3A839D",
"Q. c #3791AE",
"!. c #49859B",
"~. c #5B8996",
"^. c #578898",
"/. c #6E8B92",
"(. c #5093AB",
"). c #5A97A9",
"_. c #6C9CA8",
"`. c #5BA4BA",
"'. c #68A7B7",
"]. c #3D9BC1",
"[. c #36ADCF",
"{. c #5AABC5",
"}. c #4FB0C9",
"|. c #57BBD6",
" X c #6BB5C9",
".X c #68BACB",
"XX c #5BC3D8",
"oX c #6DC6D9",
"OX c #56CBE9",
"+X c #56D1EE",
"@X c #71D8EB",
"#X c #76DCF5",
"$X c #75E7F8",
"%X c #71E9FA",
"&X c #8F9691",
"*X c #B5B287",
"=X c #9DA9A4",
"-X c #FA8985",
";X c #FE9785",
":X c #FF9992",
">X c #C6B686",
",X c #D7BF87",
"<X c #D1BB91",
"1X c #F2AB83",
"2X c #F9B886",
"3X c #B8EE84",
"4X c #D9C489",
"5X c #CFC497",
"6X c #E1C685",
"7X c #E6CB82",
"8X c #EACE83",
"9X c #E5CB8B",
"0X c #EACE8A",
"qX c #FEC48A",
"wX c #E7D087",
"eX c #EDD285",
"rX c #EED48B",
"tX c #F1D685",
"yX c #F4D983",
"uX c #F1D68D",
"iX c #F3D98D",
"pX c #FCD988",
"aX c #E5CA94",
"sX c #FDCA95",
"dX c #EED593",
"fX c #EDD797",
"gX c #EED59A",
"hX c #F1D692",
"jX c #F1D792",
"kX c #F3D995",
"lX c #F2D996",
"zX c #F2D79A",
"xX c #FCD79A",
"cX c #F2DA9A",
"vX c #F3DA9B",
"bX c #C9F581",
"nX c #D8F785",
"mX c #DDD1AB",
"MX c #EFD3A7",
"NX c #F3DCA2",
"BX c #F8D9A6",
"VX c #84DDEA",
"CX c #88F0FB",
"ZX c #CBD0CF",
"AX c #D7FDFD",
"SX c #E8F5F4",
"DX c #F6FFFF",
/* pixels */
"uXrXuXrXrXtXrXuXrXrXrXuXuXuXuXuXuXhXkXuXrXiXuXrXhXuXhXuXuXhXuXrXrXkXuXrXhXrXuXuXrXrXrXuX8XhXK.uXuXhXuXuXhXuXrXuXuXuXK.rXuXuXuXuX",
"kXrXkXpXkXvXkXkXvXvXkXuXhXrXuXrXuXkXiXkXkXvXvXkXhXuXrXrXrXuXuXhXkXkXhXhXuXrXhXuXrXyXuXuXrXhXrXhXkXuXuXuXrXuXrXrXyXhXdXuXrXtXrXuX",
"kXkXkXuXuX7X7XD.F.D.wXvXvXkXhXuXkXvXvXvXkXNXvXkXvXkXkXkXhXvXvXNXrXkXvXvXkXvXiXkXuXuXuXuXuXuXuXuXtXuXrXrXuXrXzXrXuXdXiXhXuXkXkXvX",
"uXuXeX8X7XV.8XD.D.F.F.F.rXvXkXkXkXNXkXhXuXrXuXrXkXkXkXkXrXF.Z.S.8XD.D.8XkXkXvXvXvXvXhXhXhXuXzXvXiXkXkXvXvXdXuXiXvXvXkXvXvXvXkXkX",
"8XF.S.G.D.0X0XF.eXrXeXuXrXkXhXkXkXhXhXdXhXuXuXhXkXuX0XD.F.F.F.D.D.8XD.D.D.F.8XhXvXkXvXvXvXvXyXkXkXvXvXkXkXdXvXvXuXhXhXuXrXhXdXeX",
"eXhXuXrXhXrXrXiXvXkXvXkXuXrXuXrXuX0XhXkXuXrXhXrXF.D.D.8X7XC.eX8XC.0X8X8XF.rX8XuXrXhXuXhXrXuXrXuXrXuXuXvXvXkXvXvXkXkXuXrXuXrXuXrX",
"kXhXvXvXkXrX8XF.Z.D.8XrXkXvXvXkXkXkXhXuXrXJ.8XrXhXF.8XF.D.D._ =.F.8X8XeXrXrXkXrXtXtXrXrXkXvXuXkXuXrXkXeXvXkXvXkXvXkXvXvXkXkXvXkX",
"vXhXeXD.D.F.8XZ.8XD.8XC.D.wXuXuXrXrXhXkXrXrXeX0XF.eX8XrX8XrX^ N.$.rXuXrXuXuXuXuXuXuXuXhXyXhXuXhXhXrXdXuXuXiXkXkXkXvXkXvXvXiXvXvX",
"F.D.7XF.0XD.F.D.D.8X7XD.rX8X8XuXuXuXuXfXvX*XvXuXkXrXrXuXrX4XB.v.O.s.dXyXhXrXrXuXwXrXuXkXgXkXhXBXvXvXvXkXkX9XkXuXfXuXhXkXyXhXrXeX",
"8X8XD.F.Z.F.D.D.8X7XrXeXrXkXrXrXrXuXkXkXkX_ # NXhXuXhXuXkX<XbXn.n.1 rXuXuXuXrX5X5XvXvXuXeXrXD.C.F.D.vXvXNXuXvXrXfXrXuXrXeXeX7XH.",
"8XD.F.7XrXrXF.eXvXrXfXrXkXrXkXkXkXkX8XrX8X= @.-.gXeXyXkXvX-.3Xn.&.X.>XuXkXkXvX_ +.9XZ.F.0XF.eXS.8XwXwXeXkXfXfXyXvXzXuXNXkXdXrXH.",
"rXrXrXuXeXrXuXrXhXuX0XvXhXhXrXeXF.7XF.0XrX/ *.2 F.D.S.C.dX+.N.n.o.X.( uXvXkX4Xx.v.-.rX8X0XrX8XS.7X0X7XwXeXrXuXvXgXyXvXvXuXeXtXuX",
"rXvXrXrXuXkXkXvXvXvXkXrXF.8X8XD.rXwXD.8XD./ *.^ 4X7XD.7XC.*.N.n.X...W 9XrXiX-.B.z.-.F.F.eXF.tXtXeXwXeXtXrXuXrXrXhXrXeXhXtXzXgX8X",
"iXkXvXvXvXvXvXrXeX8X8X8XF.8X8XF.7X7X$.9X7X/ v.*.* 8X8X8X9XM.N.b.o.] ' -.vXeX/ M.| 5XuXrX8XkXeXeXrXhXrXkXrXrXuXeXuXuXkXrXuXuXuXuX",
"vXkXvXrXuXuX8X8XdXeXeXrXwX8XG.0XrXH.=.* eX_ M.*.{ -.eXrXaXL.N.n.o.] ] $.uX4XL.v.} -.kXvXdXdXiXgXkXkXpXvXvXkXkXuXuXuXrXuXuXvXvXvX",
"K.uXuX8XiXuXeXkXK.dXuXeXuXrXwXkXuXdX( [ <X$.nXv.v.* 6XhX>XnXN.n.o.] Q * iX) B.@.[ *XiXiXdXvXfXkXkXvXvXdXyXhXfXfXvXNXvXkXiXkXuXuX",
"rXuXrXhXrXrXuXuXrXhXrXuXeXkXrX0XfXuX*Xc.% mXL.B.v.v.* 9X*XnXN.b.o.] W + dXM.c.| ` *XeXrXdX  uXeXiXkXrXuXfXuXrXrXuXuXuXdXeXfXyXrX",
"kXvXvXvXkXkXkX8XkXeXkX8XkXrXgX+ rXrX-.c.o.5 *.L.M.v.&.Q 2 nXN.b.o.] W Y 1 n.o.[ Y 5XzXrX# E uXrXuXrXuXuXuXrXhXuXuXvXkXkXrXuXeXvX",
"kXrXeX8X8XwX8XhXvXvXkXkXeXhXdXR R >X9X[ X.Q > P.M.v.&.X.E nXN.n.o.] Q Y ) o.[ Q Y 4XK.$ | ~ hXuXuXrXuXuXkXrXtXdXuXwXrXuXkXuXvXkX",
"F.A.D.0XZ.F.7XA.Z.eXrXvXkXiXuX2 M.@.( < o.o.+ M.x.*.*.&.E nXN.n.o.] ] Y < X.] W $ 4XT | } -.rXhXuXuXhXhXrXuXzXkXkXyXhXuXhXvXkX8X",
"D.7X8XD.F.F.S.eXF.8X8XD.8XyXvXaXP.z.z.+ m.| O.# L.#.&.&.1 nXN.n.&.] ] Y < ..] ' + { | Q $ fXkXkXkXvXrXvXkXvXiXkXuXhXiXkXkXF.7XD.",
"D.rXF.S.8X8XZ.8X8XeXrXrXuXrXrXhX= L.@.| E c.} Q ~ #.+.+.E L.N.n.o...] $ !  ...# c.[ T ` ) fX( s.7XD.D.rXhXNXNXrXvXvXvXiXD.D.F.D.",
"8XF.F.8X8XrXrXrXrXiXrXiXhXuXuXrXaXx.M.m.% N.&.| E ) / +.{ #.N.n.&...] % .. .% c.[ W ' + *X^ ) D.F.8X0XZ.0X8XrXvXvXvXhXC.8XG.F.F.",
"eXuXuXrXrXeXrXuXrXrXhX8XtXuXuXuXrX-.P.m.N.< B.v.m.~ 2 { *.~ B.n.&...X.% ..* | Q T W @ ) | $ 9XF.D.F.0XD.eX0XeXF.rX8XeXhX0X8XhXrX",
"uXuXuXrXrXuXhXrXhXkXrXkXkXrXkX7XrXuX-.v.m.X._ B.M.N.E ~ *.< L.n.o.X.! ..# { [ Q ' @ ] ' $ ,XF.wXF.0X8XeXrXeXrXrXdXrXfXrXyXhXrXrX",
"uXrXdXhXwXrXiXkXhXrXrXuXrXrXrXiXrXrXuX9X( b...) nXN.n.) ~ &.M.3XO.O.E % +.{ | E + Y Y + 4XrXuXrXzXkXrXhXhXrXyXtXiXuXtXrXrXuXuXtX",
"vXkXvXvXfXvXvXvXvXkXvXvXvXpXvXhXhXuXuXdXiX>X(  .E 3Xm.) & j q O j j o = b.^ % @ @ + 1 vXfXvXkXhXuXeXuXrXuXuXhXrXiXrXrXrXkXrXuXkX",
"kXkXhXkXhXuXuXrXK.iXkXkXkXvXkXkXkXBXkXvXvXvXkXgX& 7 b L a.-X:X-X7 n Z A u & W & $.S.D.7XhXkXvXkXvXvXkXhXkXkXuXuXwXkXkXkXkXvXNXkX",
"hXkXrXeX7XF.9XD.9XC.F.D.rXrXiXiXkXpXvXvXvXvX4Xd w.f i.7.;XF a h -Xh Z -XU -Xu 0XD.F.8X8XS.rXkXvXkXvXkXNXkXkXkXkXkXkXkXkXhXrXiXrX",
"eXZ.F.F.G.F.D.F.F.dXZ.7X8X8XF.rXrXrXeXrX8Xl 3.j.5.j.d F r S ;Xu.U -XG 0 :Xa S v %.rXwX8XrXrXuXeXdXkXdXuXkXhXuXuXuXuXkXtXvXuXuXeX",
"F.7XF.D.F.D.F.F.F.D.D.7XS.Z.8X0XF.8X8XrXl k.w.q.j.V f r e.8.t.t.u.U -XM X G -XP L c rXwXhXuX5X&X=X*XrXuXuXuXhXuXkXuXrXuX0XF.8X7X",
"A.F.8XF.F.D.dXZ.7X8X8XdX8XhXeXrXrXuXdXs.9.w.k.3.w V j.p.h M p.t.;Xn a I -XS 0 -XH U g uXwXrX4 CX@X[.4XrX8XuXK.dXJ.dX7X8XF.eXC.F.",
"F.8XF.8XeXrXF.eXrXrXeXrXrXhXeXuXkXeXgXX qX9.w B j.0.0.5.q.F f F a I -XU r.r.-X0 n E.P c uXfX<X$X|.4 uXrXrXuXfXhX8XfX8XrX8XG.D.7X",
"yXuXeXtXrXrXrXuXuXuXkXhXhXdXkXhXuXrXi sXX ;.l.q.q.q.q.0.j.N f 8 ;XU r.r.r.r.P u.G 7 h Z s.aXvX: W.4XrXuXhXrXrXuXhXrXhXuXrXzXeXeX",
"uXrXhXdXrXuXrXhXkXvXvXkXkXvXvXvXkXMXd d g.M j.w.w.w.f.:.w C w.p.r F a.r.r.U I -X8 G 8 P a vX>X.X(.R.uXuXuXiXhXrXyXrXhXrX8XeXkXuX",
"vXvXyXkXvXkXhXvXvXwX8XH.S.8XD.8XF.i k.k.k.<.B j.w.k.r M w.5.5.5.q.N a ;Xr.u.I 8 u.G U 8 Z s.mX%X}.!.vXvXNXiXkXhXvXpXNXkXvX0XkXkX",
"uXkXdXvXvXvXkXrXeX7XF.D.wX7XF.8X9X;.k.h.h.k.B 1.B t j.5.5.5.5.5.5.8.i.8 i.n f -XP P n i O R.~.{.}._.vXvXvXkXvXvXkXvXyXhXhXiXrXuX",
"D.8X8XD.F.D.G.8X8XF.rX0XV.7X8XeX%.sXk.k.h.h.k.7 d l.0.5.5.5.5.5.5.7.7.1XX h ;XI I L Q.CX`.%X%X+X+X5 zXeXhXvXrXyXhXuXdXrXrX8XrX8X",
"eX0X8X8X8X8XF.eX7XeX7XF.7XeXrXrXk k.1Xk.l.B d l.9.w j.5.>.5.5.5.>.w.M a ;XJ 8 -XJ U > 4 > 4 Y./.&XzXrXkXiXkXkXhXfXrXuXkXrXeX8XrX",
"8XfXuX8XrXuXrXrXkXkX0XvXhXkXrXgXg.1Xk.qXt 9.l.q.q.h.7 f.>.5.>.0.3.8 3.8.t.r.a.8 S I U L I E.2.uXzXK.NXkXgXuXvXvXvXuXrXuXrXkXeXrX",
"uXrXuXhXuXrXuXkXuXuXkXuXrXrXuX%.xX1X2Xd c x d f.q.0.f.w :.5.p.d m p.4.8.t.t.r.y.n r u.S G G h kXvXfXZ.8XZ.F.F.Z.8XhXkXrXuXuXuXhX",
"hXiXkXkXvXNXrXkXvXkXNXvXkXkXhXc sX1Xt /.}.Y.+XU.,.0.5.w.m m t q.5.5.5.7.7.t.t.r.K I 7 P G D s eXF.F.8XeX8X8XF.8X8XZ.8XvXdXhXuXfX",
"vXvXkXvXkXkXvXkX0XhX8X7XrXvXvXt c k 5 .XZXDX&XOX, w.>.f.d m d p.>.5.5.7.7.8.t.6.K H u.0 Z 8 v 9X8X7XF.F.F.wX8X8X7XF.8XrXkXvXvXvX",
"hXkXkXkXdXrXD.8XD.S.eX8XD.F.7Xk O sX`./.DXAXSXW.T.d.4.8 q.>.w.8 3.8.4.7.7.7.t.r.K K H P 7 a E.s.8XD.F.D.eXrXeX8XrXeXrXuXeXhXrXhX",
"D.7XF.F.D.F.F.Z.F.Z.rX8X8XrX9Xt xXd _.).ZXDX&X|.T.C f f.5.5.5.w.m f p.7.8.7.t.r.K r.S r u.D 6 dXeXrXeXeX8XrXzXeXrXkXrXhXvXeXeXF.",
"rXF.F.F.8XF.eX7X8XrXrXrXhXuXaXg.1X2Xo CX).4 }.%X. :.q.>.5.5.5.5.5.4.8 e.8.7.t.r.a.n h r.S D Z ,XrXrXuXrXuXuXeXuXrXuXuXrXrXeXrX8X",
"0X8X8XrXeXrXrXrXeXvXeXdXK.uXaXg.1X1X1.j !.].(.. l.0.5.>.5.5.5.5.5.5.p.d m p.t.-X8 F I H G S n 6XuXuXuXuXrXrXrXrXuXhXuXdXrXeXeXeX",
"uXrXuXuXhXrXrXuXuXrXhXuXNXrXaXg.g.1X2Xi qXd.e l.0.0.>.0.>.>.0.0.5.5.5.8.J a F r a.K J J G S s fXvXrXuXuXuXhXrXrXfXrXdXyXrXuXrXrX",
"uXuXkXuXuXuXuXuXrXuXhXuXuXhXgX1.g.g.k.2Xd d l.q.q.0.V , ).W.T.p >.5.5.8.6.f r e.t.K K J G G u uXvXkXvXdXiXuXuXhXhXrXuXdXkXuXrXuX",
"uXuXuXtXuXkXuXuXrXuXuXuXkXvXvXB g.g.k.k.w ;.f.w.q.y XX.X^.!.!.%XI.>.w.f f ;X1XN b a.J H G U a Z.D.rXvXvXvXvXkXvXvXvXvXvXuXhXuXuX",
"fXuXrXuXrXkXuXuXkXrXkXvXvXkX8Xk g.g.2Xw qXB 9.w.d.T.'. X#X`.#X3 %X> e 6.a.e.. W.Q.3 L G I s 2.eX8X8XtXhXhXuXuXrXrXrXkXvXkXuXrXuX",
"uXrXrXrXuXkXuXvXvXkXvXkXrXF.D.k g.2Xq qXh.l.i h.m CX^.'.).@XY.@X: Q.>.7.K - CXR./.}.- -Xa S s.uXeXhXhXeXuXuXuXuXuXuXyXkXkXvXkXkX",
"kXkXNXkXkX0XkXkXuXrXH.8XrX8XF.q BX7 sXk.h.f.l.w j @X X).#X#X#XT.).+Xm 8.c (.R.DXSX=X[.X S s kXrXuXrXhXuXhXuXuXiXrXK.rXuXrXuXhXhX",
"uXeXyXrXrXiXdXrX8X8XF.eX8X8XrX<XX sXg.k.h.h.f.l., oX~.VX#XoXoX).!.OXf 8.x {.=XAXAXSXI.M a z uXuXuXrXeXuXkXuXuX8XuXrXuXuXuXuXkXrX",
"kXkXhXhXuXrXuXuXhXuXhXuXkXrXuX6Xg.i qXk.h.h.h.f.T..X~.oX'.!.{.'.T.+Xd 8.M U.'.ZXSX5 U.L H ,XrXkXuXuXrXuXrXuXuXuXrXuXrXuXuXuXhXuX",
"rXrXrXuXkXkXvXvXkXvXkXvXkXkXvXkXk g.l 2Xh.h.w.d.).'.'. X^.^.Y.{.!.|.d 8.a.p ; |.Q.[.f J n rXuXdXK.hXuXkXkXkXvXvXkXwXkXuXkXuXyXuX",
"kXkXkXkXhX8X7XF.D.8X7XrXkXvXvXNX2.sX2.B k.j.w.f.(.).'. XY.!.: .X!.}.f 8.t.a.r.X z N I u.%.kXkXvXkXhXrXF.8XS.D.D.rXkXNXiXhXkXuXvX",
"uXuX8XF.8X8XD.rXD.D.D.D.A.D.8XrXaXk.2X<.B l.1.9 oX^.'.VX#X: #X{.T.|.d 8.;Xf f a.K J J N 6XrXeXA.D.D.D.8XF.eX7XD.F.A.D.uXkXkXuXuX",
"F.D.F.D.F.D.F.F.8XF.D.D.D.8XF.8XeXk 2X2X9.O 1.,.|.~.'.CX#X#XXX`.!.}.z e.8 r.t.6.J J y.g rX8XD.H.8XF.wXeX8XA.eXF.8XF.F.D.D.eXrXeX",
"8XF.F.8X8X8XD.8XD.8X8XwXeXuXrXrXrX%.sXqXw g.w ,.XX~.'.CX$X$X@X{.U.OXO n ;X6.6.6.J J v 6XF.8X8X8X8X8XD.F.8XF.F.8X7XD.F.0XF.8X8X0X",
"eX8XS.eX8XrXeXeX8XeXtXrXeXuXrXuXrXfXt d pXl.l.6 .X).VX4 ~.Y.!.Y.(.OXM t.6.7.6.6.6.y.%.8XD.7X8XeXF.F.D.D.F.8XD.8X8XdXyX8XuX8XrX8X",
"rXrXtXuXrXuXrXrXuXiXhXrXiXrXuXrXuXrXdXs.%.<.<.:.4 3 (..X|.|.XXXX: }.. b b b b H s 2.0XC.8XD.F.D.wXwX8XrXrXkXeX8XdXeXrXrXrXuXrXrX",
"yXrXrXuXrXuXuXuXuXuXrXuXuXuXuXuXuXuXhXrXhXhXkXhXuXdXvXgXdXrXeXzXNXfXkXdXdXdX7X0X8XeXeX8X8XuXeXrX8XhXeXrXeXdXrXkXH.uXuXuXrXrXuXuX",
"uXhXuXrXhXuXuXuXhXuXuXuXuXuXuXuXuXuXuXuXrXuXhXhXiXuXuXuXuXuXuXuXuXhX0XrXuXuXrXuXrXuXrXuXuXrXuXeXuXrXuXuXuXuXuXrXrXuXuXuXuXuXrXuX"
};
