/* XPM */
static char *_dd56a0a3c5a4d0ad251c9c09ea6caa4Awyj1Ua5hv5AIlBf[] = {
/* columns rows colors chars-per-pixel */
"64 64 206 2 ",
"   c #2F3F04",
".  c #2A2437",
"X  c #2C2639",
"o  c #2E293C",
"O  c #312C3E",
"+  c #344404",
"@  c #364A02",
"#  c #3A4D01",
"$  c #334108",
"%  c #3D5201",
"&  c #3F452D",
"*  c #415601",
"=  c #455C02",
"-  c #475905",
";  c #476101",
":  c #4A6401",
">  c #4E6A02",
",  c #536701",
"<  c #526C01",
"1  c #547301",
"2  c #5A7602",
"3  c #5B7A01",
"4  c #57720C",
"5  c #576F1E",
"6  c #5E7B10",
"7  c #607D01",
"8  c #4C5538",
"9  c #50593A",
"0  c #556829",
"q  c #586731",
"w  c #61762D",
"e  c #637130",
"r  c #332F41",
"t  c #343142",
"y  c #393646",
"u  c #3B374A",
"i  c #3D3A4B",
"p  c #413F4F",
"a  c #423F51",
"s  c #494A4E",
"d  c #52584C",
"f  c #444253",
"g  c #484756",
"h  c #4A4A55",
"j  c #4A4A59",
"k  c #4F515E",
"l  c #525756",
"z  c #595E54",
"x  c #5B6B44",
"c  c #596056",
"v  c #596656",
"b  c #637242",
"n  c #697A46",
"m  c #626857",
"M  c #525463",
"N  c #555866",
"B  c #5A5D6B",
"V  c #5F6371",
"C  c #616472",
"Z  c #656B76",
"A  c #676E79",
"S  c #6B727D",
"D  c #737D7F",
"F  c #5E8101",
"G  c #638401",
"H  c #6A8502",
"J  c #658A01",
"K  c #6B8D01",
"L  c #66870D",
"P  c #718D02",
"I  c #6E9401",
"U  c #6D9508",
"Y  c #729501",
"T  c #749B01",
"R  c #7B9E02",
"E  c #719508",
"W  c #749B09",
"Q  c #668516",
"!  c #748F19",
"~  c #779C19",
"^  c #76A001",
"/  c #7BA401",
"(  c #7DA901",
")  c #7BA30A",
"_  c #7DA41A",
"`  c #6B8628",
"'  c #779721",
"]  c #75932B",
"[  c #6D8637",
"{  c #778C39",
"}  c #758942",
"|  c #7B8B56",
" . c #7F976A",
".. c #809F18",
"X. c #80A501",
"o. c #83AC01",
"O. c #8BAD01",
"+. c #82AC0C",
"@. c #8AAC0C",
"#. c #85B401",
"$. c #8CB401",
"%. c #87BA01",
"&. c #8DBC01",
"*. c #88B708",
"=. c #8CBB0A",
"-. c #92B701",
";. c #93BD01",
":. c #9ABE02",
">. c #95BC09",
",. c #86AA14",
"<. c #89B312",
"1. c #89B418",
"2. c #90BD11",
"3. c #83A525",
"4. c #89B526",
"5. c #90B721",
"6. c #89AD34",
"7. c #88AB3D",
"8. c #8BB233",
"9. c #8FC300",
"0. c #91C501",
"q. c #92C401",
"w. c #93C601",
"e. c #95C701",
"r. c #96C601",
"t. c #9BC501",
"y. c #99C601",
"u. c #95C901",
"i. c #96CA02",
"p. c #99C901",
"a. c #9BCB01",
"s. c #99CA02",
"d. c #9ACD01",
"f. c #9ECE01",
"g. c #95C50A",
"h. c #9ED101",
"j. c #8EC210",
"k. c #94C611",
"l. c #A2C701",
"z. c #A2CD01",
"x. c #A3CE01",
"c. c #A8CE01",
"v. c #A1CD0D",
"b. c #A4D201",
"n. c #A9D201",
"m. c #ABD401",
"M. c #ACD802",
"N. c #B5DB01",
"B. c #B6DA01",
"V. c #A3C51D",
"C. c #C0E101",
"Z. c #819A47",
"A. c #85A644",
"S. c #88A947",
"D. c #94B744",
"F. c #8AA756",
"G. c #8AA35A",
"H. c #91AE55",
"J. c #93B555",
"K. c #849A68",
"L. c #869A7F",
"P. c #8FA967",
"I. c #96B26D",
"U. c #9AB36A",
"Y. c #8EA672",
"T. c #A1BB6C",
"R. c #9FC258",
"E. c #6F7681",
"W. c #737D86",
"Q. c #778389",
"!. c #7A868D",
"~. c #7B888E",
"^. c #7D8791",
"/. c #7E8A91",
"(. c #808F8A",
"). c #869786",
"_. c #808E94",
"`. c #859593",
"'. c #86939B",
"]. c #8A979E",
"[. c #8B9A9E",
"{. c #94AA87",
"}. c #9AB488",
"|. c #91AC95",
" X c #99AD94",
".X c #97A99F",
"XX c #A5B998",
"oX c #8C9AA1",
"OX c #919EA5",
"+X c #8BA2A0",
"@X c #97AAA4",
"#X c #9AABA4",
"$X c #96A5AC",
"%X c #98A7AE",
"&X c #99A9AF",
"*X c #9FB3A0",
"=X c #99A7B0",
"-X c #9DACB3",
";X c #9FB1B7",
":X c #A3B6A9",
">X c #A6BAAC",
",X c #A0AFB7",
"<X c #A5B5B4",
"1X c #A6B6BC",
"2X c #A8BBB8",
"3X c #A9BBBB",
/* pixels */
"&.q.q.f.y.&.9.e.q.i.i.9.b.p.p.q.p.e.p.f.9.9.9.9.9.9.9.9.q.i.e.d.f.c.&.q.9.9.9.9.9.9.i.i.q.i.e.d.;.i.p.n.&.9.&.e.e.q.9.9.q.i.p.q.",
"9.q.e.d.$.9.9.9.q.q.i.e.p.e.p.q.i.p.q.e.9.9.9.9.9.9.9.9.q.q.e.y.:.&.&.q.9.9.9.9.9.9.q.i.q.q.i.d.q.i.i.l.y.m.B.$.q.9.9.9.9.q.9.9.",
"9.9.i.p.i.p.p.9.9.9.e.q.e.i.i.9.i.q.9.9.9.9.e.9.9.9.9.9.i.i.q.p.n.y.&.q.q.9.9.9.9.9.9.q.i.9.q.q.q.i.p.q.p.e.f.n.$.9.9.9.9.9.q.9.",
"9.q.e.e.i.q.$.&.9.9.9.9.q.i.q.q.q.q.9.9.9.9.p.&.f.q.9.9.9.9.9.q.&.9.p.m.&.i.x.9.9.9.9.9.q.q.9.9.q.e.9.i.i.i.i.p.&.9.9.9.9.9.q.9.",
"9.q.i.i.i.i.q.9.9.9.9.9.9.q.9.9.9.q.9.q.9.e.q.p.y.y.9.9.9.9.9.9.9.9.f.q.i.f.o.9.9.9.9.9.q.e.p.9.q.9.9.i.i.i.d.-.q.9.9.9.9.9.q.9.",
"&.q.q.e.i.q.x.q.9.9.9.9.&.&.&.9.q.9.q.i.&.p.p.e.e.y.9.9.9.9.9.9.9.q.i.q.f.&.x.x.e.q.q.9.9.p.e.9.9.9.9.q.i.e.&.9.9.9.9.9.9.9.q.9.",
"&.9.9.9.&.f.y.&.9.9.9.&.$.$.$.$.&.i.i.q.e.e.p.n.&.&.;.9.9.9.9.9.9.q.i.i.e.e.i.p.y.9.9.9.9.&.i.9.9.9.9.9.9.9.q.q.9.9.9.p.&.q.q.n.",
"i.b.;.$.&.9.$.q.9.9.9.9.9.9.q.&.&.q.q.q.q.e.b.y.q.b.&.q.9.9.9.9.9.q.i.i.q.q.$.$.%.9.e.p.f.e.i.q.9.9.9.9.9.&.;.9.9.9.p.q.x.&.d.-.",
"p.y.q.&.q.9.9.9.9.9.q.9.9.q.9.9.9.9.i.i.i.q.e.q.b.$.&.&.&.$.$.$.$.&.9.i.i.i.e.9.9.9.c.y.q.q.9.9.9.$.$.$.$.$.$.$.q.q.i.e.q.p.p.e.",
"q.q.q.&.$.$.$.$.$.$.&.i.i.i.i.q.9.9.q.i.d.n.q.q.;.q.q.9.&.-.$.$.&.q.i.q.p.i.d.f.9.9.b.n.i.p.i.q.9.&.$.$.$.$.$.9.q.q.9.9.q.q.e.q.",
"9.e.;.9.&.$.$.$.&.&.q.9.i.p.i.i.q.9.9.9.9.9.e.q.-.&.9.9.9.9.q.9.9.9.i.p.q.y.m.c.9.9.$.q.q.q.q.q.q.q.q.9.9.9.i.&.9.q.x.&.x.&.9.9.",
"p.x.&.9.9.9.9.q.q.q.q.i.q.p.f.f.n.9.9.9.9.9.9.9.9.9.q.9.9.e.&.9.9.9.y.f.f.&.#.:.9.9.9.9.9.&.q.9.9.9.9.e.9.9.h.;.9.p.q.i.x.&.q.q.",
";.9.q.q.9.9.q.p.q.p.i.e.p.q.;.q.$.9.9.9.q.9.9.&.y.&.q.:.e.f.;.q.9.9.&.l.B.&.9.;.q.q.9.9.9.o.B.e.9.9.9.n.y.q.i.q.i.i.i.b.&.e.i.;.",
"i.q.p.i.i.q.q.i.i.&.d.i.e.x.e.$.e.q.9.9.q.9.9.y.p.;.p.q.i.e.b.&.9.9.9.9.;.9.9.q.9.&.p.q.q.-.f.e.9.9.q.9.x.&.i.q.p.i.p.&.q.9.q.e.",
"9.i.e.b.i.q.q.i.d.&.y.p.e.e.b.q.$.q.9.9.q.9.9.i.q.p.9.i.q.i.e.p.p.%.&.9.9.9.9.9.q.&.&.m.h.q.i.e.9.9.9.9.i.q.i.q.9.q.p.x.&.9.q.9.",
"9.f.p.f.i.e.y.e.f.9.&.y.b.$.-.q.9.9.9.9.q.&.%.=.<.4.8.6.7.7.A.A.Z.A.A.7.6.6.4.,.>.y.e.&.b.d.i.e.9.9.9.q.q.q.&.q.q.q.q.9.q.9.q.9.",
"&.f.f.q.p.;.q.p.x.&.9.9.$.b.y.x.x.%.*.V.8.A.F.K.{.>X>X>X<X<X1X1X1X1X<X<X<X>X>X{.K.G.S.6.+.>.q.q.$.$.$.$.$.$.$.$.$.$.$.$.&.9.q.9.",
"9.q.x.y.f.$.&.m.;.&.9.9.q.e.p.=.5.D.P.XX3X<X1X1X-X%X%X=X=X=X=X=X=X=X=X=X=X%X%X,X1X1X3X:XL.| S.4.+.$.$.$.$.$.$.$.$.$.$.$.;.q.9.9.",
"9.&.$.;.$.q.9.&.%.q.9.9.9.1.D.Y.*X3X1X&X%X=X=X=X%X%X%X%X%X%X%X%X%X%X%X%X%X%X%X%X%X%X%X-X-X$X+X|. .A.1.=.&.;.&.y.p.p.q.i.p.p.p.9.",
"i.q.q.q.9.9.9.9.q.q.&.1.J.}.3X1X-X%X%X%X%X%X%X%X%X%X%X%X%X%X%X%X%X%X%X%X%X%X%X%X%X%X%X&X-X$X~.Q.'.[.).G.,.:.b.h.e.e.i.i.i.d.f.m.",
"i.q.p.q.q.p.p.p.$.,.H.*X1X-X%X%X%X%X%X%X%X%X%X%X%X%X%X%X%X%X%X%X%X%X%X%X%X%X%X%X%X%X%X%X-X%X].!.!.!./.[.).{ @.$.c.i.i.q.q.q.m.;.",
"p.i.i.9.d.p.f.#.3.}.3X-X%X%X%X%X%X%X%X%X%X%X%X%X%X%X%X%X%X%X%X%X%X%X%X%X%X%X%X%X%X%X%X%X%X-X$X_.!.!.!.!._.`.K.3.g.i.;.&.p.%.q.f.",
"9.x.p.$.d.e.g.R.:X-X%X%X%X%X%X%X%X%X%X%X%X%X%X%X%X%X%X%X%X%X%X%X%X%X%X%X%X%X%X%X%X%X%X%X%X-X%X].~.!.~.!.!./.'.`.G.<.$.$.p.i.&.q.",
"9.q.c.$.$.v.T.3X-X%X%X%X%X%X%X%X%X%X%X%X%X%X%X%X%X%X%X%X%X%X%X%X%X%X%X%X%X%X%X%X%X%X%X%X%X%X-XOX/.!.~.~.~.!.!./.[.Y.<.$.f.9.q.&.",
"q.i.9.$.@.U.<X=X%X%X%X%X%X%X%X%X%X%X%X%X%X%X%X%X%X%X%X%X%X%X%X%X%X%X%X%X%X%X%X%X%X%X%X%X%X%X-X$X_.!.~.~.~.~.!.!.!.'.Y.2.9.q.q.e.",
"q.e.9.%.J.3X=X%X%X%X%X%X%X%X%X%X%X%X%X%X%X%X%X%X%X%X%X%X%X%X%X%X%X%X%X%X%X%X%X%X%X%X%X%X%X%X-X%X'.~.!.~.~.~.~.~.!.!.oXG.=.9.i.y.",
"p.&.&.3.#X-X%X%X%X%X%X%X%X%X%X%X%X%X%X%X%X%X&X-X-X-X-X-X-X-X;X-X-X-X-X-X-X-X-X-X-X&X%X%X%X%X&X%XoX~.!.~.~.~.~.~.~.!._.`.] y.e.:.",
"j.&.=.P.<X%X%X%X%X%X%X%X%X%X%X%X%X%X&X-X-X-X-X-X-X-X%X%X%X%X$XOXOX$X$X%X%X%X-X-X-X-X;X-X-X%X%X-XOX/.!.~.~.~.~.~.~.~.!._.K.1.&.2.",
"&.%.D. X%X%X%X%X%X%X%X%X%X%X%X&X-X-X-X-X&X$X'.!.W.E.S Z V B N M M N B C Z S E.W.!.'.$X%X-X;X;X-X$X/.!.~.~.~.~.~.~.~.!.!.).H.%.&.",
"q.*.I.@X%X%X%X%X%X%X%X%X%X-X-X-X&X$X].!.A N g p i u y t O o X X X X X O t y u i a g N A !.].$X-X&X'.~.!.~.~.~.~.~.~.~.!.~.).>.g.",
"&.+.{.@X%X%X%X%X%X%X%X-X-X-X$X/.S B j i t o X X o o o O O O O r r r O o O o o o X . o t p j B E.^././._./.~.~.~.~.~.~.!./.~.+.&.",
"#.) .X%X%X%X%X%X%X-X-X-X$X!.B f y O X X o O r r r r r r r r r r r r r r r r r r r r r o X X O y f M A Q._._.~.~.~.~.~.~.^.~.) $.",
"#.W .X%X%X%X%X&X-X-X$X!.B i O X o O r r r r r r r r r r r r r r r r r r r r r r r r r r r r O o X O u k A Q._._.~.~.~.~./.~.) o.",
"( E {.@X%X%X-X-X%X!.B i o X O r r r r r r r r r r r r r r r r r r r r r r r r r r r r r r r r r r O o O u k A !._./.~.!.~.(.W / ",
"( U I.@X%X-X-XoXC i o X O r r r r r r r r r r r r r r r r r r r r r r r r r r r r r r r r r r r r r r O o O u N W._./.!.~.L.E ( ",
"/ I D. X-X-X_.M O . o r r r r r r r r r r r r r r r r r r r r r r r r r r r r r r r r r r r r r r r r r r O X O j S ~.~.).H.U ( ",
"/ I +.I.1X/.j X X r r r r r r r r r r r r r r r r r r r r r r r r r r r r r r r r r r r r r r r r r r r r r r o o f S '.K.~ I ( ",
"( I H ' (.M X o r r r r r r r r r r r r r r r r r r r r r r r r r r r r r r r r r r r r r r r r r r r r r r r r o o j D ` 1 I ( ",
"( I 1 2 } f X r t r r r r r r r r r r r r r r r r r r r r r r r r r r r r r r r r r r r r r r r r r r r r r r t r X f n > 3 I ( ",
"( T H > L b u O O t r r r r r r r r r r r r r r r r r r r r r r r r r r r r r r r r r r r r r r r r r r r r t r o u b L < 3 T :.",
"%.X.2 < ; L b a r O r r r r r r r r r r r r r r r r r r r r r r r r r r r r r r r r r r r r r r r r r r r r O r f b 6 : < G o.o.",
"&.X.R H < = L [ f r o O t r r r r r r r r r r r r r r r r r r r r r r r r r r r r r r r r r r r r r r t O o r f n L : : 3 Y #.&.",
"q.#.R H , = ; 1 5 d f r o O t r t r r r r r r r r r r r r r r r r r r r r r r r r r r r r r r r r t O o r f z 0 1 ; ; 1 K / &.e.",
"k.&.X.T G 1 = % = Q Z.z f r o r t r r r r r r r r r r r r r r r r r r r r r r r r r r r r r r r O o r f c } Q % % = < G T o.%.k.",
"i.i.&.$.Y G < = % % - ! { c f u O o O r r r r r r r r r r r r r r r r r r r r r r r t r r O o O u g z } Q * % % = , 3 K ( #.q.k.",
"q.q.x.y.( I G 1 : = # * - ~ [ 9 s g i o X o r r r r r r r r r r r r r r r r r r r r o X O u g s 9 { ! - % % = : 1 G I ( #.&.i.i.",
"p.q.$.$.#.( T J 3 > ; * % # + + ~ [ x m l f i u r X o o O O O r r O O O o o X r u i f l v x [ ..$ @ # # % = , 3 J ^ R $.&.9.q.x.",
"n.9.9.%.$.o.R Y H 7 1 : = % # # # + * _ ] q 8 & 8 c l h g f f a a f f f h l z 9 & 8 e ] _ - + # @ # % = 1 1 H Y / #.;.&.9.9.q.;.",
"&.q.9.$.$.O.o.X.R T K 3 1 > : = % # # # # @ +   4 ' ` ` w w q 9 9 q q w ` ` ~ 4 + + + @ # % % * : = > 2 G I T o.#.&.y.q.p.9.q.9.",
"9.q.9.9.&.&.%.$.$.X.R I H H 3 1 > ; = * * % - # @ # # + + + + + + + + + @ + @ @ # # % % * = = < 1 1 F K T ^ o.%.&.p.p.e.;.q.q.9.",
"9.q.9.9.9.9.q.$.$.o.X.R ( R I K G 3 1 > : , * = % % % # % # % % * % # # % % % % : = ; ; > 1 3 G G K T ^ o.#.%.&.y.&.9.9.9.q.q.9.",
"9.q.9.9.9.i.q.9.9.9.&.%.#.o.R O.T I G G 2 3 7 < < > : ; ; ; ; ; > ; ; = = = = > 1 1 1 3 7 G I T ^ / o.#.%.$.&.f.q.&.q.q.q.q.q.9.",
"9.q.i.i.e.q.f.B.&.9.q.9.&.#.;.$.#.( Y ^ T H Y J K P 3 7 3 3 3 3 G 3 3 2 2 2 3 7 G I K P Y Y / o.#.#.%.&.9.f.$.y.i.%.i.i.n.$.9.9.",
"9.q.i.i.i.p.y.%.q.q.&.$.%.q.9.&.%.%.X.$.o.( / ^ / T I R R I R Y T / K I I I K O.o./ X.:.( y.o.%.&.9.9.9.&.n.p.;.i.q.i.d.y.i.e.9.",
"q.d.i.i.i.i.x.C.&.$.O.O.O.&.9.q.9.9.$.y.%.%.#.#.#.#.o.o.o.( ( :.( -.O.R o.( O.%.;.o.;.y.;.e.;.9.9.9.9.9.p.c.b.p.i.e.i.q.i.d.c.&.",
"i.i.m.q.q.x.b.&.9.q.q.;.&.9.&.&.p.i.i.q.q.9.q.q.q.&.%.%.%.%.%.%.:.X.$.y.$.%.;.q.i.&.p.p.p.e.y.q.9.9.9.9.9.p.i.i.i.q.q.i.i.p.9.9.",
"q.p.q.M.x.%.9.9.9.9.9.9.9.&.;.x.y.p.i.e.q.q.i.q.q.9.9.9.9.9.&.&.p.b.q.i.x.&.q.i.i.q.i.i.f.p.q.q.9.9.9.9.9.9.9.;.$.$.9.q.q.q.q.9.",
"q.m.o.9.q.y.%.q.q.9.9.9.9.$.$.$.y.p.q.e.i.d.;.x.&.9.9.9.9.9.9.e.$.p.x.e.i.p.&.i.i.q.q.i.i.i.9.9.9.9.9.9.9.9.q.%.O.O.&.9.9.9.q.9.",
"n.y.$.9.9.&.&.&.$.-.%.&.q.$.$.$.;.:.p.$.y.$.:.;.q.9.9.9.9.q.-.$.i.;.i.p.i.i.e.e.i.q.q.q.q.9.q.9.9.9.9.9.9.9.q.q.q.q.9.9.9.9.q.9.",
"q.$.q.9.9.&.$.$.$.$.$.$.9.&.$.$.$.;.$.$.$.$.&.;.&.9.9.9.9.9.i.b.f.f.e.q.e.e.q.q.q.q.9.9.q.&.q.9.9.9.9.&.&.$.&.9.9.O.O.O.&.9.9.9.",
"9.q.9.9.9.9.9.9.9.9.9.q.9.9.&.$.$.$.$.$.$.&.9.&.%.9.9.9.9.p.&.p.i.i.p.q.9.9.9.9.9.q.9.9.&.M.$.9.9.9.&.$.$.$.&.9.9.9.q.9.9.f.y.9.",
"&.q.9.9.9.9.9.9.9.9.9.$.&.9.9.9.9.9.9.q.q.9.9.9.9.9.9.9.9.x.9.9.e.i.i.p.q.9.9.9.9.9.q.y.-.x.q.f.%.9.9.9.9.9.9.9.x.-.i.c.q.b.:.e.",
"9.q.q.q.q.q.q.9.p.f.q.q.q.9.9.c.9.q.n.9.q.q.q.q.q.q.q.q.i.p.9.9.q.q.q.q.q.q.q.q.q.9.B.x.c.d.q.b.-.q.q.&.9.q.q.f.p.c.f.y.p.e.b.$.",
"b.q.9.q.e.9.e.b.p.f.m.9.q.b.n.e.9.b.q.b.9.9.9.9.9.9.9.q.q.q.i.p.f.&.9.9.9.9.9.9.9.e.i.b.f.y.e.p.-.9.b.B.y.9.9.p.q.i.q.e.q.i.d.p."
};
