/* XPM */
static char *xpm_[] = {
/* columns rows colors chars-per-pixel */
"64 64 228 2 ",
"   c #3F3327",
".  c #3F3A36",
"X  c #45291B",
"o  c #52301C",
"O  c #773C19",
"+  c #603115",
"@  c #452E23",
"#  c #483428",
"$  c #593A2C",
"%  c #533528",
"&  c #473831",
"*  c #583C32",
"=  c #633E2B",
"-  c #673C26",
";  c #763F20",
":  c #7C421E",
">  c #7C4117",
",  c #58433A",
"<  c #46413D",
"1  c #67422C",
"2  c #7B4525",
"3  c #75452B",
"4  c #7D4529",
"5  c #76492D",
"6  c #7E4A2B",
"7  c #784627",
"8  c #684738",
"9  c #7B4E33",
"0  c #744D34",
"q  c #7D5136",
"w  c #7D533B",
"e  c #77553D",
"r  c #5A4C49",
"t  c #5D524E",
"y  c #664D42",
"u  c #675348",
"i  c #765444",
"p  c #7A594B",
"a  c #785B48",
"s  c #765B52",
"d  c #74625C",
"f  c #7A685E",
"g  c #756864",
"h  c #78716B",
"j  c #8B4B1B",
"k  c #934E1C",
"l  c #834524",
"z  c #844C23",
"x  c #8C4C24",
"c  c #814B2C",
"v  c #8A4E2C",
"b  c #81432B",
"n  c #924E2C",
"m  c #904D23",
"M  c #8C5126",
"N  c #8C522C",
"B  c #84502F",
"V  c #935225",
"C  c #93522B",
"Z  c #955A2F",
"A  c #9B582A",
"S  c #874E31",
"D  c #855233",
"F  c #8B5333",
"G  c #84553B",
"H  c #8B5638",
"J  c #86593C",
"K  c #8D5B3A",
"L  c #8E5834",
"P  c #935334",
"I  c #995431",
"U  c #945C35",
"Y  c #9B5B32",
"T  c #945C3B",
"R  c #9A5C3B",
"E  c #97573B",
"W  c #A15D35",
"Q  c #A25E39",
"!  c #95623D",
"~  c #9D633C",
"^  c #9C6137",
"/  c #A46333",
"(  c #A4633B",
")  c #AA663B",
"_  c #AB6A3E",
"`  c #AF6E36",
"'  c #B46D3D",
"]  c #AE703E",
"[  c #B77239",
"{  c #875E46",
"}  c #955C41",
"|  c #8D6544",
" . c #89664C",
".. c #966343",
"X. c #9C6343",
"o. c #9A6945",
"O. c #95644B",
"+. c #926A4D",
"@. c #9D6B4A",
"#. c #886756",
"$. c #9B6E53",
"%. c #946A53",
"&. c #9B735D",
"*. c #9B7758",
"=. c #9D714E",
"-. c #A46641",
";. c #A56A44",
":. c #AC6C43",
">. c #A46D4B",
",. c #AA6E4D",
"<. c #B16D43",
"1. c #AF7145",
"2. c #A4734C",
"3. c #AC734D",
"4. c #B47345",
"5. c #B97643",
"6. c #B67946",
"7. c #BA7A46",
"8. c #B4754B",
"9. c #BA754B",
"0. c #B5794A",
"q. c #BB7B4C",
"w. c #A46D54",
"e. c #A86C53",
"r. c #A16F58",
"t. c #A57454",
"y. c #AA7653",
"u. c #AC7953",
"i. c #AC765B",
"p. c #AB7A5B",
"a. c #A4785B",
"s. c #B57751",
"d. c #B47A54",
"f. c #BC7D54",
"g. c #B57C5A",
"h. c #B87959",
"j. c #866E66",
"k. c #9A7A65",
"l. c #8F786B",
"z. c #AA7E63",
"x. c #A37961",
"c. c #C37E4D",
"v. c #C87F4B",
"b. c #C27D52",
"n. c #BD834D",
"m. c #B5804C",
"M. c #BE8254",
"N. c #B6815B",
"B. c #BD825C",
"V. c #AF8259",
"C. c #9C847B",
"Z. c #8E8175",
"A. c #A9836A",
"S. c #BC8C6C",
"D. c #BA8764",
"F. c #AB8A75",
"G. c #AB8878",
"H. c #B38C75",
"J. c #B78D78",
"K. c #B89176",
"L. c #B49175",
"P. c #C4824D",
"I. c #C9834E",
"U. c #CE884D",
"Y. c #C6884F",
"T. c #C48454",
"R. c #CA8553",
"E. c #C58855",
"W. c #CC8B54",
"Q. c #C3855A",
"!. c #C98659",
"~. c #C68A5C",
"^. c #CB8C5B",
"/. c #D38D56",
"(. c #D28D5A",
"). c #D58550",
"_. c #CE915D",
"`. c #D49256",
"'. c #D4925B",
"]. c #DA945B",
"[. c #D9995E",
"{. c #D2824F",
"}. c #C28A63",
"|. c #CC8C61",
" X c #C38E6A",
".X c #C38461",
"XX c #D28D61",
"oX c #CD9363",
"OX c #CB936B",
"+X c #C89669",
"@X c #D39463",
"#X c #D89463",
"$X c #D59965",
"%X c #DC9D66",
"&X c #D59B6B",
"*X c #DB9C69",
"=X c #D5966A",
"-X c #C49471",
";X c #CC9A73",
":X c #C6997A",
">X c #D69E75",
",X c #E29E62",
"<X c #DEA16D",
"1X c #DEA067",
"2X c #CEA179",
"3X c #DBA174",
"4X c #D9A579",
"5X c #E1A46E",
"6X c #E5A067",
"7X c #E4AA77",
"8X c #9A9695",
"9X c #A89289",
"0X c #BA9B86",
"qX c #BD9E8A",
"wX c #B69986",
"eX c #B3AFAE",
"rX c #C19E89",
"tX c #C6A28C",
"yX c #CAA48B",
"uX c #D1A381",
"iX c #CEBDB2",
"pX c #CFC2BA",
"aX c #CEC1B7",
"sX c #D3C2B6",
"dX c #D2C3B9",
"fX c gray81",
"gX c None",
"hX c black",
/* pixels */
"gXgXgXgXgXgXgXgXgXgXgXgXgXgXgXgXhXhXhXhXhXhXhXhXhXhXhXhXgXgXgXgXgXgXgXgXgXgXgXgXgXgXgXgXgXgXgXgXgXgXgXgXgXgXgXgXgXgXgXgXgXgXgXgX",
"gXgXgXgXgXgXgXgXgXgXgXgXgXgXgXgXhXhXhXhXhXhXhXhXhXhXhXhXgXgXgXgXgXgXgXgXgXgXgXgXgXgXgXgXgXgXgXgXgXgXgXgXgXgXgXgXgXgXgXgXgXgXgXgX",
"gXgXgXgXgXgXgXgXgXgXgXgXgXgXgXgXhXhXhXhXhXhXhXhXhXhXhXhXgXgXgXgXgXgXgXgXgXgXgXgXgXgXgXgXgXgXgXgXgXgXgXgXgXgXgXgXgXgXgXgXgXgXgXgX",
"gXgXgXgXgXgXgXgXgXgXgXgXgXgXgXgXhXhXhXhXhXhXhXhXhXhXhXhXgXgXgXgXgXgXgXgXgXgXgXgXgXgXgXgXgXgXgXgXgXgXgXgXgXgXgXgXgXgXgXgXgXgXgXgX",
"gXgXgXgXgXgXgXgXgXgXgXgXgXgXgXgXhXhXhXhXhXhXhXhXhXhXhXhXhXhXgXgXhXhXhXhXgXhXhXhXgXgXgXgXgXgXgXgXgXgXgXgXgXgXgXgXgXgXgXgXgXgXgXgX",
"gXgXgXgXgXgXgXgXgXgXgXgXgXgXgXgXhXhXhXhXhXhXhXhXhXhXhXhXZ.V.u.d.D.a.=.=.a.hXhXhXgXgXgXgXgXgXgXgXgXgXgXgXgXgXgXgXgXgXgXgXgXgXgXgX",
"gXgXgXgXgXgXgXgXgXgXgXgXgXgXgXgXhXhXhXhXhXhXhXhXhXA.A.A.K.;X&X<X<X+X+X;XS.p.&.k.gXgXgXgXgXgXgXgXgXgXgXgXgXgXgXgXgXgXgXgXgXgXgXgX",
"gXgXgXgXgXgXgXgXgXgXgXgXgXgXgXgXhXhXhXhXhXhXhX*.a.S.2X2X2X>X&XoX_.oXoX X-XK.S.z.%.gXgXgXgXgXgXgXgXgXgXgXgXgXgXgXgXgXgXgXgXgXgXgX",
"gXgXgXgXgXgXgXgXgXgXgXgXgXgXgXgXgXgXgXgXgXgX*.D.4X4X4X-Xi.O.E F D H H $.A.S.+X+XN.@. .gXgXgXgXgXgXgXgXgXgXgXgXgXgXgXgXgXgXgXgXgX",
"gXgXgXgXgXgXgXgXgXgXgXgXgXgXgXgXgXgXgXgXhX*.2X4X7XM.U 6 b ; S } ! K 3 3 5 B 2._.*X0.~ | gXgXgXgXgXgXgXgXgXgXgXgXgXgXgXgXgXgXgXgX",
"gXgXgXgXgXgXgXgXgXgXgXgXgXgXgXgXgXgXgXgX+.;X7X3X_ j j v -.P ;.Q.d.3.B T ! 6 j M Q.@XM.K | gXgXgXgXgXgXgXgXgXgXgXgXgXgXgXgXgXgXgX",
"gXgXgXgXgXgXgXgXgXgXgXgXgXgXgXgXgXgXgX .;X3X$X/ > > ~ 8..X8.^.%X*X^.M / 0._ U O x f.@X8.J gXgXgXgXgXgXgXgXgXgXgXgXgXgXgXgXgXgXgX",
"gXgXgXgXgXgXgXgXgXgXgXgXgXgXgXgXhXhXZ.A.;X!.R : F E f.T.).[ ).[.`.U.k ' XXb.8.v l l Q..X@.e gXgXgXgXgXgXgXgXgXgXgXgXgXgXgXgXgXgX",
"gXgXgXgXgXgXgXgXgXgXgXgXgXgXgXgXhXhXA.;X|.9.O S X.;.XX(.].[ U.,X]./.V ) XXXXQ.-.X.O R }.V.|  .gXgXgXgXgXgXgXgXgXgXgXgXgXgXgXgXgX",
"gXgXgXgXgXgXgXgXgXgXgXgXgXgXgXgXgXG.z.4X=XC l ! p.3.!.].`.` E.<X].U.V ( OXXXQ.1.,.v ; y.D.@.J gXgXgXgXgXgXgXgXgXgXgXgXgXgXgXgXgX",
"gXgXgXgXgXgXgXgXgXgXgXgXgXgXgXgXgX%.OX3X8.O N >.}.q.R./.`.6.M.3X[./.I ( |.!.n.0.9.R ; }  Xu.L gXgXgXgXgXgXgXgXgXgXgXgXgXgXgXgXgX",
"gXgXgXgXgXgXgXgXgXgXgXgXgXgXhXqXA.@.$X*XT : ( 0.|.4.W.`.'.4.T.5X[.(.n ( W.'.T.4.!.( F 4 B.M.R L gXgXgXgXgXgXgXgXgXgXgXgXgXgXgXgX",
"gXgXgXgXgXgXgXgXgXgXgXgXgXgXwX%.S.~.%X@XF 2 ( P.^.6.W.(.(.9.E.<X]./.C ( (.'.T.0.^.:.H 7 f.~.;.>.{  .gXgXgXgXgXgXgXgXgXgXgXgXgXgX",
"gXgXgXgXgXgXgXgXgXgXgXgXgXgXl.k.:X3X*X^.c c ] W.E.7.W./.XX4.R.%X]./.C ( (./.T.6.W.4.T 2 f.|.M.D.$.i G.gXgXgXgXgXgXgXgXgXgXgXgXgX",
"gXgXgXgXgXgXgXgXgXgXgXgXgXgXj.%.S.OX*X^.6 B 4.W.^.7.W.'.XX9.c.'.`.W.C ( (./.T.0.W.8.X.4 f.}.d.t.%.y C.gXgXgXgXgXgXgXgXgXgXgXgXgX",
"gXgXgXgXgXgXgXgXgXgXgXgXgXgX9X#.=.;.$XoX6 : 1.E.!.7.W.W.(.4.n._.`./.M ( (./.T.0.W.q...4 d.T.;.K a #.gXgXgXgXgXgXgXgXgXgXgXgXgXgX",
"gXgXgXgXgXgXgXgXgXgXgXgXgXgXgXgXA.^ $X_.2 > 0.W.E.7.W./.#X4.T.'.'._.C ( (./.T.8.^.n.X.6 f.B._ 6 hXhXgXgXgXgXgXgXgXgXgXgXgXgXgXgX",
"gXgXgXgXgXgXgXgXgXgXgXgXgXgXgXgX:X;.*X_.c 6 q.W.!.7.W.].#X<.~.%X].'.V ( (./.T.6.^.M.X.4 f.M.;.H hXgXgXgXgXgXgXgXgXgXgXgXgXgXgXgX",
"gXgXgXgXgXgXgXgXgXgXgXgXgXgXgXgXK.o.<X^.6 D q.(.Q.7.W.].XX:.W.5X[.W.C Q W.`.T.0.W.T.X.4 d.q.( G sXgXgXgXgXgXgXgXgXgXgXgXgXgXgXgX",
"gXgXgXgXgXgXgXgXgXgXgXgXgXgXgXgXgX2.$XoX6 D q.W.W.7.W.'.XX<.~.5X[.^.I ( R./.T.6.E.E.X.6 s.T.( G sXgXgXgXgXgXgXgXgXgXgXgXgXgXgXgX",
"gXgXgXgXgXgXgXgXgXgXgXgXgXgXgXgXgX3.&XoX6 c q.'.Q.7./.'.XX<.E.5X1XW.n Y v./.T.6.W.~.X.4 s.Q.-.J sXgXgXgXgXgXgXgXgXgXgXgXgXgXgXgX",
"gXgXgXgXgXgXgXgXgXgXgXgXgXgXgXgXgXu.*XoX6 c q.(.!.7.W./.XX<.E.5X1XW.x I c.U.E.6.E.E.X.c 8.Q.X.J sXhXgXgXgXgXgXgXgXgXgXgXgXgXgXgX",
"gXgXgXgXgXgXgXgXgXgXgXgXgXgXgXgXgXu.&X&X6 S q.'.!.5.W./.XX<.E.5X1XW.N Y I.`.W.6.T.T.~ 6 8.Q.( J dXhXgXgXgXgXgXgXgXgXgXgXgXgXgXgX",
"gXgXgXgXgXgXgXgXgXgXgXgXgXgXgXgXgXy.&XoX6 B q.(.W.5.W.`.^.<.E.5X1X^.C Q R.`.W.4.Y.E.X.c s.Q.;.J dXhXhXhXgXgXgXgXgXgXgXgXgXgXgXgX",
"gXgXgXgXgXgXgXgXgXgXgXgXgXgXgXgXgXy.&X+X6 6 q./.W.5.U./.XX<.E.5X1X(.n Q U.].E.6.Y.~.X.c s.!.;.J dXhXhXhXgXgXgXgXgXgXgXgXgXgXgXgX",
"gXgXgXgXgXgXgXgXgXgXgXgXgXgXgXgXgXy.&XoX6 B 6./.!.7.U./.XX<.E.3X1X(.C Q R.`.W.6.E.E.X.4 s.~.;.J dXhXhXhXgXgXgXgXgXgXgXgXgXgXgXgX",
"gXgXgXgXgXgXgXgXgXgXgXgXgXgXgXgXgXy.&XoX9 B q.'.W.7.W./.XX<.E.5X%XW.C W I.`.~.0.E.B...5 d.}.;.J dXhXhXhXgXgXgXgXgXgXgXgXgXgXgXgX",
"gXgXgXgXgXgXgXgXgXgXgXgXgXgXgXgXhXp.oXoXc c 9.].'.5.P.'.XX:.~.,X6X/.V ) I.^.|.y.D.V. .e | a.>.J dXgXgXgXgXgXgXgXgXgXgXgXgXgXgXgX",
"gXgXgXgXgXgXgXgXgXgXgXgXgXgXgXgXhXu.oXoXc c 9.W.Q.6.W.`.XX:.^.5X,X/.V / T.XX Xa.a.{ s u 8 0 K e dXgXgXgXgXgXgXgXgXgXgXgXgXgXgXgX",
"gXgXgXgXgXgXgXgXgXgXgXgXgXgXgXgXyXV.@XoXc c 9.I.q.] P.W.(.<.!.5X%X@XC ^ f.d.y.%. .1 , , # 1 w { dXgXgXgXgXgXgXgXgXgXgXgXgXgXgXgX",
"gXgXgXgXgXgXgXgXgXgXgXgXgXgXgXgXtXu.@X^.c c 9.c.5./ ` c.XX<.Q.*X*X^.C ~ 3.v 3 0 - , t t & o = a pXgXgXgXgXgXgXgXgXgXgXgXgXgXgXgX",
"gXgXgXgXgXgXgXgXgXgXgXgXgXgXgXgXtXu.oX_.6 c 9.R.7./ ` P.XX<.T.5X%XoXM ^ 1.2 + 1 0 $ & . @ % = p pXgXgXgXgXgXgXgXgXgXgXgXgXgXgXgX",
"gXgXgXgXgXgXgXgXgXgXgXgXgXgXgXgXtXu.oX_.6 b 9./.T.:.c.Y.XX) T.%X%X'.V ^ f.;.K J 5 o @ @ X % i s pXgXgXgXgXgXgXgXgXgXgXgXgXgXgXgX",
"gXgXgXgXgXgXgXgXgXgXgXgXgXgXgXgXyX2._.~.6 c 9.(.!.6.Y.`.XX:.b.'.]./.V ^ !.|.B.3.y.9 o X = { O.{ dXgXgXgXgXgXgXgXgXgXgXgXgXgXgXgX",
"gXgXgXgXgXgXgXgXgXgXgXgXgXgXgXgXyX*.~.oXS c 9./.T.6.W.W.(.:.M.I.U./.k A T.^.E.8..Xy.G = O.h.>.{ dXgXgXgXgXgXgXgXgXgXgXgXgXgXgXgX",
"gXgXgXgXgXgXgXgXgXgXgXgXgXgXgXgXtXu.~._.9 B 6.(.!.4.P._.^.:.T.*X/.v.j A R.(.T.4.!.f.T 7 g..X-.F sXgXgXgXgXgXgXgXgXgXgXgXgXgXgXgX",
"gXgXgXgXgXgXgXgXgXgXgXgXgXgXgXgXtXt.B.oX6 6 9.(.W.] P.'.XX_ !.*X].U.k A c.!.b.9.R.c.! 2 h..X) F sXgXgXgXgXgXgXgXgXgXgXgXgXgXgXgX",
"gXgXgXgXgXgXgXgXgXgXgXgXgXgXgXgXtX2.~.oXc c 4.(.!.4.T.'.XX:.T.*X@X(.M Z b.|.b.9.!.c.R 2 s.b.( G iXhXgXgXgXgXgXgXgXgXgXgXgXgXgXgX",
"gXgXgXgXgXgXgXgXgXgXgXgXgXgXgXgXqX=.~._.S b 4.(.T.4.Y.W.XX( b.*X#X_.M N f.|.b.s.R.P.^ : d.B.( H sXhXgXgXgXgXgXgXgXgXgXgXgXgXgXgX",
"gXgXgXgXgXgXgXgXgXgXgXgXgXgXgXgXqX@._.}.S 6 4.(.b.8.T.'.|.) T.$X@X^.z v f.!.b.8.R.c.! 4 d.B.-.H sXhXhXhXgXgXgXgXgXgXgXgXgXgXgXgX",
"gXgXgXgXgXgXgXgXgXgXgXgXgXgXgXgXqXo._.^.D 4 1.(.T.4.P.'.|.) b.*X@X^.z N f.!.b.<.!.q.U 2 g.N.X.G sXhXhXhXgXgXgXgXgXgXgXgXgXgXgXgX",
"gXgXgXgXgXgXgXgXgXgXgXgXgXgXgXgXrXo.|.}.F b <.!.b.8.P.!.^.) M.@X].R.x I b.R.b.4.I.c.U 2 u.g.X.G sXhXhXhXgXgXgXgXgXgXgXgXgXgXgXgX",
"gXgXgXgXgXgXgXgXgXgXgXgXgXgXgXgXqX..|.!.G b <.(.T.4.c.(.XX) b.'./.R.m A q.b.b.<.I.5.U ; g.D.X.G sXhXhXhXgXgXgXgXgXgXgXgXgXgXgXgX",
"gXgXgXgXgXgXgXgXgXgXgXgXgXgXgXgXqXo.^.E.9 4 ' v.v.1.b.XX(./ c.@XW.P.n I q.c.f.4.7.7.X.b h.f.R 9 iXhXhXhXgXgXgXgXgXgXgXgXgXgXgXgX",
"gXgXgXgXgXgXgXgXgXgXgXgXgXgXgXgX0X@.!.^.9 9 4.).b.8.b.!.R./ f.@XW.T.n I q.T.f.,.P.9.E b h.B.X.q dXhXhXhXgXgXgXgXgXgXgXgXgXgXgXgX",
"gXgXgXgXgXgXgXgXgXgXgXgXgXgXgXgXwX..Q.Q.9 5 ' I.f.-.h.b.T.( 0.}.^.b.n I q.c.f.,.n.6.T ; u.N.o.q dXhXhXhXgXgXgXgXgXgXgXgXgXgXgXgX",
"gXgXgXgXgXgXgXgXgXgXgXgXgXgXgXgXqXo.Q.E.q 5 <.v.s.U 8.Q.Q._ 8.~.!.b.n I 9.q.h.1.n.m.} 7 u.u.! w dXhXhXhXgXgXgXgXgXgXgXgXgXgXgXgX",
"gXgXgXgXgXgXgXgXgXgXgXgXgXgXgXgX0X..Q.M.9 7 ' v.f.v _ f.T.( 8.~.T.n.n C 6.q.s.( m.6.! 4 2.3.U q dXgXgXgXgXgXgXgXgXgXgXgXgXgXgXgX",
"gXgXgXgXgXgXgXgXgXgXgXgXgXgXgXgXwX..Q.B.9 3 _ c.f.C ,.M.T./ 8.M.7.q.v C 0.q.8.Z 6.6.R 4 ,.,.F 5 sXgXgXgXgXgXgXgXgXgXgXgXgXgXgXgX",
"gXgXgXgXgXgXgXgXgXgXgXgXgXgXgXgX0X} g.g.9 7 ( 9.,.N _ q.9.W q.M.q.q.C C 4.8.:.Z 1.8.E b w.,.H 0 iXgXgXgXgXgXgXgXgXgXgXgXgXgXgXgX",
"gXgXgXgXgXgXgXgXgXgXgXgXgXgXgXgX9X0 O.@.0 1 F P N O v Y Z x 8.B.0.f.x l Y U U z Z R F - O.O.G i iXgXgXgXgXgXgXgXgXgXgXgXgXgXgXgX",
"gXgXgXgXgXgXgXgXgXgXgXgXgXgXgXeXd s i p 8 % w 9 5 G c c c S y.D.d.s.E b v S ; 9 6 0 8 * s y 8 u h gXgXgXgXgXgXgXgXgXgXgXgXgXgXgX",
"gXgXgXgXgXgXgXgXgXgXgXgXgXgXhX8Xt , * * * y k.x.x.z.r.z.p.e.z.y.y.h.i.e.i.i.r.r.k.&.#.8 y & #   < gXgXgXgXgXgXgXgXgXgXgXgXgXgXgX",
"gXgXgXgXgXgXgXgXgXgXgXgXgXgXhX8Xr * % % * p k.%.%.$.@.t.t.>.t.>.~ >.e.e.w.i.r.$.&.&.#.8 * # # @ . fXgXgXgXgXgXgXgXgXgXgXgXgXgXgX",
"gXgXgXgXgXgXgXgXgXgXgXgXgXgXgX8Xg g d g j.k.G.k.A.G.F.J.F.A.J.K.K.K.J.J.F.G.J.J.G.G.9Xj.g s f d g gXgXgXgXgXgXgXgXgXgXgXgXgXgXgX",
"gXgXgXgXgXgXgXgXgXgXgXgXgXgXgXgXhXhXhXhXhXhXhXhXhXhXhXhXgXgXgXgXgXgXgXgXgXgXgXgXgXgXgXgXgXgXgXgXgXgXgXgXgXgXgXgXgXgXgXgXgXgXgXgX",
"gXgXgXgXgXgXgXgXgXgXgXgXgXgXgXgXhXhXhXhXhXhXhXhXhXhXhXhXgXgXgXgXgXgXgXgXgXgXgXgXgXgXgXgXgXgXgXgXgXgXgXgXgXgXgXgXgXgXgXgXgXgXgXgX",
"gXgXgXgXgXgXgXgXgXgXgXgXgXgXgXgXhXhXhXhXhXhXhXhXhXhXhXhXgXgXgXgXgXgXgXgXgXgXgXgXgXgXgXgXgXgXgXgXgXgXgXgXgXgXgXgXgXgXgXgXgXgXgXgX",
"gXgXgXgXgXgXgXgXgXgXgXgXgXgXgXgXhXhXhXhXhXhXhXhXhXhXhXhXgXgXgXgXgXgXgXgXgXgXgXgXgXgXgXgXgXgXgXgXgXgXgXgXgXgXgXgXgXgXgXgXgXgXgXgX"
};
