/* XPM */
static char *ce6bdf57f96f48e1ff526906028f646bUi1RXjKNpOEYdqhG[] = {
/* columns rows colors chars-per-pixel */
"64 64 70 1 ",
"  c #DFC373",
". c #E6C76F",
"X c #EED46C",
"o c #F7DD6F",
"O c #E4C676",
"+ c #E6C976",
"@ c #EACE74",
"# c #E3C77B",
"$ c #E6CA7C",
"% c #E9CC7D",
"& c #EDD175",
"* c #EDD27C",
"= c #F1D576",
"- c #F3D976",
"; c #F0D67F",
": c #F4DA7C",
"> c #E7CB82",
", c #EACE83",
"< c #E7CF8D",
"1 c #EACE8A",
"2 c #EDD285",
"3 c #EFD980",
"4 c #EED48B",
"5 c #F1D684",
"6 c #F3D984",
"7 c #F9DF81",
"8 c #F1D68D",
"9 c #F7DB89",
"0 c #F2D98F",
"q c #F3DB8F",
"w c #F5DB8D",
"e c #F5DC8C",
"r c #F8DE8E",
"t c #E7CF91",
"y c #EACF91",
"u c #EFD391",
"i c #EFD691",
"p c #EDD592",
"a c #EFD593",
"s c #EFD794",
"d c #EFD993",
"f c #EED59A",
"g c #EFD89A",
"h c #F1D590",
"j c #F1D791",
"k c #F3D793",
"l c #F1D795",
"z c #F3D991",
"x c #F5D992",
"c c #F3DB95",
"v c #F3D997",
"b c #F3DB97",
"n c #F4D997",
"m c #F5DD96",
"M c #F3D798",
"N c #F2D79F",
"B c #F3DB98",
"V c #F4DA99",
"C c #F3DC9A",
"Z c #F6DC98",
"A c #F3DB9C",
"S c #F4DB9D",
"D c #F5DB9D",
"F c #F7E08C",
"G c #F9E19C",
"H c #F3DBA2",
"J c #F3DAA3",
"K c #F4DBA2",
"L c #F4DCA2",
"P c #F4DBA9",
/* pixels */
"84844548444888888jzj4884j8j88j844z84j4888448,j:88j88j84848:48888",
"z4n9MCBvBDn8j4888v0vvBVjj844888jvvjz84j846884j4jl88848486la84548",
"vvj88>,$$$4VBvj8vBBBvKBvAvvvjDBJ4BBDvV0z88888888544484N484ej8vvB",
"882,>&,$$$$$4AvxvJvj84j4vvnv4%+#,#$,lvDAvBjjj4MB0BvBBa8wABvAABvv",
",%#&$12$24284vjvvjjaj88jz8,$$$%%$,#$$$,aBvDBDA9lzBBvxaAB8jjj4ja2",
"2j84j44rBnVz848881jv84a4%$$,>+*,$1,,$4,8488j4848488BBvBAvz848484",
"vjZVv4,$+$,umBBvvvj44=,4j%,%$$$>%2,284V42844lA8la4z2AvAvBvABznBv",
"Bz2$$%,+,+1O$48444jVj422$2,4,44,44448448888a6j8ja4u880jjvBzDB0VV",
"%$,$1$$$$,>$4,,j888gBzv0j444482Kv4j5j488488vAvjPBDBvj,v8l8jv6j42",
",,$%%$$$%,424v4448jzvVvDjjjjljj0a64844848BB424#.%>ABJ8B4s4j422>*",
",$%>24$2B4a4z4vnzx,4,$42f26vDDBDBBvzlnBBv4+$4$2#,242vaa6AM8Jva42",
"44482484j81Zjj42$1%122$,$$#+y,,>jjD0Bz,%,$4,14,#>1,4218Df7ZB8258",
"4B448lvVAAz4$,,$42$,$,,,4,$,+,,%,44j44vj4,%$2$5524284844j82j5Mf,",
"0zBBBBV42,2,%,,$>>,,,$%*%,,,48,V2,42V2,aVB84,z22484l448288z48848",
"AvB488,,u2244,&12*4,2*,444448,84j08048a-49BDaaefzv8BBvz888488BBA",
":88,082l:a82844v8a444j88444j44<3:u64088a840jvVBmvAB46jaaALVvel88",
"484j44884z482z44B888l8a48445j884j848868848,888820l48g844888a2a64",
"vAVDnvv,n2n,z4j284844M8M8j4088848Bl8j8zj60M88j84448884j88BBB482B",
"z44,,4,jBAzz2j4z8484j8zBBCvv4alvBBB84j58jj:a8lj88488l46a8448j8Vz",
"$@#1+$>@+24Vv084848jBvDV2,$O,+$O>2uxD0884zM8484j88jj48lvv9j4jVz,",
"$$,$%$#2$,,$,9BvzABBBV,$>,$4$%>,,,$$4xA8z544jjnvvB4DBB0v8jxvm$,$",
"$4%#,,%,,244844v04*$>+,>,%,$4>@&4>z,44wJvvvnava%>$$48JK4BBAe$$%$",
">%%,,8444040z88841*,,1$>&,8&%,4424640844zvva,>$$$,<O<,4VVBjO,&$%",
"2844424848j,588888444a4,v4a6285888444284,4,*%*>%$$1$212%4,2l1,a4",
"888448j4jv4MB4n>888l4j8,288488jBjvxznxvKv2%,4,,4%1,24244a4a46j44",
"84aj44zvj4484440488645l8aaa8vvv2;,#4$>$%4LAv2484Ml4lj86508544885",
"BvVBaBABAvBAB9Bjj88a8a8j4lzZj,$,,$>%>#,4%$,ZBVzj828444j40444v44l",
"vzzjj884:0lvvCvvvPvAvBvDFv4,>$,$%%$,$%$$$$$>jmAvBVvjvl844vvnzDJv",
"lv42>$,+,O$$a4z0MeBVBBj,4+%,$#$%$$2%,$,1$%,,#4vVvBvLvvvVnvvvj488",
"2$%$&$$$$a+>,,%44424,$,4,4,%,$,2$*$$$%,8,44,8482avj8l8j888l5B082",
"$>%$$$%%%$$>#$,1%,44,24>41$,$$,,4,,>z8224444j8424j4884j8z8484$,>",
"@$,$$$a$>,,a%j2448a,4,54,2,4,444242A284A44j844:j8484,8:u=a>,%2O%",
"$,$,24%244244j28j8v884444884444848M8l48444548l46488448Bj,a,4,&$$",
"6825444888zjjavj845448888488488j40488BAvZaZnjtvj6848j448j4l84N22",
"84ja484jvVVvvVBVvKvz8888880,80ajzjzVB=,>$,>,vVvzj4888w4464j4,2v8",
"BA9vDvuBV4,*#,$,+2jZAj8j8ja84882zL8,O>O,>,$O4$eLaDBBJ9vjB9JvZ<nl",
"8jaBDBn42,%$4>%,,>%>8KvAj84x2znvl%%$,$44$>,,$$a4VBBBBzBBvAez8048",
"$,,$>$&,,%41X>,2%,2j42avBJVCB48>+2$2,,O%>224244;j4M4jB46j8a4814,",
"2,,,,,%2>2>%>24484j4ja8844,$%M,,24424444ol>68j444l8zwlvja48l42,4",
",a8,4844vz1Ajz48j8j,j244vDenxdBVVj88jj888a6;M8d8M6Gvf8DVZ8884v24",
"848j888l88z844848888jslZ<j>$>,$=4zDv4484488jv<BmVa+,$%$+,jn48888",
"j0lzBL4vBvLBvvj48a8BjB82,>=14,,,,,*aBZ>l:JBlBAv2$$,2,,%,,$,Daj8a",
"BBvBvvCn1j,>4BDnA4lvB$,%**$% ,$,$2224VCuAZ4V8,,,,>$$$4,,>$,4nBVB",
"jvvv44$,$#2,$$$4MVDa,4,,,$%,>,2444248,vwvj4,$1,,,$%$242,42482j4j",
"$>$$$$$$$+4,,4,4,44>2,424244244844844j44842,,,,,2422,4M24v4jA22%",
"4$%>,%2,,444j84088j8884844z48884884448848j480j42448488284884424,",
"2,,424444B2a:8j48888844088,08j548808884lvvZABvvz888848484j8a8222",
"4488a44884j8J48j4lVBvBxj84n480,8v8488vnx42,,,8ZvB4884j44a4u64844",
"84z8888048j88jzBvmBBZmBvvVz84844v48jZj2$%$$%@$#8DvV4088jj48al848",
"88858v484888vBvB4#,>%$>24lBBvj84zzVB,#$$,$$$>,%$$4BBvBnBBDBB8j88",
"v8884v88z4vBZz,#$%,@,$$%$#4vvvvvVB2&1$,,%$,$$%$2,,5jj88484zBv848",
"84488v8DDzBl4%$%$$$>$$$$>22288B,4%,,#&,,%,@442282j820888886zvBvz",
"lvLvv1nv84*,4,%,,$$$%,2,844z448,,,4%,122822442v484j8j8804:4848jj",
"82644zj4,,%2,,4,422%B244482azjvnvn9l8448484448888428z88,888888l4",
"vzjj8488j8j8z48244j4,a6jzvBvDuZvv0lvvxnj8464888z88484888444888j8",
"4448lvZVvDvBvvBvjj8z88avvZj,,%$$>X>44vDnBzjj848a:j8nvnABx4z8v868",
"zvvmj,>%$,>4vBVLvAzv4DBBz,$%>,$$2,$$5,#8vxBBAvvBva4$,#$$unLzjnjB",
"88,$,%$4$$$$@#,4vBDlBz04,%1,>@,,2j24>2044488882&$$$,%2>$$@$8Vj88",
"%$$$%$%$,$$$$,,,244824222,24244,424:848888424,$*,%42,@2$,%$$$242",
",%$,,,$,$,,428448508044848j448484jaa88442,$>$,,,,,%$,$$,>$,1%,,1",
",,#2,422,25428488aM8aj484l058a:j484482z,$,%,$,,2$$$$$,$,,a6,8,4%",
"445a484480j48884886j8aj48885a8l82lj882,,4,,$,$%$44,44v2,a4444844",
"5448488888488888j8j4jjzj8vll882jA88444,j,22,,824,a242a4j*8884888",
"8j84j888j88888888888488j888488888j148848484884848488888848888848"
};
