/* XPM */
static char *f0b00664da974527fbe54501b932e87aig4e5dZesTdiwort[] = {
/* columns rows colors chars-per-pixel */
"64 64 55 1 ",
"  c #83A601",
". c #85AC01",
"X c #8BAD01",
"o c #86B300",
"O c #8CB400",
"+ c #86BC00",
"@ c #8DBC01",
"# c #91B601",
"$ c #92BD01",
"% c #99BE01",
"& c #87C000",
"* c #8FC300",
"= c #92C401",
"- c #94C700",
"; c #98C202",
": c #9CC302",
"> c #9AC501",
", c #93C900",
"< c #94CA00",
"1 c #97C803",
"2 c #97CB02",
"3 c #96CC00",
"4 c #97C904",
"5 c #99C900",
"6 c #98CB03",
"7 c #9CC902",
"8 c #9BCD01",
"9 c #9BCC03",
"0 c #9FCE01",
"q c #9FD001",
"w c #A1C601",
"e c #A2CA02",
"r c #A5C901",
"t c #A2CD01",
"y c #A1CF02",
"u c #A5CC02",
"i c #ABCD01",
"p c #AACE02",
"a c #A3D101",
"s c #A3D201",
"d c #A4D301",
"f c #A5D702",
"g c #A9D201",
"h c #ABD502",
"j c #ACD501",
"k c #ADD702",
"l c #ACD901",
"z c #B2D601",
"x c #B3D801",
"c c #B3DC01",
"v c #B9DE01",
"b c #BCDF00",
"n c #BCE201",
"m c #C0E502",
"M c #C9E801",
/* pixels */
"$=*0>@*-=22*a55=5-2t&*******=2-80r@=******22=2-8$25gO*@2-=**=22-",
"=*-8O***==2-5-5=25=-********==->%+@=******=2==28=22w5hb.=****=**",
"=*25588***-=-22*5=****-****=52=5j7@*=******=2*===20=5=0lO*******",
"=*--2=O@****=4====****0@a=*****=@*2x+2u*****==**=2*222,7@*******",
"=*2222,******==**=*=*2@t-5********q@2a *****=-5*=**2220@=*******",
"@==-2=u=*****@@*=*=2@55-2>*******=2=0Oat-==**5-****=22@*********",
"@@**@q;@***@OOOO@22=2--j@@$******=25-527:**&*@2*******==**&e+>*j",
"2g$O@*O=******=@$====-d>*f@=*==**=22==XO+*-00-2=*****@$***5;dO0@",
"5;;@=*****=**=****222=-=fX@@@OOOO@*2222==*p;==***OOOOOOO==2-=8>5",
"=$=@OOOOOO@2222=**=28j*-$>=*@OOO@=2=522t**hh253=*@OOOOO*==@=====",
"*-$*@OOO@*=*2522=*****-;$@****=***25=:lu&=O;=======***2@*=d+t@**",
"5e@****====2=5t7l********==**2@***>80@o%*****@$****-**a$*5=2e@*2",
"$@==**=5=8--8=$-X******@eO-%-0$-**@wc@=$==**=.n-***h;=2;222hO--=",
"5=522==22@82-t=O2=*****77$8;2=hO&=**$**=*O0*=#0=**=*d@2=825+=*=5",
"*2-a2==28@:5--h=O=*****2=5*2=5>ta@***=*==@@zq=2-****2=2=*=5d@***",
"*0205->-0*@%fX$;***&***2-=**=55*O==*=*=+7g5@d82-=**=-=@====*=***",
"@00=5$=5d@=*Oh>td&@j@*****=*7@***OOOO=*wc222=02=OOOOOOOOOOOO@***",
"*@t-aO@x$@**=-0225=80@t**$*t=@**@*@@@@=+@t225>=@OOOOOOOOOOOO$=**",
"*@O$O=*O+=****7522=2=tl===.q=X=5qOOOOOOtx=;222***===@$O>55=3555*",
"5===****===*=*7522=2=8==@h=@2$5-p OOOOO*@5=*******OOO$f8=-2220>c",
"2=5==57tOOOOO*575==5=2**=:a=2*40$e>OOO@*******=**@OOOO$od22==*l$",
"0=2*820.OOOOO@O**+@O=2**8zt22-8*527OO@=======*>55@OOOOO:85$@8O*t",
"*t8O8-2fOOOOO$h@O7-eO==*&52-2-=55;XO@*@@@@=2228:e*OOOOO=$@OO52O=",
"=*gOOl::uXOOOa0=;7=07*===*===**=*&==@OOOO-5=22-5nO,XXXXOOO=Ot&**",
",2*OOO;@ f%O;05;52057*=====**@=**=*2=====2=j-*0uO=OXXXX=$5-8*=*2",
"=-***OOg7=57O55-=202====*=**;g-==5=2=====28@dd$&==****=-0;8=2*25",
"t@**@@=@8523=-5=*=22***@e2-=+-22=55$a=***8jX=&$@***7e@=*@g=2@g-:",
"&=**=t>7=22-2*-=**=*==@02=*Oh2-2Og-*;8***hX=****@o@72u@==@>=**=@",
"=****2550=*==$@@@@@@=+p@**=$q+a**$==******=*>+@*@nu$-2-***&$$-@*",
"2-****=-552*=OOOOOO@==-=*==-********@@=**-25>g=*@h=8=-==**;$=*g8",
"22=**==***====**====*@;>828=522**@OOO@=**=-->x-==*=--==**@#f*7=-",
"==2====***=**=@w=****@55oj@uOd=***=@*****=;-2**@X$==222***d@h0--",
"-===@@@@@O@**=;$==******>*@==******-=*****5@**=*vt0$522***O=255;",
"==*=@OOOO@=**=*0552-*********@@@*>222=**=&j@****&@Xa;-5***720@8@",
"***=*===2==**=@$;-22********XXOX@85-5*=2=*&******@l==l***=*t*7==",
"****22=2-2=-*==25-22********==$@>705-555====5=***@OO$&@;5===*=*=",
"**522-=2-0=5-@**O$2==***&*=-*====$t0$a2=7-2*22**XXOOOX=w>-2==***",
"**j-=**dh5=t50j=*u5***@wt02--*=2==*ovg0+02-5a=0*OXXXX$@g05--****",
"**+j@&j&2**0d=@==@=@=@t@$e5=22h;d=*@-&*@7,=t7j0*===*,*=*=*>-***&",
"@2d@*=*=*********=:5$2:=::0qOhou*******=$@0a;O==**=>==-=2*0***=j",
"2t *************=22-25=2;#u@*+@+@OOO@****=;-@=-=**;22-2@0*=***t*",
"5$aff***************-===$-=OOOOOOOOO@8222==**@=--@p22$0-:a&**=2-",
"2=;O.==**=&=*5@*=t@g@***e$=*@@OOO@$=**5558=*@d2=*;0=2+d**=***=25",
"=2@====**&l+=2:=5-q:**2-;*******,=*222==0$7*=@***=@7***=*@@@@*=-",
"25,t*****=*g@5;255@&=25:@**=22=*22=8--02O5O=@0-852=-==**OOOO**-=",
"=$hh&******2;2-==2j+*******2202=2--Oa2*dtO@*@e5;2:;5==**=**=**52",
"0*OO=******2======@=******=2872@027*O70.;=**=++h+5;*@@*@=8O=**;d",
"z@*@OOOOO$***=*==*=-=*****@t558O0-7**@Ox-gt*=j*&**==gO0:2-u$==*$",
"@=*OOOOOO=***=022*2228=****:OfO=@gO=***20=2=55-2x&*3=2=2=-7-0***",
"*=**@@@@=@@*$t22=222q;n@==2+=O***O=****&-522-2*t-**4-=*==55-$=**",
"==****=@OOOO25-752===cO===2=5=-50=******f25*2---***==***7@***=**",
"==***5*@=*****Oj--*3O=f&-=-52=227==OOOO@****=*-=*****@&t=@====**",
"==222*0mO====+7=2=O55X7&tx*5-=22d===@@@X$*@#$O******=aO>2O2,lO**",
"*=2220:o==@O@=*==*O0=***5*@da@d*8d@=**Oh7=$hOj+*****@h5$2=28$5=*",
"-522220MOXXXX$==*=O0***=**=2>**v+h;O=*;2tO00>8=*****0pg52-2=58p@",
"2-j==tgo===$@=@+528==*=-2****==@:.$fO*:28@575-5******72232=825@*",
"22*lt+&=*****@$d>82-==2===****@@0f*2d@;22=5205==****=**$OO*===**",
"*j.*=>+==****OO.:5=>20$d@******5o8a-27@22==222********=+XX@*****",
"j:O*=@@@O#+@=OOO;$8owO$@=****=$X5@2522--2====*=*******====******",
"=X=**OOOOOOO*@OOO;OOOO@=@*****2h0t-=>-====**=@=****@@O@*=XXX@***",
"*=*********==*@OOOOOO@*@+****7@5227=*****==*+co***@OOO@***=**0>*",
"***********OO=*****==********t**-225=******>$t$0+******&d#2p$a#5",
"********20*==*+d**j@=*******=:@****=******v0r5=aO=*+@**0-r0>5=aO",
"h$=-5*-d50z*-dj-*g=h*******=2=28t*==*****-2g05-5$*gv:=*5=2=-=25t"
};
