/* XPM */
static char *e56fd2b0dcae4505d48b2975ecfd3c53UHBhmCFRX49qRKyR[] = {
/* columns rows colors chars-per-pixel */
"64 64 256 2 ",
"   c #360702",
".  c #281105",
"X  c #391704",
"o  c #1A3A0B",
"O  c #352A09",
"+  c #480A06",
"@  c #570B07",
"#  c #4A170F",
"$  c #561807",
"%  c #770605",
"&  c #68150A",
"*  c #72100E",
"=  c #48290E",
"-  c #552A0A",
";  c #54360A",
":  c #492B13",
">  c #572412",
",  c #4D3418",
"<  c #543C1A",
"1  c #6C310D",
"2  c #783719",
"3  c #551727",
"4  c #660D30",
"5  c #513521",
"6  c #74362C",
"7  c #0D5E04",
"8  c #334B03",
"9  c #35750C",
"0  c #4D4F10",
"q  c #714C12",
"w  c #4F710B",
"e  c #6F7314",
"r  c #5A4426",
"t  c #644826",
"y  c #68562A",
"u  c #795928",
"i  c #735235",
"p  c #6B7028",
"a  c #78653B",
"s  c #70114B",
"d  c #6E534B",
"f  c #7B684E",
"g  c #890306",
"h  c #921113",
"j  c #B40A0A",
"k  c #932814",
"l  c #B42D17",
"z  c #921735",
"x  c #893729",
"c  c #D00E13",
"v  c #DF2215",
"b  c #D0162C",
"n  c #D72330",
"m  c #E7302C",
"M  c #8C500D",
"N  c #AD4F12",
"B  c #946E15",
"V  c #B5690B",
"C  c #91502D",
"Z  c #B25833",
"A  c #936833",
"S  c #B56E31",
"D  c #D26A0B",
"F  c #DA6318",
"G  c #EA4F32",
"H  c #C8762A",
"J  c #D17429",
"K  c #CC7A33",
"L  c #D57E35",
"P  c #880B54",
"I  c #A10957",
"U  c #8B2751",
"Y  c #900E6B",
"T  c #AA0B6E",
"R  c #962963",
"E  c #AE336C",
"W  c #EE3649",
"Q  c #C7187D",
"!  c #866A45",
"~  c #897349",
"^  c #917551",
"/  c #AA794A",
"(  c #9A4C68",
")  c #9E616A",
"_  c #8F746C",
"`  c #EE514D",
"'  c #C87C45",
"]  c #EB7352",
"[  c #DB746B",
"{  c #F97069",
"}  c #319601",
"|  c #3AAF03",
" . c #568F0E",
".. c #6B9112",
"X. c #4EAE08",
"o. c #73B512",
"O. c #70962A",
"+. c #6FCE0F",
"@. c #68D21B",
"#. c #668152",
"$. c #9B9E21",
"%. c #F5910A",
"&. c #E5AD0C",
"*. c #D48A35",
"=. c #D98738",
"-. c #EA8928",
";. c #E58937",
":. c #E8973B",
">. c #F39639",
",. c #E9A637",
"<. c #FAA939",
"1. c #90D517",
"2. c #A8D10F",
"3. c #93EB0E",
"4. c #B5EC13",
"5. c #9DDC2C",
"6. c #ACEB2F",
"7. c #CCDA1D",
"8. c #FEC409",
"9. c #CFF911",
"0. c #EFFC11",
"q. c #D2FB2F",
"w. c #F0F82A",
"e. c #938549",
"r. c #998357",
"t. c #AF8D52",
"y. c #A4885A",
"u. c #BA9859",
"i. c #B7AA5A",
"p. c #958D74",
"a. c #AA9465",
"s. c #B59C69",
"d. c #AC9373",
"f. c #BBA56A",
"g. c #B9AD76",
"h. c #C78848",
"j. c #D0924B",
"k. c #D9934A",
"l. c #E88E47",
"z. c #E89847",
"x. c #F39B45",
"c. c #E69C54",
"v. c #CFAE56",
"b. c #D6A955",
"n. c #E9A74C",
"m. c #F7A74A",
"M. c #FBB747",
"N. c #F6AA56",
"B. c #EAB254",
"V. c #FAB756",
"C. c #FDBC5C",
"Z. c #CC996A",
"A. c #FA8075",
"S. c #C6AA68",
"D. c #D1B16C",
"F. c #C8AA77",
"G. c #D4BA78",
"H. c #F6B46B",
"J. c #F8B868",
"K. c #B0DD59",
"L. c #FDC64B",
"P. c #FBC656",
"I. c #FEC45C",
"U. c #FECB5D",
"Y. c #EED353",
"T. c #FFD45B",
"R. c #E7F05B",
"E. c #DEC478",
"W. c #FEC362",
"Q. c #FECB63",
"!. c #F8C269",
"~. c #FECB6C",
"^. c #EBD067",
"/. c #FED463",
"(. c #FEDB64",
"). c #FDD86B",
"_. c #E6CA77",
"`. c #E8CA75",
"'. c #E4C77B",
"]. c #E6CA7C",
"[. c #E9CC7D",
"{. c #FDCA76",
"}. c #ECD279",
"|. c #FFDC73",
" X c #F7D779",
".X c #FEDA7C",
"XX c #FBE46B",
"oX c #FEE474",
"OX c #FBEB77",
"+X c #FEE47A",
"@X c #FFEC7A",
"#X c #FFF375",
"$X c #FFF47A",
"%X c #B31385",
"&X c #B33188",
"*X c #CE0B97",
"=X c #CF2C8E",
"-X c #DC25A8",
";X c #B05A92",
":X c #AF6D87",
">X c #CC5DA1",
",X c #E468C6",
"<X c #968D8C",
"1X c #AD9886",
"2X c #B8A78E",
"3X c #959AAF",
"4X c #B593AB",
"5X c #B0AEAF",
"6X c #CDB68E",
"7X c #DE9DA2",
"8X c #DBC687",
"9X c #D2CA99",
"0X c #E7CB82",
"qX c #EACE83",
"wX c #E7CE8A",
"eX c #EACF89",
"rX c #F5CC8E",
"tX c #EDD285",
"yX c #E9D68A",
"uX c #EED48B",
"iX c #F1D784",
"pX c #F3D984",
"aX c #FDD886",
"sX c #F1D68D",
"dX c #F2D98C",
"fX c #EED592",
"gX c #EFD79A",
"hX c #F1D692",
"jX c #F1D792",
"kX c #F3D994",
"lX c #F2D996",
"zX c #FED996",
"xX c #F2D69B",
"cX c #F3DA99",
"vX c #F3DA9B",
"bX c #FDE787",
"nX c #F9E691",
"mX c #FCF396",
"MX c #D2CFB3",
"NX c #F4DCA2",
"BX c #F9DEAA",
"VX c #EFD3B0",
"CX c #FCE8AD",
"ZX c #FCF7A8",
"AX c #FCFBB7",
"SX c #B3B9C7",
"DX c #CBB2C3",
"FX c #D0CECE",
"GX c #FBD2C4",
"HX c #DBE8D0",
"JX c #FFFFC5",
"KX c #EDECD6",
"LX c #E7D6E3",
"PX c #ECEFEA",
"IX c #FBFEF5",
"UX c #FDFEFD",
/* pixels */
"sXuXsXuXuXiXuXsXuXuXuXsXsXsXsXsXsXjXjXjXuXsXsXuXjXsXjXsXsXjXsXuXuXjXsXuXjXuXsXsXsXuXuXsXeXjX XsXsXjXsXsXjXsXuXsXuXsX XuXsXsXsXsX",
"jXuXlXdXcXcXcXlXcXcXlXsXjXuXsXsXsXlXdXlXlXcXcXjXjXsXuXuXsXsXsXjXlXlXjXjXsXuXjXsXuXpXsXsXuXjXuXjXjXsXsXsXuXsXuXsXpXjXfXsXfXiXuXsX",
"lXlXjXsXsX0XqX].].].uXcXcXlXjXsXlXcXcXcXlXNXcXlXcXlXlXlXjXcXcXNXuXcXcXcXlXcXdXjXsXsXsXsXsXsXsXsXiXuXuXuXsXuXxXuXsXuXdXjXdXlXlXcX",
"sXsXtXqX0X^.qX].].].].].uXcXlXlXlXNXlXjXsXuXjXuXlXlXlXlXuX[._.'.qX'.].qXjXlXcXcXlXcXjXjXjXuXcXcXdXcXlXcXcXfXdXdXcXcXlXcXcXcXlXlX",
"qX[.'.}.].eXtX].tXuXtXsXuXlXjXlXlXjXjXfXjXsXsXjXjXsXqX].].].[.[.].qX'.].].].qXfXcXlXcXcXcXcXpXjXjXcXcXlXlXfXcXcXsXjXjXjXuXjXfXtX",
"tXjXsXuXjXuXuXdXcXlXcXjXsXuXsXsXsXeXjXlXsXuXfXuX[.].].qX0X_.[.qX].eXqXqX].uXqXsXuXsXsXjXuXsXuXsXuXsXsXcXcXlXcXcXlXjXsXuXsXuXsXuX",
"lXjXcXcXlXuXqX]._.].qXfXlXcXcXlXlXlXjXuXuX}.qXuXjX[.qX[.].].].0X[.tXqXtXsXuXcXuXtXsXuXuXlXcXsXjXfXuXjXtXcXlXcXlXcXlXcXcXjXlXcXlX",
"cXjXtX].].qXqX_.qX_.eX'.].uXsXuXuXuXjXcXjXuXtXtX].tXqXuXqXuXuXqXuXuXuXuXsXuXuXsXsXsXsXfXpXjXsXjXfXuXfXsXsXdXjXjXlXcXjXcXcXdXcXcX",
"[.].qX].eX].].].].qX0X].uXqXqXjXsXsXsXgXcXjXlXdXjXuXuXuXuXsXtXNXlXsXjXpXjXuXsXsXuXsXsXlXcXlXjXBXcXcXcXlXjX0XlXsXjXsXjXlXpXjXuXtX",
"qXqX].[.[.].].].[.qXuXtXuXlXuXuXuXsXlXjXlXcXlXcXjXjXjXsXjXjXjXdXjXpXsXsXuXuXsXuXsXcXcXuXtXuX'.`.[.0XcXcXNXsXcXuXlXuXjXuXtXtX0X}.",
"qX].[.0XtXuX].tXcXuXfXuXjXuXlXlXjXlXqXuXqX].qXtXgX0XG.s.y.~ f f ~ r.a.F.8XjXcXcXlXuX_.].uX].tX'.0XtXuXtXlXfXfXpXcXcXsXNXlXfXuXtX",
"uXuXuXsXtXuXsXuXjXsXeXcXjXjXuXtX].eX].wXtX'.e.< < y ~ t.u.D.D.b.b.j.t.A u t < r ^ D.uXqXwXuXeX'.0XeXqXuXtXeXdXcXgXpXcXcXsXtXiXsX",
"uXcXuXuXsXjXlXcXcXcXjXuX].qXqX].tXtX].s.< a f. XoXT.T.(.(.(.).)./.P.M.M.M.M.m.n.t.u , ! 0X].tXiXtXuXtXsXuXsXuXuXjXsXtXjXiXcXgXqX",
"dXjXcXcXcXcXcXuXtXqXtXqX[.qXqX_.0Xf.: s.mX(.M.M.n.j.B.L.T.T.L.M.M.M.M.M.<.,.*.*.-.>.N.u.< y qXqXuXsXuXjXuXuXsXtXsXsXjXuXsXsXuXsX",
"cXlXcXuXjXsXqXqXfXtXtXuXuXqX}.eX< y.mXL.,.<X,.M.M.M.j.y.~ A A B M q u ~ r.t.n.~.|.Q.m.;.V.Z.= r.jXfXdXcXcXlXjXsXsXsXuXsXdXcXcXcX",
" XsXsXqXdXsXtXjX XfXsXtXuXuX8X: ZXoXL.(.S.d.#X$XXXoX/.L.T.). XpXyXnXbX).L.I..X.XS.S.bXI.V.;.aX! 5 cXfXuXpXjXfXfXcXNXcXlXdXjXsXsX",
"uXsXuXjXuXuXsXsXuXjXuXuXtX8Xt AXM.(.E.8X#X#XoXv._ XX@X@X+XXXY.h.L.M.P.U.I.I.C.V.:.3X:.~.J.C.:.J.Z.. uXuXgXsXsXsXsXsXsXfXtXfXpXuX",
"lXcXcXcXlXlXlXqXlXtXlX0XwXy AX<.mXMX3Xv.XX+XZX6X9XmX+X+X+X$Xi.5Xt.(.P.P.I.I.I.U.M.M.W.V.W.W.m.:.rX6X. sXtXuXjXsXsXcXcXlXuXsXtXcX",
"jXuXuXqXqXuXqXjXcXcXuXjX, JX<.9XAXoXv.#XZXJXAXZX@XXX$XOXoXoX#X#XOXoX|.P.P.P.U.h.SX~ U.C.C.V./ 5X6X-.F.5 jXuXpXfXsXuXuXsXjXsXcXjX",
"].`.'.eX_.].0X`._.tXuXr AX>.dX<Xf #XoXZXJX6X^ #XoX$Xs.S.OXXXXXoXbXoX|.oXP.U.P.P.*.P.I.I.m.m.k.H >.K z.^ a.sXjXlXlXpXjXuXjXcXjXqX",
"].].qX].[.].'.tX].0Xf.g.V. XZX+XXXoXoXAXmXa.^.+XoXY.<XY.oXbXZXXXJXoX$X@X+X,.B.Q.U.I.I.V.V.N.m.m.=.L J J.: cXdXlXsXjXlXlXlX].qX].",
"].uX[.'.qXqX[.qXqXtXr AX*..XaXoXoXoXmXJX+X$X+X+XoX@XXX@XXXbXAXoXXX#X_ D.^.3X^ T.Q.Q.U.C.V.m.m.N.z.K L J Z.f cXuXcXcXcXdX].].[.].",
"0X[.[.qXqXsXuXuXtXf.g.,.5Xu.|./.|.+XbXmXoX+XoXoX+X+X@X+X+XoXXXoX+X@XD.d.$Xb.T.Q.U.V.V.V.J.~.V.m.m.L H L x.t eXcXcXcXjX'.qX}.].[.",
"tXsXuXuXuXiXuXsXuXt ZX-.~ ).{.U.U./.).(.(.).+X@X$X(.(.+X+X$X+X+XoX|.@X$X+XQ.U.V.m.V.h.u.{.!.N.m.C.*.5XJ =.' r.[.uXqXtXjXeXqXfXuX",
"sXsXsXuXuXsXjXuXjXt aX:.I.~. XT./.Q.U.U.T.).@Xv.v./.T./.^.a.^.oX|.oXoX).(.(.W.I.V.M.,.5XS m.N.M.V.m._ =.x.h.A sXfXuXfXuXpXjXuXuX",
"sXuXfXjXuXuXjXlXfXa n.n.m.C.|.p.b.U.U.U.U.).(.3Xj./.U.(.a.g.(./.(./.U.P.s.d.P.Q.Q.Q.C.<..X{.=.2Xy.m.>.=.x./ a iXdXsXiXuXuXsXsXiX",
"cXlXcXcXfXcXcXcXcXr `.D *.m.V.1Xv.|.I.U.U.Q.+Xb.T.U.U.U.P.T.P.|.s.S.+X+Xf.S.aX.X.X.XQ.m.h.k.c.u.k.x.K =.J / a uXdXuXuXuXlXuXuXjX",
"lXjXjXjXjXsXsXuX XG.t tXz.V m.:.V.V.W.Q.Q.I.~.|.~.I.I.I.I.Q..X+X1XS.|.~.bX+X{..X.X~.C.V l.l.H J.N.K z.;.2 , uXuXuXlXlXlXjXcXNXlX",
"jXlXuXtX0X].qX_.0X_.y.t 0 S.n.>.>.V.C.n.B.W.I.~..X.X~.W.~.~.I.~.P.Q.V.n.c.W.J.W.J.V.H l.l.z.K K ;.;.M X f _ wXlXlXlXlXlXjXuXsXsX",
"tX].[.].}.].].].].fXy.GXKX. < i / k.x.<.M.z.m.m.:.V.W.~.C.W.B.n.C.n.V.Q.~.c.W.N.m.z.H z.x.z.k.A q X 4 U IXUX! sXsXsXjXiXcXdXsXtX",
"].0X[.].].].[.[.].S.p.> UXMX& D M = , r A t.h.l.N.N.m.m.m.m.m.m.;.m.x.x.x.x.l.z.K S S q : r O 4 P G.6 4 KXIXr sXjXsXuXsXuX].qX0X",
"}.].qX].].].fX_.0XB L.3 U HXIX_ M V D V N 1 - - = : : ; ; ; 1 1 u u y y : O X . . O i d.2X) I T 5 uXG.a.UX) i fX}.fX0XqX[.tX'.[.",
"].qX].qXuXuX].qXtXuXB %.s *X;XLXUXIXFX5X1Xd.y.y.a.d.2XMXKXHXFX<XU P P 3 2X1X1X1X2X7X:XE E Q P % j > MXUX_ I f.jXqXfXqXuXqX}.].].",
"pXsXtXiXuXuXjXuXG.! ..q %.6 Y -X-X>X:X:XDXDXFXFXFXDXDX>X;X&XT *X%X> a 3 + * h R E T E z + X 2 d.PXUX5XP T a uXuXfXuXjXuXuXxXtXtX",
"sXuXjXfXuXsXuXjXe.+.w k M 8.D.1 4 U &X=X=X,X-X*X,X,X-X%XY s 6 3 P U ^ MXPXKXHXMXMXHXHXPXIXUXLX5X( z I s 0 t.wXuXiXuXjXuXqXtXlXsX",
"cXcXpXlXcXlXfXwXy q.+.* c - 9X~.F D V M q 1 1 q q q M M B V D k 3 -X*XQ >X4X4X( ( :X4X>X=X=X-X=XR 4 & & @.+.y.jXcXdXNXlXcXeXlXjX",
"dXjXfXcXcXcXF.6.K.3.4.q c n $ %.UXF %.8.%.u.M j v m G G v l h j c h & s P Y T T =X&X&XR U 6 2 C l k g & 5.q.$.8XlXcXpXjXsXdXuXsX",
"].qXqX].0X].~ 3.O.MXK. .j n W i &.8.8.i.d @ l l l l h h j c c j j c k l F F N N N N J ] l.G Z x x n j , X.X.4.4.8XuXfXuXuXeXuXqX",
"tXqXqXqXqX0XE.$.q.4.1.3.o % j b B &.i Z 7X7X` { W W W c b c j j * > 1 k k N Z Z Z Z Z C ! _ [ { W m g 9 w w ....e.uXsXjXuXtXqXuX",
"qXfXsXqXuXsXuX_ 5.X.o.2.7.2.w - @ g n W { { W n b c c j g % $ * h k v m m m n ] ] { A.GXGX7X{ m c g o o. .w.4...p sXsXsXuXlXtXuX",
"sXuXsXjXsXsXsXr.K.....$.q.R.6.+.} 9 ....8 0 8 y 0 8 8 w 2.3.+.0 + h c v v m m G { ` ` ` ` m j % O 2.4.w o.1.O.~ f.jXlXuXsXsXsXsX",
"jXdXjXjXcXNXuXlXF.f X $ @  .X.5.6.0.w.q.6.} K.q.+.#.w 0.0.4.1.o.IX} O X & % % g % % & @ ; o 7 @.o.0.w  .+.3.p tXqX].qXcXfXjXsXfX",
"cXcXlXcXlXlXcXlXuXa.F.  C O e ..1.9.1.+.X.1.p O.5. .X.7 2.3. .w.6.9.1.7.} 9 +.9 $.4.5.1.X.0.&.w.3. .w 0 & 1 S.[.0X].qXuXlXcXcXcX",
"jXlXlXlXuXuX].qX].S.p.aXX   $ x & = +.< w +.$  .| 0 @ $   +.3.0.4...2.9.1. .4.2.w.9.o...9.X.3.+.0 w +.0 >.C G.qXuXtXuXsXtXjXuXjX",
"].0X].].].].].].]._.< CXaXb.# # 1 1 ..2 C x Z 1 w 1 C / > , q = = | 4.9.$.X.$.4.+. .0 w 0.4.w & 1 0 i L z.< cXtXuXlXuXjXcXtXtX[.",
"uX].[.0XqX[.qXqXqXsXy 8Xx.N.zXd.u $ @ + $ # > 2 x C 2 6 Z Z ' x  .X.e X 9 X.o.  + + + + O @ ' xXz.H.c.H h.a tXsXuXsXsXuXuXtXuXqX",
"tXqXqXuXtXuXuXuXuXcXqX, nXz.N..XnXbXCXNXZ.c.N C > $ X + 2 > 2 # + + + >   ..} o.@ N K L z.zXxXz.N.N.H x.t tXuXsXuXjXsXfXsXtXtXtX",
"uXuXsXsXfXuXsXsXsXsXfXG.y nX=.!.{.zXzXaXzXaX~.W.aXNXrXh.S K ^ h.A Z.H.m.m.A w 0 VXKXH.N.N.x.N.N.c.*.x.A s.jXuXfXfXuXfXpXuXsXuXuX",
"sXuXjXsXsXsXsXdXuXsXjXuXG., G.N.z.N.!.{.zXzXzXzX{.J.{.{.{.{.{.zXBXrXH.H.H.J.l.H.N.x.N.H.h.j.z.=.:.c.t s.jXuXsXjXjXuXsXfXjXsXuXsX",
"sXsXsXiXsXlXuXsXuXsXsXsXfXcX~ r / b.BXCXrXH.H.H.N.J.J.J.J.t.{.J.H.H.H.H.J.c.k.N.h.k.k.=.S S =.' u r wXcXcXcXlXcXcXcXcXcXsXjXsXsX",
"lXsXsXsXuXlXsXsXjXuXlXcXcXfXqX'.u.t ; q s.VXH.C.CXN.N.N.h.j.c.c.c.c.c.z.*.K =.S *.x.;.K A q < ! E.qXtXjXjXsXsXuXsXuXjXcXlXsXuXsX",
"sXuXuXsXsXlXsXcXcXlXcXjXuX[.].[.].].].D.^ y , ; q C A / j.j.c.c.k.k.K H S S A C q ; < a y.E.tXsXtXjXsXtXdXsXsXsXsXsXpXjXlXcXlXjX",
"jXlXNXlXlXeXlXlXsXuX}.qXuXqX[.qXqX].].].[.qXtXqX0XG.f.a.^ a y r < < r y a r.f.G.qXtXtXuXuXtXlXuXdXuXjXsXjXsXsXdXuX XuXsXuXsXjXjX",
"sXtXpXuXuXjXjXuXqXqX[.tXqXqXuXqXuXtXtX[.cXtXuXuXuXdXtXjXjXjXlXlXlXlXpXjXsXuXuXsXuXsXuXuXuXsXsXsXsXuXtXsXjXsXsXqXsXsXsXsXsXsXjXuX",
"lXjXjXjXsXuXsXsXjXsXjXsXjXuXsXtXuXuXjXuXqXfXpXjXjXlXcXlXcXfXcXlXlXdXjXlXlXlXlXjXsXuXpXuXsXsXsXjXsXsXuXsXuXsXsXsXuXuXuXsXsXsXjXsX",
"uXuXuXsXjXlXcXcXlXcXlXcXlXlXcXlXjXjXsXjXdXsXfXlXlXcXjXqXqX[.].].0X^.0XuXuXlXcXlXcXjXjXjXsXuXsXfX XjXsXlXlXlXcXcXlXuXjXsXlXsXpXsX",
"jXlXlXlXjXqX0X[.].qX0XuXlXcXcXNXlXcXjXlXuXcXcXcXjXqX].[.0XqX].].tXqX].].iXqX'.sXlXlXcXcXcXlXlXcXlXfXuX].qX'.].].fXlXNXjXjXlXjXcX",
"sXsXqX].qX[.].uX].].].].}.'.qXuXlXcXcXjXcXjXdXuXqX[.qXqX0X`.qXqXtXjXtXuX0XtXdXuXuXuXsXsXsXsXtX}.].].].qX[.tX0X].]._.].sXcXjXsXsX",
"[.].].].[.].[.].qX].].].].qXqXqXtXuXuXsXtXuXtXtXtXqXtXuXtXuXuXqXuXtXuX XsXuXsXsXsXsXuXtXuXqX].}.qX[.uXtXqX}.tX].qX[.].].].tXuXtX",
"qX[.].qXqXqX].qX].qXqXuXtXsXuXuXsXiXdXsXdXuXuXsXuXsXjXuXuXsXuXsXuXjXfXfXsXsXuXuXtXqX].0X].qXqXqXqXqX[.].qX].].qX0X].qXeX[.qXqXeX",
"qXqX'.tXqXuXtXtXqXtXsXuXtXsXuXsXsXfXcXdXfXjXuXsXuXjXdXiXsXfX XjXuXsXuXuXsXtXjXqX].qX[.qX].qXqXtX].].].].].qX].qXqXfXpXqXsXqXuX[.",
"uXuXiXfXuXsXuXuXdXdXjXuXdXsXsXuXsXsXpXjXsXfXjXuXsXsXsXiXfXsXjXsXtXjXjXsXsXtXqXqXuXqXqX].qX].[.].uXuXqXuXuXlXtXqXfXuXuXuXuXsXuXuX",
"iXuXuXsXuXsXsXsXsXsXuXsXsXsXsXsXjXsXjXuXjXjXjXjXsXlXjXjXsXsXtXjXcXsXsXuXuXuXqXjXqXtXtXqXqXsXtXuXqXfXtXuXtXfXuXjX}.sXsXsXuXsXsXsX",
"sXjXsXuXjXsXsXsXjXsXsXsXsXsXsXsXsXsXsXsXuXsXsXjXsXsXsXuXsXsXsXsXsXjXeXuXsXsXuXsXuXsXuXsXsXuXsXuXsXuXsXsXsXsXsXsXuXsXsXsXsXsXuXsX"
};
