/* XPM */
static char *_a9510d57d3842a6d5d63d323b6d7eadN4291kG25ebVDcTH[] = {
/* columns rows colors chars-per-pixel */
"64 64 191 2 ",
"   c #9D4F38",
".  c #9D5039",
"X  c #C17C3F",
"o  c #BF6749",
"O  c #BA7645",
"+  c #BA7756",
"@  c #C26447",
"#  c #C56B47",
"$  c #C46749",
"%  c #C46C4E",
"&  c #C97947",
"*  c #D77B4E",
"=  c #C56F51",
"-  c #C77152",
";  c #CA7354",
":  c #CC7D51",
">  c #CE7759",
",  c #CE7A59",
"<  c #D77150",
"1  c #D27E5D",
"2  c #D97F5D",
"3  c #D57F60",
"4  c #7B950A",
"5  c #7E9619",
"6  c #859C0D",
"7  c #899C0D",
"8  c #93980B",
"9  c #968B1D",
"0  c #8B9810",
"q  c #949B19",
"w  c #9F9F1F",
"e  c #A1990E",
"r  c #A78C14",
"t  c #88A203",
"y  c #85AC04",
"u  c #8BAE01",
"i  c #87AC08",
"p  c #8BAE09",
"a  c #92AA0B",
"s  c #86B301",
"d  c #8CB401",
"f  c #8DBC01",
"g  c #8BB50A",
"h  c #8CB30C",
"j  c #92B701",
"k  c #92BD01",
"l  c #99BE01",
"z  c #94BA0B",
"x  c #87A715",
"c  c #9AA715",
"v  c #9DAB12",
"b  c #99B518",
"n  c #A2B514",
"m  c #989B21",
"M  c #AD8A27",
"N  c #A79329",
"B  c #B79E28",
"V  c #B68E38",
"C  c #AE9531",
"Z  c #B29631",
"A  c #B79738",
"S  c #BB953A",
"D  c #95AB22",
"F  c #9BB224",
"G  c #9DA732",
"H  c #B3A32F",
"J  c #A1B321",
"K  c #A3BA27",
"L  c #A7AC3D",
"P  c #B6A430",
"I  c #BDAC31",
"U  c #A8B436",
"Y  c #B1B837",
"T  c #C6873F",
"R  c #C49F3E",
"E  c #8FC300",
"W  c #92C401",
"Q  c #9AC302",
"!  c #9BC501",
"~  c #99C601",
"^  c #95C901",
"/  c #97CB01",
"(  c #97C902",
")  c #97CB02",
"_  c #98C901",
"`  c #9ACA02",
"'  c #9ECA02",
"]  c #9BCD01",
"[  c #9ECE01",
"{  c #9FD101",
"}  c #A1C702",
"|  c #A1CE01",
" . c #A2CE01",
".. c #A9CE01",
"X. c #A3D101",
"o. c #A4D201",
"O. c #AAD401",
"+. c #AAD502",
"@. c #A9D902",
"#. c #B1D501",
"$. c #B3DB01",
"%. c #BADE01",
"&. c #BCE102",
"*. c #B0C025",
"=. c #C4E401",
"-. c #BF8743",
";. c #BF8B4A",
":. c #A9AA40",
">. c #C78544",
",. c #C58648",
"<. c #D18947",
"1. c #C99D42",
"2. c #C59249",
"3. c #C9914D",
"4. c #CE8B53",
"5. c #CF8159",
"6. c #D58D57",
"7. c #D3805F",
"8. c #DA805A",
"9. c #D99055",
"0. c #CBA341",
"q. c #D5A348",
"w. c #D58160",
"e. c #DC8562",
"r. c #D68B64",
"t. c #D88C65",
"y. c #DB8F69",
"u. c #D99066",
"i. c #D1976D",
"p. c #DE946B",
"a. c #DE986D",
"s. c #DB9F74",
"d. c #E38562",
"f. c #E48B66",
"g. c #EA8D69",
"h. c #EA9263",
"j. c #F19A65",
"k. c #F3936C",
"l. c #E29D70",
"z. c #F69D7F",
"x. c #DEA97A",
"c. c #E5A173",
"v. c #E1AD7D",
"b. c #ECB57E",
"n. c #C5D646",
"m. c #CCCC5C",
"M. c #D5C65A",
"N. c #D7CB64",
"B. c #D7CB69",
"V. c #D6D664",
"C. c #D4DA65",
"Z. c #DADA69",
"A. c #DDD774",
"S. c #E1D76F",
"D. c #E6CF77",
"F. c #E5CF79",
"G. c #E2D274",
"H. c #E1DA72",
"J. c #E9D47D",
"K. c #E8D97A",
"L. c #DDE76D",
"P. c #FF9280",
"I. c #F79F80",
"U. c #FEA385",
"Y. c #E7B783",
"T. c #EBBC85",
"R. c #E9BE88",
"E. c #F2BD82",
"W. c #FFBD92",
"Q. c #ECC38B",
"!. c #F5C587",
"~. c #F3CC86",
"^. c #F7CA8A",
"/. c #F9CC8C",
"(. c #EBDC86",
"). c #F3D78A",
"_. c #FBD08F",
"`. c #F5CE94",
"'. c #FBCF90",
"]. c #FCD393",
"[. c #FFDB96",
"{. c #FED699",
"}. c #FFD99C",
"|. c #ECE188",
" X c #F3EA95",
".X c #FEE29B",
"XX c #FFDDA1",
"oX c #FFE4A4",
"OX c #FFEAA4",
"+X c #FFECA9",
"@X c #FCF8AC",
/* pixels */
"k W W [ ~ f E ) W ) ) E X._ _ W _ ) _  .E E E E E E E E W ) ) ] [  .f W E E E E E E ) ) W ) ) ] k ) _ +.f E f ) ) W E E W ) ) ) ",
"W E ) ] d E E E W W ) ) _ ) _ W ) _ W ) E E E E E E E E W W ) ~ l f f W E E E E E E W ) W W ) ] W ) ) } ~ +.%.s W E E E E W E E ",
"W E ) _ ) _ ] E E E ) W ) ) ) E ) W E E E E ) E E E E W ) ) W _ +.~ f W W E E E E E E W ) E W W W ) _ W _ W [ @.d E E E E E E E ",
"W E ) ) ) W d f E E E E W ) W W W W E E E E ] f X.W E E E E E W f E _ #.f )  .E E E E E W W E E W ) E ) ) ) ) ' f E E E E E E E ",
"W E ) ) ) ) ) E E E E E E W E E E W E W E ) k ' ) ~ E E E E E E E E [ k ) [ y E E E E E W ) _ E W E E ) ) ) [ f W E E E E E E E ",
"f W W ) ) W  .W E E E E f f f E W E W ) f _ _ ) ) ~ E E E E E E E W ) W [ f  . .) W W E E _ ) E E E E W ) ) f E E E E E E E E E ",
"f E E E f [ Q f E E E f d d d d f ) ) W ) ) _ +.f f k E E E E E E W ) ) ) _ ) ' Q E E E E f ) E E E E E E E W W E E E  .f Q E +.",
") o.k d f E d W E E E E E E W f f W W W W ) X.~ W o.f W E E E E E W a X % 8 d d f E ) [ [ ) ) W E E E E E f k E E E _ Q X.d ] j ",
"_ Q Q f W E E E E E W E E W E E E E ) ) ) W ) W o.u f f f d d d d r O o ; r ) E E E ..Q Q W E E E d d d d d d d W W ) ) W _ ~ _ ",
"W k W f d d d d d d f ) ) ) ) W E E W ) ] +.E Q k ~ W E f d d d N ; @ # B k )  .E E +.+.) _ ) W E f d d d d d E W W f E W W W W ",
"E ) k E f d d d f f W E ) _ ) ) W E E E E E ) Q j f E E E E W 7 # @ & v W ~ +. .E E d Q W W W W W W W E E E ) f E W  .f  .f E E ",
"_  .f E E E E W W W W ) W _  .' +.E E E E E E E E E W E E ) d T @ & v ] [ f s l E E E E E f k E E E E ) E E { k E _ W )  .f E ) ",
"W f W W E E W _ W _ ) ) _ W k ) d E E E E E E f } d ) l ) [ 0 < $ 9 f } $.f E k W W E E W y %.) E E E +.Q W ) Q ) ) ) o.f ) ) W ",
"_ W _ ) ) W W ) ) f ] ) )  .W d ) W E E E E E ~ ' k ] Q ) W M @ & f E E k E E W E f _ W W j [ ) E E W E o.f ) W _ ) _ f W E W _ ",
"E ) ) X.) W W ) ] f ~ _ ) ) +.W d W E E E E E ) W j d f d n >.@ T p h i s d s f W f f +.{ W ) ) E E E E ) W ) W E W _ X.f E E E ",
"E [ _ [ ) ) ~ ) [ E f Q X.d j Q E E E E i 4 q I S -.2.3.4.: ; 1 5.,.: 4.3.2.-.V I c 6 i X.] ) ) W E E W W W f W W W W E W E E E ",
"f [ [ W _ k W _  .f E E d o.~  . .h m q.9.8.e.1 1 e.e.e.e.1 ; , , > 1 e.e.e.e.1 1 e.8.9.0.w z W d d d d d d d d d d d d f E E E ",
"E E  .)  .d f +.k f E E W ) ' b R j.f.7.w.1 % - 7.w.1 1 1 w.1 % % 1 w.1 1 1 w.7.= % 1 w.3 f.j.S a d d d d d d d d d d d k W E E ",
"E f d k d W E d f W E E E f Z h.e., 1 7.7.> = ; 1 w.7.1 7.w., = = , w.7.1 7.w.1 - = > 7.7.1 , e.h.C f W f k f ~ _ _ W ) _ _ _ E ",
") W W W E E E E W W E E f A d.; , w.7.7.; ; 7.1 ; , 7.7.7., ; 1 1 ; , 7.7.7., - , 7.; ; 7.7.w., ; d.A u d l X.] ) ) ) ) ) [ _ $.",
") W _ W W _ '  .d d d d Z g.7., - 1 w.; ; 1 w.w., ; , w., - 1 w.w.1 ; , w., - , w.w.1 ; ; w.1 ; , 7.g.Z d d j d o.) ) W W W +.k ",
"[ W ) E ] _ [ s d d d e h.1 1 w., ; ; ; 1 w.1 1 w., ; ; ; 1 w.1 1 w.1 ; ; ; , w.7.1 w.1 ; ; ; , 7.7.1 h.7 d d Q ] _ k f ] d E  .",
"E  .] d ] ) ) o.d d d A e.1 1 w.w.- % , w.1 1 1 7.w.; o , w.7.1 1 7.w., o ; w.7.1 1 1 w., % - w.w.1 1 d.C d d k k f d d _ ) f W ",
"W W ..d d o.~ ~  .u t ;.e.1 7.7.> ; , ; , w.1 7.w., ; > ; , w.1 7.7., ; > ; , 7.7.7.w.1 ; > ; ; 7.7.1 r.<.t u d d d W d  .E E E ",
") ) E d d d Q f y o.a : 7.w.7.; ; 1 w., - , w.w., - 1 w., ; , w.w., - , w.1 ; , 7.w.1 ; , w.1 ; ; 7.w.7.* 8 u k k _ ) _ W W E ) ",
"W ) E E E d d o.' ) d & 1 1 > ; 1 w.7.w., ; 1 , ; 1 w.7.w., ; 1 1 ; , w.7.w.1 ; , 1 ; , 7.7.7.1 ; > 1 1 O y W ) [ Q ) W ) W ) _ ",
"[ f E E f f W k ] _ f 2.2 % ; 1 w.1 1 7.w., % - 1 w.1 1 7.w.1 = = , w.7.1 1 w.1 - % , w.7.1 1 7.1 ; % 2 2.s W E f ..W ) f o.) Q ",
"E W E E W  .~ _ W ) ) H d.% ; 1 w.1 1 7.w., % - 1 w.1 1 7.w., % % 1 w.1 1 7.w.1 - % , w.7.1 1 w.1 ; % d.P  .f E W f ) W E E E f ",
"W E E E E ) _ _ [ W E y >.k.1 % , 1 1 1 ; % > ; % ; 1 > > ; % ; > % ; > > , > % ; > % ; 1 1 1 , % 1 k.,.i ) Q E E E E j k W f E ",
") ) E E E E W ) _ _ ) E f q S 6., t.y.1 , t.p.p.r.r.a.l.a.t.a.c.c.a.u.a.l.l.r.r.a.p.t., 1 y.t., 4.1.m Q ) ) W W E E W Q W E +.] ",
") ) W E E E W E E E E W W W E N.E.E.!.b.E.!.!.^.^.!./.]././.].].].]./._.]./.!././.!.!.T.b.!.E.E.M.f W ) W W W E E f j o.E _ ) ) ",
"W W ) W W W E E E E W E E W s G.[._._.].]._./././._././././././././././././._./././._.].]._._.[.B.d W W ) ) ) E E E  .f +.[ ) ) ",
") W W W f f f f f d f E E W p D.]./././././././././././././.'././././././././././././././././.].K.l [ W _ ) ) E E E f W ) ) _ Q ",
"W W E W f d d d d f W E E W y J.]./././././././././.].{.{.{.}.}.}.}.{.{.{.{.].].'././././././.].F.y d X.) ) _ E E E ' _ [ f _ f ",
"E E E W E W W W ) W W E E W y F.]./././././././.].{.}.}.}.}.}.}.}.}.}.}.}.}.}.}.}.{.{.{.{.{.{.}.A.d o.W W +.E E E E E  .E ' W W ",
"E E E E ) ) W ) ) ) W ) E W d G.]././././././.{.}.}.}.}.oX}.}.}.}.}.}.oX}.}.}.}.}.}.}.}.}.}.}.oXV.f d d j E E Q _ W W W E W E W ",
"E E _ ) ) ) W ) ) [ W _ ) E f N.]./././././.].}.}.}.}.{.T.].}.}.}.}.].T.{.}.}.}.}.}.}.}.}.}.}.oXm.u d d u u W } ~ ) ) W W E E E ",
"E W +.) W E W o.+._ W [ ] [ +.n.]./././././.}.}.}.}.OXR.  v.OXoXoX+Xx.. Q.oX}.}.}.}.}.}.}.}.}.OXG u u u u k f +.[ _ ) ) E E E E ",
"E E f +.E E +.E ) E E [ X.W f D [././././.].}.}.}.}.W.z.s.R.Y.R.R.Y.R.s.I.W.}.}.}.}.}.}.}.}.}.+X5 E W E E E W E W E ~ ) E E E f ",
"f ) X.f E W E W E E E E E E E 5 .X/./././.{.}.}.}.}.U.P.oX}.i.+ + i..XXXP.U.}.}.}.}.}.}.}.}.}.OXx E W ~ W W ) W ) E [ E E E W +.",
") [ y E E E E E E E E E E E E x .X/./././.{.}.}.}.}.{.{.}.}.{.`.`.{.}.}.{.{.}.}.}.}.}.}.}.}.}. Xh E Q ) ) ) ) f [ E W E E E  .E ",
"_ k  .o.o.E E E E E E E E E E E H././././.{.}.}.}.}.}.}.}.}.}.XXXX}.}.}.}.}.}.}.}.}.}.}.}.}.XXL.) f  .) ) k [ ) ~ X.E E E W ) ) ",
") W Q d u W W E E W E E E _ f E :..X/././.{.}.}.}.}.}.}.}.}.}.}.}.}.}.}.}.}.}.}.}.}.}.}.}.}.+XU E Q [ W ) f  .W E W E E E W ) _ ",
"W ) f W W W W E E E +.f E ) ~ W F OX^././.{.}.}.}.}.}.}.}.}.}.}.}.}.}.}.}.}.}.}.}.}.}.}.}.{.@Xb E W f _ E E E W E f f f f E W ) ",
") ) )  .E E E E E E W +.f ) Q ) Q D.[././.].}.}.}.}.}.}.}.}.}.}.}.}.}.}.}.}.}.}.}.}.}.}.}.oXG.) _ ) W ) W W E E d d d d E E ) W ",
"W Q +.+.E E E E E E E ) Q ) ) W W L .X/././.}.}.}.}.}.}.}.}.}.}.}.}.}.}.}.}.}.}.}.}.}.}.}.+XU Q ) ~ Q _ W W E E W E E W E E _ ) ",
"[ E d d W E E E E E E W W W W W W i ).]././.{.}.}.}.}.}.}.}.}.}.}.}.}.}.}.}.}.}.}.}.}.}.oX(.i o.f ~ Q E f f E f W ) d W E E Q o.",
"#.f E f d d d d d k E E E W E W W E L [././.].}.}.}.}.}.}.}.}.}.}.}.}.}.}.}.}.}.}.}.}.}.+XY E E E E W W +.f _ ~ ) )  .k W E E k ",
"f W E d d d d d d W E E E W ' ) ) E g )._././.{.}.}.}.}.}.}.}.}.}.}.}.}.].].}.}.}.}.}.XX|.Q W ) +.E E ) W ) W ) W ) ' ) [ E E E ",
"E W E E f f f f W f f E k  .) ) W ) ) U OX^./.].}.}.}.}.}.}.}.}.}.}.}.}.].].}.}.}.}.{.@XK ) E [ ) E E ) ) W E W W _ _ ) k W E E ",
"W W E E E E W f d d d d ) _ ) ' _ ) W W Z.[.^./.].}.}.}.}.}.}.}.}.}.].'.{.{.].{.}.}.+XC.) W W ) E E E W W E E E _ f E E E W E E ",
"W W E E E _ E E E E E E E E f +.~ ) f ) p J.[././.{.}.}.}.}.}.}.}.{././.].]./.].}.+XA.f W E ) W E E E E E f E  .W f W W W W E E ",
"E W ) ) ) W [ &.f E W W W f ' ) ) W d _ ) 6 (.[.^./.{.}.}.}.}.}.}.{.'./.{.{.].{.+X(.h j f d E E E E E E E { d ~ ) d ) ) +.d E E ",
"E W ) ) ) ' ~ s W W f d f W E W E E d ' W E x J.[.^./.].{.}.}.}.}.}.}.}.}.}.}.OXK.g k +.f +.f E E E E E f +._ k ) W ) ] Q ) W E ",
"W _ ) ) ) )  .=.f d u u u f E W E W d [ E E E z C.OX_././.].{.{.}.}.}.}.}.}.OXV.~ d ' [ ~ ] W E E E E E ' ..o._ ) ) ) W ) ]  .f ",
") ) +.W W  .+.f W W W k f E f f _ ) ] W W E W ) W F B.~.^./././.'.].]._.^.B.J ) ] f _ ' _ ) _ E E E E E E _ ) ) ) W W ) ) _ E E ",
") ) W @. .f E W E E E E E f k  .~ _ ) ) W W ) W W W f K H./././././.^.S.*.s W ) ) W ) ) [ _ W W E E E E E E E k d d E W W W E E ",
"W +.y E W Q f W W E E E E d d d ~ _ W ) ) [ j X.f E E E E E E ) d _  .) ) ' f ) ) W W ) ) ) E E E E E E E E W f u u f E E E E E ",
"+.Q d E E f f f d j f f W d d d k l ] s ~ d l j W E E E E W j d ) f ) _ ) ) ) ) ) W W W W E W E E E E E E E W W W W E E E E E E ",
") u W E E f d d d d d d E f d d d k d d d d f W f E E E E E ) +.[  .) W ) ) W W W W E E W f W E E E E f f d f E E u u u f E E E ",
"E E E E E E E E E E E W E E f d d d d d d f E f f E E E E ' f _ ) ) ' W E E E E E W E E f $.d E E E f d d d f E E E W E E [ ~ E ",
"E E E E E E E E E E E d d E E E E E E W W E E E E E E E E  .E E ) ) ) _ W E E E E E W ~ j  .k [ f E E E E E E E  .j )  .Q X.j _ ",
"E E E E E E E E ) [ E W W E f  .E W +.f W E E E E E E E W ~ f E E E E W E E E E E E $. . ._ W X.d W E f f E E [ )  .[ ~ ) W { d ",
"+.k W ) _ E ) o._ [ +.E W o.+.) E +.W +.E E E E E E E W ) W ) ] [ E W W E E E E E ) ) +.[ _ ) _ k E +.%.~ W E _ W ) W ) W ) _  ."
};
