/* XPM */
static char *_1870f958ffe43a49f780b715027f2f3YISOgdjt09f4YCgg[] = {
/* columns rows colors chars-per-pixel */
"64 64 232 2 ",
"   c #6B5B5F",
".  c #7C625D",
"X  c #464B63",
"o  c #665A60",
"O  c #877C1A",
"+  c #BF7F3B",
"@  c #C37D3F",
"#  c #DD7E3D",
"$  c #914959",
"%  c #A65957",
"&  c #936C5B",
"*  c #976D5B",
"=  c #B76656",
"-  c #A97559",
";  c #BA7C58",
":  c #C57742",
">  c #C67942",
",  c #CB7B44",
"<  c #CB7549",
"1  c #D17E46",
"2  c #DB7E45",
"3  c #CC7555",
"4  c #D27B55",
"5  c #7A890B",
"6  c #7D890D",
"7  c #7FA602",
"8  c #878F0F",
"9  c #849C06",
"0  c #82950D",
"q  c #849C0B",
"w  c #899E0B",
"e  c #8A8D15",
"r  c #918C19",
"t  c #8A9711",
"y  c #979917",
"u  c #9D951D",
"i  c #A48F1F",
"p  c #A59B1E",
"a  c #84A306",
"s  c #86A606",
"d  c #85AA04",
"f  c #8AAD02",
"g  c #8BA30B",
"h  c #8DAC09",
"j  c #92A30A",
"k  c #94AC0D",
"l  c #89B403",
"z  c #8DB401",
"x  c #8DBC01",
"c  c #93B503",
"v  c #92BD02",
"b  c #99BD04",
"n  c #94B509",
"m  c #9CB20D",
"M  c #9CBA09",
"N  c #9AA614",
"B  c #99BD1B",
"V  c #A8BD0E",
"C  c #A4AE15",
"Z  c #A3A51A",
"A  c #ACA41D",
"S  c #ABAA1C",
"D  c #B4AB1A",
"F  c #A7B115",
"G  c #B6B717",
"H  c #9E9120",
"J  c #A38A25",
"K  c #A88929",
"L  c #B18D2C",
"P  c #AA9327",
"I  c #AD9B24",
"U  c #B7982A",
"Y  c #BA8833",
"T  c #BE8339",
"R  c #BD9332",
"E  c #9BAD36",
"W  c #ACA320",
"Q  c #B4A923",
"!  c #BCA32A",
"~  c #BFB127",
"^  c #C78D23",
"/  c #C3992F",
"(  c #D8902D",
")  c #C18D35",
"_  c #C3843A",
"`  c #CA853E",
"'  c #C48B39",
"]  c #CA8B3C",
"[  c #DA833D",
"{  c #C59C32",
"}  c #CD933A",
"|  c #C89638",
" . c #D3933E",
".. c #D89C3B",
"X. c #FA8739",
"o. c #C6AB2C",
"O. c #C5B52A",
"+. c #CCA533",
"@. c #C6A831",
"#. c #D5A239",
"$. c #DCA23E",
"%. c #D6A938",
"&. c #C3B63C",
"*. c #8FC300",
"=. c #92C401",
"-. c #9BC502",
";. c #96C901",
":. c #9BCB01",
">. c #9FD201",
",. c #A2C702",
"<. c #A2CD01",
"1. c #A9CD02",
"2. c #A4D101",
"3. c #AAD401",
"4. c #A7D901",
"5. c #B3DB01",
"6. c #B5D901",
"7. c #C4E401",
"8. c #DEC529",
"9. c #CC8243",
"0. c #CB8745",
"q. c #D38246",
"w. c #DD8244",
"e. c #DA8A46",
"r. c #D68148",
"t. c #DD864A",
"y. c #D7904F",
"u. c #D48756",
"i. c #DC8A54",
"p. c #E38544",
"a. c #E2874A",
"s. c #E38A4C",
"d. c #EB8E4E",
"f. c #F68E46",
"g. c #F98D45",
"h. c #F78F49",
"j. c #F98F48",
"k. c #E49647",
"l. c #ED924E",
"z. c #EE9C4C",
"x. c #F7924C",
"c. c #F9924B",
"v. c #F09C4D",
"b. c #FF994D",
"n. c #E58C53",
"m. c #E88A52",
"M. c #F98D50",
"N. c #EE9151",
"B. c #E09059",
"V. c #F69552",
"C. c #F99653",
"Z. c #F69C54",
"A. c #FD9B55",
"S. c #F7965A",
"D. c #F59A5B",
"F. c #FE9E59",
"G. c #DCA945",
"H. c #E3A541",
"J. c #ECA94C",
"K. c #F1A64D",
"L. c #E3B549",
"P. c #F2B84B",
"I. c #F6A253",
"U. c #FDA256",
"Y. c #FEA45A",
"T. c #FCA85A",
"R. c #DD9866",
"E. c #E29964",
"W. c #F29E63",
"Q. c #DEA173",
"!. c #D9A77A",
"~. c #DEB173",
"^. c #EAA06C",
"/. c #F9A263",
"(. c #F3A36B",
"). c #EAAA7B",
"_. c #F2A771",
"`. c #F3A974",
"'. c #F3AC79",
"]. c #A8CC61",
"[. c #DDA981",
"{. c #DAB996",
"}. c #E5AF84",
"|. c #E9B38A",
" X c #F4B687",
".X c #F2B78B",
"XX c #E6BA96",
"oX c #F2BD97",
"OX c #DBBFA3",
"+X c #E1BEA1",
"@X c #E7C19F",
"#X c #ECC19D",
"$X c #F3CF98",
"%X c #DBC3A9",
"&X c #DDCBB5",
"*X c #DCD2BF",
"=X c #E5C3A5",
"-X c #EEC4A3",
";X c #EAC8AB",
":X c #FBCEA7",
">X c #E4CCB2",
",X c #ECCEB4",
"<X c #ECD1B8",
"1X c #DDD5C4",
"2X c #DBD9CC",
"3X c #DADED3",
"4X c #E7D7C3",
"5X c #EBDDCD",
"6X c #E5DFD2",
"7X c #D7E1D9",
"8X c #D9E4DC",
"9X c #E8E3D8",
"0X c #E9F1DE",
"qX c #D8E8E5",
"wX c #D6EDED",
"eX c #DBEDEC",
"rX c #D6EFF0",
"tX c #D9EFF0",
"yX c #D5F2F5",
"uX c #DCF2F5",
"iX c #D9F6FB",
"pX c #DCFAFF",
"aX c #E9EBE4",
"sX c #E8ECE7",
"dX c #E5EEEB",
"fX c #E7F1EE",
"gX c #E6F3F2",
"hX c #E8F3F2",
"jX c #E4F6F9",
"kX c #E6FAFD",
"lX c #E9FFFF",
"zX c #F4F9F2",
/* pixels */
"v =.=.:.-.x *.=.=.;.;.*.2.;.;.=.;.=.;.<.*.*.*.*.*.*.*.*.=.;.=.:.:.1.x =.*.*.*.*.*.*.;.;.=.;.=.:.v ;.;.3.x *.x =.=.=.*.*.=.;.;.=.",
"=.*.=.:.z *.*.*.=.=.;.=.;.=.;.=.;.;.=.=.*.*.*.*.*.*.*.*.=.=.=.-.b x x =.*.*.*.*.*.*.=.;.=.=.;.:.=.;.;.,.-.3.6.l =.*.*.*.*.=.*.*.",
"=.*.;.;.;.;.;.O.L.k =.=.=.;.;.*.;.=.*.*.*.*.=.*.O.G.q =.;.;.=.;.3.-.x =.=.*.*.*.*.*.*.=.;.*.=.=.=.;.-.C Q U C 4.z *.*.*.*.*.*.*.",
"=.*.=.=.;.=.z +.Y.@.x *.=.;.=.=.=.=.*.*.*.*.:.g J.I.q *.*.*.*.=.x *.;.6.x ;.<.*.*.*.*.*.=.=.*.*.=.k P T ` ' g :.x *.*.*.*.*.*.*.",
"=.*.;.;.;.;.=.+.F.Y.~ *.*.=.*.*.=.=.*.=.*.=.n $.U.Z.0 *.*.*.*.*.*.*.:.v ;.:.d *.*.*.*.*.z g =.*.p e.r.: > } n x =.*.*.*.*.*.*.*.",
"x =.=.=.;.=.,.@.A.A.K.k x x x *.=.=.=.;.x -.o.Y.A.v.q *.*.*.*.*.*.=.;.=.:.x <.<.=.=.=.c ^ L h N e.> : > , P x *.*.*.*.*.*.*.*.*.",
"x *.*.*.x :.-.o.A.V.F.+.f z z z x ;.;.=.;.m K.A.A.z.w *.*.*.*.*.*.=.;.;.=.;.;.:.-.*.x i a.@ I ' > : : > r.6 =.=.*.*.*.<.x -.*.3.",
";.2.v z x *.z Z A.C.A.I.N *.=.x x =.=.=.=.+.U.V.A.H.s =.*.*.*.*.*.=.;.;.=.=.z z x x u 0.> > ` > : : : > 1 r x *.*.*.;.-.2.z :.v ",
";.-.-.x =.*.*.0 v.A.V.A.$.y 0 0 8 0 t w u v.A.V.A.#.f x x z z z z x *.;.;.;.;.*.*.N e., : : : : : : : : > U z z =.=.;.=.=.;.-.;.",
"=.v =.x z z z 6 z.A.V.V.A.A.Z.Z.Z.Z.Z.Z.Z.V.V.V.A.%.x *.x z z z x =.;.=.;.;.;.<.h } , : : : : : : : : : > ) h *.=.=.x *.=.=.=.=.",
"*.=.v *.x z z u A.A.V.V.V.A.A.A.A.A.A.A.Z.V.V.V.A.$.d *.*.*.=.*.*.*.;.;.=.-.3.<.H r.> : : : : : : : : : , ' s x *.=.<.x <.x *.*.",
";.<.x *.*.*.*.o.A.V.V.V.V.V.V.V.V.V.V.V.V.V.V.V.A.z.q *.*.;.x *.*.*.-.:.:.x l j ] > : : : : : : : : : : , ] h v *.;.=.;.<.x *.;.",
"=.x =.=.*.*.x %.A.V.V.V.V.V.V.V.V.V.V.V.V.V.V.V.C.A.A b =.:.v =.*.*.x ,.5.x x H 1 > : : : : : : : : : : > ) h -.;.;.;.3.x =.=.=.",
";.=.;.;.;.=.s H.F.C.A.C.V.V.V.V.V.V.V.V.V.V.C.A.V.F.O.-.;.=.3.z *.*.*.*.v *.s } , : : : : : : : : : : : > L b m h ;.;.x =.*.=.;.",
"*.;.=.2.;.=.g z.A.V.V.V.C.V.V.V.V.V.V.V.V.C.V.V.C.A.%.v =.:.-.<.2.x *.*.*.=.0 9., : : : : : : : : : : : : I F ) 5 =.;.2.x *.*.*.",
"*.:.;.:.;.=.S A.V.; * u.V.C.V.V.V.V.V.V.C.N.; - u.U.$.s =.;.;.*.x *.*.*.=.*.p , > : : : : : : : : : : : T I ' , 5 =.=.*.=.*.*.*.",
"x :.:.=.;.v o.Y.i.. X * V.A.V.V.V.V.V.C.A.u.o X - U.z.w :.x *.*.*.x z z z x U , : : : : : : : : : : : : T T 1 , 5 z z z x *.*.*.",
"*.*.<.=.2.s +.U.n.*   - V.C.V.V.V.V.V.V.A.i.&   ; A.U.G =.x *.*.x x x x x d R , : : > : : : : : : : : : > : , _ 6 z z z v =.*.*.",
"*.x z v z s ..U.V.n.i.N.C.V.V.V.V.V.V.V.V.V.n.i.N.V.U.O.=.f =.;.>.z z z z a Y , : : > > : : : : : : : : : : , R z ;.=.;.;.;.;.*.",
";.=.=.=.*.s ..U.V.A.A.C.V.V.V.C.A.C.V.V.V.C.A.A.C.V.A.! =.v ;.=.1.f z z z a Y , : : : : : : : : : : : : : : , ! =.=.;.;.;.:.;.5.",
";.=.:.=.=.v +.A.V.V.V.V.V.V.V.V.m.m.V.V.V.V.V.V.V.V./.G.n *.;.:.v -.-.z z s R , : : : : : : : : : : : : : > 9.y 2.;.;.=.=.=.3.v ",
":.=.;.*.:.=.O.Y.x.V.V.V.V.C.V.4 % = m.C.V.V.V.V.x.x. X X+.-.;.*.;.;.-.z z z U , : : : : : : : : : : : : : , ' k :.;.v x :.z *.<.",
"*.<.:.z :.-.&. XD.h.V.V.V.A.V.= $ % 4 C.C.V.V.x.g.(.;X XA.O.-.;.;.-.f z x x I 1 > : : : : : : : : : : : > , r v f j z z ;.;.x =.",
"=.=.1.z z -.G.:XXXD.g.x.V.C.V.3 % = n.C.V.x.c.g.(.4X>XD.M.P.V =.*.x *.=.x z r , > : : : : : : : : : : : > Y t t | A =.z <.*.*.*.",
";.;.*.z z 9 ..$X9X>X(.h.c.c.c.d.< 2 x.c.x.g.V.).2XqX.Xg.V.A.$.z *.=.*.;.=.=.a ' , : : : : : : : : : : : : L P @ t.Q =.:.=.=.*.;.",
"=.=.*.*.*.9 ../.<XuX2XXX(.x.x.x.w.p.x.c.V.'.=XqXiX,XD.x.V.V.S.O.=.:.=.;.=.=.z R , : : : : : : : : : : : @ T , 1 , t ;.=.;.=.=.;.",
":.x *.*.x a ..b.`.9XpXeX1X=X@X|.).}.XX=X>X3XyXpX6X_.f.V.V.V.V.P.V ;.;.v 2.=.*.I , : : : : : : : : : : : > : : 1 + g =.;.x 2.=.-.",
"*.=.*.*.=.n ..A.x..XsXpXyXyXwX8X3X8XqXrXyXuXpXaX Xx.x.V.V.V.V.A.#.1.=.*.-.;.*.t 9.> : : : : : : : : : : : : : 1 R s =.=.*.*.*.x ",
"=.*.*.*.*.z #.A.h.V.-XgXjXgXuXuXuXuXuXgXgXkXfXoXV.x.V.V.V.V.V.V.T.S =.=.*.*.*.f | , : : : : : : : : : : : : > 1 I *.*.v v =.x *.",
";.=.*.=.*.z +.U.V.g.D.;XuXjXhXhXhXhXhXjXkXaX#XV.h.V.V.V.V.V.V.V.A.G.z x v v =.*.I , : : : : : : : : : : : : , 0.g *.=.-.=.=.3.:.",
";.;.=.=.*.*.o.U.V.V.g.D.=XqXiXjXhXhXkXkX9X.XV.h.V.V.V.V.V.V.V.V.V.Y.I z z x =.*.t 9.> : : : : : : : : : : > 1 P x x c 2.*.;.=.=.",
"=.=.;.=.=.=.S A.C.V.V.g.V.|.1XeXiXpXsX,X`.x.h.V.V.V.V.V.V.V.V.V.V.A.H.h *.*.*.*.s  .> : : : : : : : : : : , ' s *.*.<.*.3.:.=.=.",
"=.=.=.=.x x g K.A.V.V.V.c.c.W.=X3X2X|.D.g.x.V.V.V.V.(.^.d.V.V.V.V.V.T.W =.*.*.*.x L , : : : : : : : : : : 9.A x x d 7 x ;.;.;.-.",
"=.=.*.=.x z f U A.C.V.V.V.x.g.D._.E.t.p.x.V.V.V.f.V.-X=XB.s.V.V.V.V.Z.H.b =.*.*.*.e r.> : : : : : : : : : T I p J L S =.:.x ;.x ",
"*.*.*.=.*.=.=.n L.U.h.x.V.V.V.x.j.f.p.t.d.V.x.f.h. XaX6XR.w.V.C.V.V.V.Y.S *.=.;.=.0 q.> : : : : : : : : : @ @ 9.e.( m <.*.:.=.=.",
"*.*.*.*.;.;.=.;.m | F.c.f.x.V.V.V.V.d.t.a.f.g.D..X9XlXaXQ.# d.V.V.V.V.Z.$.b ;.;.=.h ] > : : : : : : : : > : : 0.| n =.=.*.=.*.=.",
"*.*.;.;.;.=.*.;.=.B $XoX(.x.h.V.V.C.x.[ p.W. X<XsXkXlXfX).# s.V.V.V.V.V.I.G ;.=.:.c | > : : : : : : : : : > @ ^ M =.=.=.=.=.*.*.",
"*.=.3.=.=.*.*.2.3.;.].zX5X#X(.V.V.V.x.R.{.4XfXkXkXkXlXhXXXw.a.V.C.V.V.V.C.8.-.x :.=.{ > : : : : : : : : > > ` D :.;.-.=.*.*.*.*.",
"*.*.x 3.*.*.3.*.;.*.E 0XlXhX<XW.h.c.W.&XwXjXkXkXhX5X,X-X'.d.d.V.C.V.V.V.Z.K.g x -.=.J 1 > : : : : : : : > > , Y t x -.=.*.*.*.*.",
"x ;.2.x *.*.*.=.n o.y.>XlXlXaX`.g.g.`.8XiXgXkXaX-X(.V.x.x.V.V.V.V.V.V.V.C.C.W *.v x O t.> : : : : : : : : : : > q.{ m *.*.*.=.3.",
";.:.d *.*.*.*.n #.d.p.+XhXlXsX`.X.X._.8XiXjXfXoXV.f.x.x.x.V.V.V.V.V.V.V.V.C.%.x *.v J , > : : : : : : : : > : , q.} C *.*.*.<.*.",
";.v <.3.2.*.x ! N.w.w.XXdXkXfXoXx.x.XXqXuXjX<XD.f.x.V.V.V.V.V.V.V.V.V.V.V.Z.v.w ;.v { > : : : : : : : : : > ) p j n x *.*.=.;.=.",
";.=.-.z f =.s  .l.w.w.|.sXjXhX9X;X>X8XwXuXaX Xf.x.V.V.V.V.V.V.V.V.V.V.V.V.A.V.8 ;.b | > : : : : : : : : : > / c *.=.*.*.*.=.;.;.",
"=.;.x =.=.=.N s.s.w.w.XXdXhXhXhXjXuXuXeXkX5X(.h.V.V.V.V.V.V.V.V.V.V.V.V.V.C.V.P :.w ] > : : : : : : : : : > 9.u x x x x x *.=.=.",
";.;.;.<.*.*.Q l.t.w.w.XXhXhXhXhXhXhXhXhXkX<XV.h.V.V.V.V.V.V.V.V.V.V.V.V.V.V.V...g 8 , > : : : : : : : : : : > q.J 9 z z *.*.=.=.",
"=.-.3.3.*.x ! l.t.w.w.+XhXhXhXhXhXhXhXhXkX,XV.h.V.V.V.V.V.V.V.V.V.V.V.V.V.V.V.k.A J > > : : : : : : : : : : : q.l.Z *.=.*.*.;.;.",
":.*.z z =.x ! N.t.w.w.=XkXhXhXhXhXhXhXgXkX,XV.h.V.V.V.V.V.V.V.V.V.V.V.V.V.C.N.a.} _ : : : : : : : : : : : > _ K p M z =.*.*.-.2.",
"6.x *.x z z U d.t.w.w.%XjXhXhXhXhXhXhXhXkX,XV.h.V.V.V.V.V.V.V.V.V.V.V.V.V.C.N.s.q.> : : : : : : : : : : : _ S b ;.=.<.v =.*.*.v ",
"x =.*.z z z D l.t.w.w.%XjXhXhXhXhXhXhXhXkX<XD.h.V.V.V.V.V.V.V.V.V.V.V.V.V.C.N.a.r.> : : : : : : : : : : : 9.S =.=.=.:.=.:.*.*.*.",
"*.*.*.*.x x m k.t.w.w.OXuXhXhXhXhXhXhXhXkX5X_.x.V.V.V.V.V.V.V.V.V.V.V.V.V.C.N.a.t., : : : : : : : : : : : > ) h =.;.;.=.v =.*.=.",
"=.=.*.*.*.*.f } d.w.w.{.eXgXhXhXhXhXhXhXjXaX Xx.x.V.V.V.V.V.V.V.V.V.V.V.V.C.d.t.t.1 : : : : : : : : : : > > , p :.x *.*.*.=.=.=.",
"=.=.*.*.*.;.x @.l.w.w.[.7XuXhXhXhXhXhXhXhXjX;Xx.x.V.V.V.V.V.V.V.V.V.V.V.V.V.d.t.t.1 : : : : : : : : : : ' ` r./ v x =.=.=.=.*.=.",
"=.=.;.;.=.=.:.G d.a.w.B.*XyXeXhXhXhXhXhXhXkX5X(.h.V.V.V.V.V.V.V.V.V.V.V.V.V.s.t.t.1 : : : : : : : : > @ y C | { z z ;.;.3.z *.*.",
"*.=.;.;.;.:.-.s ..d.w.w.OXyXwXdXhXhXhXhXhXjXfXoXx.x.V.V.V.V.V.V.V.V.V.V.C.V.s.t.t.1 : : : : > > > : > 0.q 3.M N v =.;.:.-.;.=.*.",
"=.;.;.;.;.;.<.7.y l.a.w.Q.3XyXwXdXhXhXhXhXgXkX4X/.f.V.V.V.V.V.V.V.V.V.V.V.d.t.t.t.1 : : : > _ R @ : > | M 1.3.;.;.=.;.=.;.:.<.x ",
";.=.3.=.=.<.3.x x { s.w.t.OXrXwXwXeXhXhXhXhXkXhX-XV.x.V.V.V.V.V.V.V.V.C.V.s.t.t.t.1 : : > q.Z h K , r.P x ;.;.;.;.=.=.;.;.;.*.*.",
";.;.=.3.<.x *.*.*.k k.a.# R.1XyXwXqXeXeXgXjXjXkX9X'.x.V.V.V.V.V.V.V.V.V.d.t.t.t.t.> : 1 e.A =.=.u s. .h *.*.*.v z z *.=.=.=.*.*.",
"=.3.d *.=.b y r e u  .s.w.# Q.3XyXwXqXwXeX6X,X;X;X'.x.V.V.V.V.V.V.V.V.l.t.t.t.s.s.r.q.) C =.*.*.N ..y *.*.*.=.x f f x *.*.*.*.*.",
"3.-.z *.x ! I.V.l.s.e.t.t.w.2 Q.1XyXyXyX*X`.V.V.S.S.V.V.V.V.V.V.V.V.N.s.t.t.d.e.Y P Z z =.*.=.*.z k x *.*.*.=.=.=.=.*.*.*.*.*.*.",
"=.f =.*.a ` V.a.a.t.t.t.t.t.w.# R.%XqXtX@Xg.g.x.x.V.V.V.V.V.C.V.V.d.a.t.s.Z.#.g d z *.*.=.x =.*.*.*.*.x x z x *.*.f f f x *.*.*.",
"*.*.*.*.d R N.t.t.t.t.t.t.t.t.w.w.i.!.{.~.v.x.V.V.V.V.V.V.V.V.d.s.t.t.e.] I z *.*.=.*.*.x 5.z *.*.*.x z z z x *.*.*.=.*.*.:.-.*.",
"*.*.*.*.*.S k.t.t.t.t.t.t.t.t.t.t.# [ | @.$.V.V.V.V.V.V.N.d.s.t.t.t.s.$.N x *.*.*.*.=.-.v <.v :.x *.*.*.*.*.*.*.<.c ;.<.-.2.c ;.",
"*.*.*.*.*.*.*.*.;.:.*.=.=.*.x <.*.=.3.x =.*.*.*.*.*.*.*.=.-.x *.*.*.*.=.*.*.*.*.*.*.6.<.1.;.=.2.z =.*.x x *.*.:.=.1.:.-.;.=.>.z ",
"3.=.=.=.;.*.=.2.;.:.3.*.;.3.3.=.*.3.=.3.*.*.*.*.*.*.*.=.;.=.;.:.:.*.=.=.*.*.*.*.*.=.;.3.:.;.=.;.v *.3.6.-.=.*.;.=.;.=.=.=.;.;.<."
};
