/* XPM */
static char *_abf1769b15448eaa3be9d8024e431c5hnZLUkT1y9bL9rOf[] = {
/* columns rows colors chars-per-pixel */
"64 64 252 2 ",
"   c #020101",
".  c #090909",
"X  c #131210",
"o  c #2B0702",
"O  c #24160C",
"+  c #281B15",
"@  c #262D03",
"#  c #343C06",
"$  c #332614",
"%  c #030D3E",
"&  c #032932",
"*  c #042E37",
"=  c #3B3029",
"-  c #58110A",
";  c #76100E",
":  c #452B19",
">  c #523215",
",  c #593918",
"<  c #69370F",
"1  c #483327",
"2  c #4A342E",
"3  c #563829",
"4  c #643B2A",
"5  c #3C4408",
"6  c #414906",
"7  c #4C5505",
"8  c #594A11",
"9  c #725214",
"0  c #5A630D",
"q  c #66691A",
"w  c #767413",
"e  c #564C33",
"r  c #55453A",
"t  c #764E2E",
"y  c #674A38",
"u  c #774B35",
"i  c #7A4C33",
"p  c #76732E",
"a  c #7C7434",
"s  c #043945",
"d  c #023977",
"f  c #214678",
"g  c #595242",
"h  c #675844",
"j  c #745B41",
"k  c #5C6E5B",
"l  c #756D52",
"z  c #717377",
"x  c #8F060D",
"c  c #AD0101",
"v  c #9C0A21",
"b  c #DC1515",
"n  c #F51C1C",
"m  c #A45B0E",
"M  c #887807",
"N  c #937411",
"B  c #B06C10",
"V  c #885629",
"C  c #945F27",
"Z  c #804F35",
"A  c #855435",
"S  c #956124",
"D  c #9B6623",
"F  c #976F26",
"G  c #887A27",
"H  c #8D7631",
"J  c #A66B26",
"K  c #A77329",
"L  c #B9762D",
"P  c #BA762D",
"I  c #C77016",
"U  c #C47B2F",
"Y  c #C57D30",
"T  c #847248",
"R  c #837857",
"E  c #8C7D6F",
"W  c #7D8727",
"Q  c #968609",
"!  c #9F8B13",
"~  c #AA9304",
"^  c #B49901",
"/  c #AC9312",
"(  c #9DAA13",
")  c #BAA405",
"_  c #BDA919",
"`  c #BDB61B",
"'  c #89852D",
"]  c #888736",
"[  c #929331",
"{  c #A9982A",
"}  c #A49838",
"|  c #9AA93B",
" . c #B5BD29",
".. c #B4AC33",
"X. c #A9B638",
"o. c #C7920E",
"O. c #C5AA01",
"+. c #CBB501",
"@. c #D3B601",
"#. c #D4BA04",
"$. c #DBBC01",
"%. c #D0B012",
"&. c #EBBB08",
"*. c #E9B117",
"=. c #D68128",
"-. c #CA8132",
";. c #D78734",
":. c #E78F2F",
">. c #CDBA27",
",. c #E8B732",
"<. c #B8C32E",
"1. c #CCC40C",
"2. c #DBC702",
"3. c #D9C618",
"4. c #E5CA04",
"5. c #F5CC08",
"6. c #EDD402",
"7. c #EAD408",
"8. c #F4D502",
"9. c #F4DB01",
"0. c #FBDD01",
"q. c #F5DA08",
"w. c #E5C913",
"e. c #EFD713",
"r. c #FDE301",
"t. c #F8E604",
"y. c #FEEB01",
"u. c #FFF401",
"i. c #FFF906",
"p. c #EEE11C",
"a. c #FBE517",
"s. c #CFCF2F",
"d. c #DAC838",
"f. c #E6D528",
"g. c #ECD932",
"h. c #FBF02F",
"j. c #FAE834",
"k. c #978F4E",
"l. c #A49A4A",
"z. c #B0AA4C",
"x. c #A6B645",
"c. c #8A866D",
"v. c #988765",
"b. c #AB9965",
"n. c #B5B06A",
"m. c #B9A877",
"M. c #CBB44B",
"N. c #CEBA75",
"B. c #CBB67A",
"V. c #B9C64E",
"C. c #BBC754",
"Z. c #C6CA58",
"A. c #D5CD54",
"S. c #C7D45A",
"D. c #EBCC52",
"F. c #FEEB57",
"G. c #FEEF55",
"H. c #D1CD6D",
"J. c #CAD665",
"K. c #CAD766",
"L. c #D2DD6A",
"P. c #D8C779",
"I. c #EDD36B",
"U. c #E6C977",
"Y. c #E8CB74",
"T. c #E4C77B",
"R. c #E6CA7C",
"E. c #E9CC7D",
"W. c #ECD274",
"Q. c #EDD37C",
"!. c #F2D576",
"~. c #F3D97D",
"^. c #D7E469",
"/. c #DDE970",
"(. c #F3F06D",
"). c #FCEF7A",
"_. c #FEF577",
"`. c #0F358D",
"'. c #054788",
"]. c #3C77B7",
"[. c #72748C",
"{. c #647396",
"}. c #5078B2",
"|. c #0053CB",
" X c #116FDC",
".X c #005FE4",
"XX c #0172F0",
"oX c #788A8B",
"OX c #4280BE",
"+X c #238ADA",
"@X c #71B6EE",
"#X c #8F8F8A",
"$X c #98989C",
"%X c #A39E91",
"&X c #B1AA8B",
"*X c #8B91A6",
"=X c #A8AAA8",
"-X c #B0B3B2",
";X c #B7B7B8",
":X c #CBB988",
">X c #D2BD89",
",X c #C6B592",
"<X c #C5BBAA",
"1X c #DAC686",
"2X c #DBCA90",
"3X c #E7CB82",
"4X c #EACE83",
"5X c #E4CB89",
"6X c #EACF8A",
"7X c #EDD285",
"8X c #E3D38A",
"9X c #EED48B",
"0X c #F1D684",
"qX c #F3D984",
"wX c #F1D68D",
"eX c #F2D98C",
"rX c #F9DF88",
"tX c #E2CB91",
"yX c #EED592",
"uX c #ECD596",
"iX c #ECD599",
"pX c #F1D692",
"aX c #F1D792",
"sX c #F3D995",
"dX c #F2D996",
"fX c #F2D79A",
"gX c #F3DA99",
"hX c #F3DA9B",
"jX c #F9ED8A",
"kX c #FEF482",
"lX c #FFF38C",
"zX c #FFF594",
"xX c #CDC9B2",
"cX c #F3DCA2",
"vX c #F4DDA9",
"bX c #FFF6A4",
"nX c #97A4CF",
"mX c #B2B5CB",
"MX c #C5BCC6",
"NX c #AAD3D3",
"BX c #CCCBCB",
"VX c #CCCDD3",
"CX c #D7D7D7",
"ZX c #E5DFDB",
"AX c #D6DAE6",
"SX c #D5D9F1",
"DX c #DAE5ED",
"FX c #E7E8EA",
"GX c #EDECF7",
"HX c #ECF4FB",
"JX c #F4F5FA",
"KX c #FEFEFE",
/* pixels */
"wX9XwX9X9X0X9XwX9X9X9XwXwXwXwXwXwXaXaXaX9XwXwX9XaXwXaXwXwXaXwX9X9XaXwX9XaX9XwXwXwX9X9XwX4XaX~.wXwXaXwXwXaXwX9XwX9XwX~.9XwXwXwXwX",
"aX9XdXrXfXhXhXdXhXhXdXwXaX9XwXwXwXdXeXdXdXhXhXaXaXwX9X9XwXwXwXaXdXdXaXaXwX9XaXwX9XqXwXwX9XaX9XaXaXwXwXwX9XwX9XwXqXaXyXwXyX0X9XwX",
"dXdXaXwXwX3X4XR.R.R.9XhXhXdXaXwXdXhXhXhXdXcXhXdXhXdXdXdXaXhXhXcX9XhXhXhXdXhXeXaXwXwXwXwXwXwXwXwX0X9X9X9XwX9XfX9XwX9XeXaXeXdXdXhX",
"wXwX7X4X3XW.4XR.R.R.R.R.9XhXdXdXdXcXdXaXwX9XaX9XdXdXdXdX9XE.U.T.4XT.R.4XaXdXhXhXdXhXaXaXaX9XfXhXeXhXdXhXhXyXeXeXhXhXdXhXhXhXdXdX",
"4XE.T.W.R.6X7XR.7X9X7XwX9XdXaXdXdXaXaXyXaXwXwXaXaXwX4XR.R.R.E.R.R.1Xd.9.t.| n.yXfXdXcXhXhXcXqXaXaXhXhXdXdXyXhXhXwXaXaXaX9XaXyX7X",
"7XaXwX9XaX9X9XrXhXdXhXaXwX9XwXwXwX6XaXdXwX9XyX9XE.R.R.4X3XU.Q.5Xd.y.r.0.r.X.^.S.P.wX9XaX9XwX9XwX9XwXwXhXhXdXhXhXdXaXwX9XwX9XwX9X",
"dXaXhXhXdX9X4XR.U.R.4XyXdXhXhXdXdXdXaX9X9X!.4X9XaXE.3XE.R.N.g.9.r.r.%.0.r.X.K.x.X.L.N.9XyXhXwXaXyX9XaX7XhXdXhXdXhXdXhXhXaXdXhXdX",
"hXaX7XR.R.E.4XU.4XU.6XT.R.9XwX9X9X9XaXhXaX9X7X7XT.7X1XA.7.y.r.0.0.q.l 7.r.X.K.@ 7 7 /.L.qXaXwXaXyX9XyXwXwXeXaXaXdXhXaXhXhXeXhXhX",
"E.R.4XR.6XR.R.R.R.4X3XR.9X4X4XaXwXwXwXfXhXaXyXeXuXe.r.r.G.lXr.0.0.r.7.r.r.X.x.# 5 0 q (.tXdXwXvXhXhXhXdXaX4XdXwXaXwXaXdXqXaX9X7X",
"4X4XR.E.E.R.R.R.4X4X9X7X9XdX9X9X9XwXdXdXdXhXdXH.r.0.F.bX(.y.) 4.0.0.0.0.r.X.L.@ 6 6 7 ^.P.9XT.Y.E.3XhXhXcXwXhX9XdX9XaX9X7X7X3XQ.",
"4XR.E.3X7X9XR.7XhX9XyX9XaX9XdXdXaXdX3X9X4XP.e.y.j.zXzXj.y.q M 4.r.0.0.0.0.3.C.p 5 5 7 Z.n.R.7XT.4X7X9X7XdXyXyXqXhXfXwXcXdXyX9X7X",
"9X9X9XwX7X9XwX9XaXwX6XhXaXwX7X7XR.5XE.2X4.y.0.j.lXlXj.y.e KXmX~ r.0.0.0.0.r.| /.# # 7 C.n.9X4XT.3X6X4X9X7X6XeXhXiXrXhXhXwX7X0XwX",
"9XhX9X9XwXaXdXhXhXhXaX9XR.4X4XR.7X9Xf.y.a.a.0.jXzXj.r.e KXKXGXc.u.r.r.0.0.r.3.V./.] W L.H.R.0X0X7X9X7X0X9X9X9X9XaXwX7XaX0XfXiX4X",
"eXaXhXhXhXhXhX9X7X4X7X4XE.3X4XP.w.a._.zXlXbX#.3.a.8.l KXKXKXJXnX&.*.,.r.0.0.r.x.K.^.K.K.H.aX3X1X9XwX>XM.n.9X9X7XwXwXaX9XwXwX9XwX",
"hXdXhX9XwXwX4X4XyX7X7X9X9X1Xw.h.bXlX_.G.F.F.+.2.O.c.KX{.OXZXJXM.jXkXkX).0.0.r.x.x.w L.K.[ =XFXKX[.P.t.k.1.f.yX9XwXwX9XwXeXhXhXhX",
"~.wXwX4XeXwX7XaX~.9XwX1XD.y.0.y.@.^ Q M ^ O.2.$ mXKXz @Xd |.D.I.).I.zXj.8.0.r.X.] @ q X.AXKXKXe y.~ >X9X1XN h.uXiXcXhXdXeXaXwXwX",
"9XwX9XaX9X9XwXwX9XaX..u.w.y.0.M @.*XJXJXJXMXGX$XFXKX}.KX  `.i._._._.a.o.8.0.r.X.^.] X.VXKXKXKXa b.aXb.wXiXwX{ g.tX9XwXyX7XyXqXwX",
"dXhXhXhXdXdXdX4XdX1X9.>.a _ r.r.~ AXKXKXf .X|.<X;XKX XX . % w.2.2.4.o.5.r.0.r. .C.K.[ KXKXKXJXJXVXKXB.9XwX6XaX! (.:XuXdXwXwX7XhX",
"aX9X9X4X4X9X4XaXhXhX%.>.[ G y.r.~ GXKXCX@X*X'.].E JXOXd   '.}./ 5.9 9.r.0.0.0.0.| K.| AXKXKXGXCXKX$XwX9XaX9X7XyX) zX).I.8X>XhXdX",
"R.Y.T.6XU.R.3XY.U.7XA.q.k.} r.r.^ DXKX;X@X#X  .X,X%XxXXX+XXX, u.M 9.r.0.0.0.0.r. .C.^.q $X$X$X;X&X9X9XaX9XwXuXuX$.lX).lX) #.aX4X",
"R.R.4XR.E.R.T.7XR.4XP.y.q.r.0.r.4.{.KXZXXX  . XX9 6.p y $ N i.+.+.r.0.0.0.0.0.0.q.x.L.^.<. . .dXdXhX9XhXdXhXeX%.7.(.lX).G.0 4XR.",
"R.9XE.T.4X4XE.4X4X7X2X9.r.7.r.6.k.Z.z.b.k k e #X4.r.r.y.u.y.2.~ y.0.0.0.0.r.r.0.r.x.' 6 [ S.<.B.3XR.R.9XwXhXcX..y.7 f.4.2.v.E.R.",
"3XE.E.4X4XwX9X9X9XwX9X$.q.g q.^ h.zXlXlXkX_.G.a.6.8.0.0.t.#.~ y.0.0.0.0.r.3.{ y.r.<.' # 6 x.L.z.R.4X6XU.6X4X6XhXz.H y.6.l W.R.E.",
"7XwX9X9X9X7X9XwX9XwXaXd.y...r.4.~ u.r.r.r.r.r.~ Q r.0.y.O.nX2.r.0.0.0.0.7.] ' ' y.w.S.@ 5 0 ^.S.R.E.6XR.7X6X7XR.9X7X:X>X6X3XyX9X",
"wXwXwX9X9XwXaX9XaXdX0XtX0.r.0.r.2.w M M M M ~ 6.y.y.t.G GXKXe u.0.0.0.0.w.} ' H 4.r.x.L.q | K.^.N.6X4X7X9X7X9X9XyX9XyX9XqXaX9X9X",
"wX9XyXaX9X9XaXdXaX9XwX9X$.r.0.0.0.y.u.u.u.u.0.u.O.k.l z.FXKXHXM r.0.0.0.r.l.' G %.r. .K.L.K.K.K.n.aX9XaXaXwXqX0XeXwX0X9X9XwXwX0X",
"hXdXhXhXyXhXhXhXhXdXhXhX>.r.0.0.0.0.0.0.y.Q M 8 SXKXHX~ nXmXG 6.0.8.0.0.r.w.l.T t.0.3.C.S.K.[ K.Z.7X9X9X9X9XaX9XeX9X9X9XdX9X9XaX",
"dXaXaXaXaXwXwX9X~.eXdXdXW.6.r.0.0.0.0.0.0.u.u.u.z KXKX[.4.6.y.0.y.o.y.0.0.r.r.r.0.0.7.x.K.K.@ x.L.Z.dXaXdXaXwX9X9XdXdXdXaXhXcXdX",
"aXdX9X7X3XR.4XU.4XU.R.R.yXO.r.0.0.0.0.0.0.0.0.r.) *XN 9.0.r.y.4.o.0.0.0.0.r.4.r.0.0.r.X.Z.S./.S.<.s.N.cXdXdXdXhXdXdXdXdXaX9XwXwX",
"7XU.E.R.W.R.R.R.R.yXBXCXCXc.8.r.0.0.0.0.0.0.0.0.y.y.r.y.$.%.%.&.y.0.0.0.0.y.] { r.0.0.` X.( b.&X%Xk.yXeXaXwXaXwXwXwXaX0XhXeXwX7X",
"R.3XE.R.R.R.E.E.E.:XKXKXKXHXQ r.0.0.0.0.0.0.0.r.&.5.8.o.8.y.r.0.0.0.0.0.0.r.3...y.8.$.) ' VXCXVXVXFXc.wXwX9XaXwXaXwX9XwX9XR.4X3X",
"W.R.4XR.R.R.yXR.3X&XKXKXKXKX=X$.r.0.0.0.0.0.0.0.y.5.&.r.0.0.0.0.0.0.0.0.0.r.r.4./ n.xXGXBXBXBXBXBXBXCX1X3XwX~.yX!.yX3X4XE.7XT.E.",
"R.4XR.4X7X6XB.m.H.{ KXKXKXKXmXO.6.0.3.r.0.0.0.0.0.0.0.0.0.0.0.0.0.0.r.r.0.4.~ BXKXKXKXKXKXz GXFXFXAXCX=X9X9XhXaX4XuX4X9X4XQ.R.R.",
"qXwX7X0X9X5XA.h.z.1X=XKXKXCX>X>.#.e.p 7.0.0.0.0.0.0.0.0.0.0.0.0.0.r.2.@.$.) CXKXKXKXKXKXKX*Xg 3 > > > < v.9XaXwXaX9XaXwX9XfX7X7X",
"wX9XaXyX7X>Xh.tXdXhXhX,X&XyXaXiX@.8.k.{ y.r.0.0.0.0.0.0.0.0.0.r.8.@.@.) z.[.KXKXKXKXKXAXe I , A i i u u t 5X9X9XqX9XaX9X4X7XdXwX",
"hXhXqXdXhX2Xd.hXhX9X5XQ.T.4XR.4XM.4.q.y._ _ y.0.0.0.0.0.0.r.9.$.$.1.;XDX#XKXKXKXKXAXy m ;.Y U 1 i u u u i y hXaXhXrXcXdXhX6XdXaX",
"eXaXyXhXhXP.M.9X7X4XE.R.9X5XE.3X6XO.r.w.] ' ' y.0.0.0.r.8.@.$.4./ v oX#X;XKXKXVXj m :.:   9 -.9 i Z i i Z 3 l hXdXhXrXaXwXeX9XwX",
"R.4X4XR.3X(...4X4XE.9X6XI.3X4X7XE.H.8.7.} G a 7.0.0.r.4.$.O.z.oXc - HXCXFX-Xy B ;.C   , ;.U U P X 3 3 3 1 : y qXaXwXyX9XwX6X9X4X",
"7X4X4X4X4X_.z.7X3X7X3XE.3X7X9X9XwX9X@.y.l.} a w.0.r.4.4.b.SXFXz NXc ; DXr B :.$ V U ;.Y P U K S t 3 = $ = m.dX9XyX9XwXaX9X7X4X9X",
"4XyXwXB.M.kXlXP.>XaX5XhXaXaX9XwXaXwXZ.$.t.} ..y.r.4.$.R $X=X;XFXHX- n ; K $   , -.P P U P D V u A S J h iX9XhXhXhXwXwXwX9XdX7X9X",
"wX9X:X_.(.kXkXlXzXm.aXwX9XwXwXwXwX9XwXA.8.y.y.8.) ! =XKXKXKXKXKXz - b n x : ;.U P U P D C 3 i D D S C B v.E.R.U.4XaXdX9XwXwXwXwX",
"aXwXN.a.p.F.j.g.p.{ cXhXdXdXaXwXwXyX9XiX@.8.$.] AXKXKXKXKXJX#X< :.- b n x F Y U P J V 3 + = 3 D S S D V E 3XE.4X4XR.4XhXyXaXwXyX",
"hXhXO.@.8.4.t.M ~ >X4X3X9XhXhXdXhX9XaXdXZ.@.k.KXKXKXKXKX$X< =.,   O c n > D S D A 1 O = b.4X:Xi S C 3 v.R.4X4XE.3XR.4X9XdXhXhXhX",
"aXdX/ #.2.^ 6.i.b.P.7X4XR.R.E.9XfXhXhXyX4X5X;XGXKXKX-X< :.-.P O U ;.8 o K D A 1 O r B.4XU.4X4X4 y :XQ h.5X7X4X4X9X7X9XwX7XaX9XaX",
"R.3X1X_ } / k.} R.U.9X4X4X9X4X9X4X9X9X3X7X4X>XZX-Xt =.J . : Y -.P U J K A : + 2 B.9X4X4X4X4X3X4X7X9X9X) Z.9XiX7X9XdX9XaXhX7X7XE.",
"9XR.R.3X4XE.7X4X3X9X9X9XaXwX9XeXwXwXaXwX9XwX9Xl B P   X K ;.U P J S i 1 O h B.9X9XaX9XwXwXaX7X7X9X9X9XtX+.c.7X9X9XwXwX9X9X7X9X4X",
"7X4X4X9X7X9X9X9X9XhX7XyX~.wXaX9XwXwXwXwXwX9X9XwXm -.P ;.P P J C i $ O r N.wX9XaXdXdXhXhXhXdXaXaXwXwXwX9X<XKX:X9X9XaXwXyXwX7X7X7X",
"9X9XwXwXyX9X9XwXwX9XaXwXcX9XwXaX9XaXhXhXdXfXiXy 3 , 9 C S C u $ + h P.eX9XdXdXdX9X7X4X4X4XwXhXdXhX9XwXwX9X&XKX1XyX9XyXqX9XwX9X9X",
"wX9XaXwXwXwXwXeX9XwXaXwXwXaXaXhXdXdXhXhXhXdXT y + C D 9 Z : O R yX9X9XaXhXaX7XR.E.R.R.E.W.R.T.wXhXdXhX9X9XwX<X=X:X9XwXyXaXwX9XwX",
"wXwXwX0XwXdX9XwX9XwXwXwXdXhXdXhX9XT.7XR.E.R.2 R d.8 D D 4 l 9XwXaXaXhXhX4XT.R.R.4XR.R.R.3X4XE.R.R.9XhXhXdXhX  <X  2XhXhXwXaXwXwX",
"dXwXwXwX9XdXwXwXaX9XdXhXhXaX4XT.R.E.3XP.M.f.i.2.M : i 3 R hXdXdXhXhX7XW.6XR.4X4XE.R.4XR.R.E.R.7X4X4X0XaXaX9X    . h aXdXdXwX9XwX",
"wX9X9XwXwXdXwXhXhXdXhXaX9XE.R.E.R.R.R.b.y.8 xXr 4 u : R wXwXhX4X9XE.4X6XT.Q.4X4XE.4XW.9X9X7X7XwX7XaXwX7XeX9X&X  s * . 1XdXhXdXaX",
"aXdXcXdXdX6XdXdXwX9XQ.4X9X4XE.4XE.R.R.R.8 FXv.4Xm.v.m.aX9X9XwX4X4X4X9XE.4X6X7X7XwX7X7X9X9X7XdX9XeX9XaXwXaX9XwX2 * s & + 9XwXaXaX",
"wX7XqX9X9XaXaX9X4X4XE.7X4X4X9X4X9X7X7XR.hX#XKX,X9XwX7XyXaXaXdXdXdXdXqXaXwX9X9XwX9XwX9X9X9XwXwXwXwX9X7XwXaXwXwX:X      l wXwXaX9X",
"dXaXaXaXwX9XwXwXaXwXaXwXaX9XwX7X9X9XaX9X3XaX#XKXxX1XhXtXhX9XhXdXdXeXaXdXdXdXdXaXwX9XqX9XwXwXwXaXwXwX9XwX9XwX9XwX:Xh v.wX9XwXaXwX",
"9X9X9XwXaXdXhXhXdXhXdXhXdXdXhXdXaXaXwXaXeX9XaX%XFXKXr   R E.R.R.3XI.5X9X9XdXhXdXhXaXaXaXwX9XwXyX~.aXwXdXdXdXhXhXdX9XaX7XdXwXqXwX",
"aXdXdXdXaX4X3XE.R.4X3X9XdXhXhXcXdXhXaXdX9XhXyXhXm.-X=     3XR.R.7X4XR.R.0X4XT.wXdXdXhXhXhXdXdXhXdXyX9XR.4XT.R.R.yXdXcXaXaXdXaXhX",
"wXwX4XR.4XE.R.9XR.R.R.R.W.T.4X9XdXhXhXaXhXyXyXm.m.2       N.4X4X7XaX7X9X3X7XeX9X9X9XwXwXwXwX7XW.R.R.R.4XE.7X3XR.R.Y.R.wXhXaXwXwX",
"E.R.R.R.E.R.E.R.4XR.R.R.R.4X4X4X7X9X9XwX7X9XX * & X .   l 9X9X4X9X7X9X~.wX9XwXwXwXwX9X7X9X4XR.Q.4XE.9X7X4XW.7XR.4XE.R.R.R.7X9X7X",
"4XE.R.4X4X4XR.4XR.4X4X9X7XwX9X9XwX0XeXwXeX5X  & & . . yX9X9X9XwX9XaXyXyXwXwX9X9X7X4XR.3XR.4X4X4X4X4XE.R.4XR.R.4X3XR.4X6XE.4X4X6X",
"4X4XT.7X4X9X7X7X4X7XwX9X7XwX9XwXwXyXfXeXyXaXr     l eX7XwXyX~.aX9XwX9X9XwX7XaX4XR.4XE.4XR.4X4X7XR.R.R.R.R.4XR.4X4XyXqX4XwX4X9XE.",
"9X9X0XyX9XwX9X9XeXeXaX9XeXwXwX9XwXwXqXaXwXyXaX9XwXeXwXwXyXwXaXwX7XaXaXwXwX7X4X4X9X4X4XR.4XR.E.R.9X9X4X9X9XdX7X4XyX9X9X9X9XwX9X9X",
"0X9X9XwX9XwXwXwXwXwX9XwXwXwXwXwXaXwXaX9XaXaXaXaXaXdXaXiXwXwX7XaXhXwXwX9X9X9X4XaX4X7X7X4X4XwX7X9X4XyX7X9X7XyX9XaXQ.wXwXwX9XwXwXwX",
"wXaXwX9XaXwXwXwXaXwXwXwXwXwXwXwXwXwXwXwX9XwXwXaXwXwXaX9XwXwXwXwXwXaX6X9XwXwX9XwX9XwX9XwXwX9XwX9XwX9XwXwXwXwXwXwX9XwXwXwXwXwX9XwX"
};
