/* XPM */
static char *xpm_[] = {
/* columns rows colors chars-per-pixel */
"64 64 226 2 ",
"   c #010000",
".  c #0A0905",
"X  c #0C0B0A",
"o  c #090706",
"O  c #110E0A",
"+  c #13110E",
"@  c #1B1309",
"#  c #161412",
"$  c #1B1816",
"%  c #211E1C",
"&  c #281D15",
"*  c #211609",
"=  c #2A251D",
"-  c #372819",
";  c #09093C",
":  c #070733",
">  c #120F34",
",  c #281D3B",
"<  c #2A2623",
"1  c #2A2724",
"2  c #332A28",
"3  c #35322E",
"4  c #3F3523",
"5  c #3A3834",
"6  c #372A33",
"7  c #4A3318",
"8  c #5C3E11",
"9  c #533C19",
"0  c #462E0F",
"q  c #473926",
"w  c #5B3D24",
"e  c #4A3630",
"r  c #603F2C",
"t  c #5E4013",
"y  c #68430A",
"u  c #7A4E0A",
"i  c #744C0E",
"p  c #7D510D",
"a  c #644412",
"s  c #6C4810",
"d  c #7C5213",
"f  c #704A17",
"g  c #58432A",
"h  c #584B34",
"j  c #69482B",
"k  c #695536",
"l  c #745D39",
"z  c #764F2A",
"x  c #0A0944",
"c  c #0B0B4A",
"v  c #070741",
"b  c #191646",
"n  c #0D0C53",
"m  c #0E0D5B",
"M  c #161558",
"N  c #100F45",
"B  c #281E4A",
"V  c #34274A",
"C  c #332F50",
"Z  c #0E0C65",
"A  c #110E64",
"S  c #110F6C",
"D  c #13126B",
"F  c #141367",
"G  c #120F77",
"H  c #141175",
"J  c #1A1C73",
"K  c #151279",
"L  c #1B1B79",
"P  c #18167B",
"I  c #211F63",
"U  c #1D237B",
"Y  c #26247A",
"T  c #363577",
"R  c #35346A",
"E  c #483854",
"W  c #56565D",
"Q  c #504A4E",
"!  c #6A5B44",
"~  c #6B544C",
"^  c #796845",
"/  c #6C6254",
"(  c #736756",
")  c #464566",
"_  c #575676",
"`  c #4D4C6F",
"'  c #66667A",
"]  c #7C797A",
"[  c #726D6B",
"{  c #645F68",
"}  c #88570B",
"|  c #915D0C",
" . c #8A5C16",
".. c #96661A",
"X. c #8F6019",
"o. c #855836",
"O. c #815C21",
"+. c #99663D",
"@. c #976D2E",
"#. c #A57325",
"$. c #A7793B",
"%. c #A16E3D",
"&. c #A7721F",
"*. c #9E7547",
"=. c #907256",
"-. c #A36A41",
";. c #A86E42",
":. c #A97746",
">. c #B37C46",
",. c #83756B",
"<. c #8C7B71",
"1. c #9E8358",
"2. c #BB8349",
"3. c #BA844B",
"4. c #A48959",
"5. c #B98B55",
"6. c #B99259",
"7. c #938575",
"8. c #BA9B64",
"9. c #A48F72",
"0. c #BDA072",
"q. c #C0864A",
"w. c #C3894C",
"e. c #C18E52",
"r. c #C59559",
"t. c #C59D66",
"y. c #C7A568",
"u. c #D3AA6A",
"i. c #D7B474",
"p. c #D1AE75",
"a. c #E3BE79",
"s. c #E6C27C",
"d. c #E9C57E",
"f. c #1A1B83",
"g. c #1A1A84",
"h. c #1E218C",
"j. c #1E2384",
"k. c #242C8B",
"l. c #22288A",
"z. c #273289",
"x. c #242B94",
"c. c #232996",
"v. c #29349D",
"b. c #283395",
"n. c #2B36A5",
"m. c #2E3BAB",
"M. c #2D3BA4",
"N. c #303FAA",
"B. c #313FB2",
"V. c #33419C",
"C. c #3847A8",
"Z. c #3344B4",
"A. c #384BB7",
"S. c #3A50BF",
"D. c #575788",
"F. c #45498D",
"G. c #5E6497",
"H. c #666686",
"J. c #777792",
"K. c #70708F",
"L. c #525BA7",
"P. c #5865B6",
"I. c #646CAF",
"U. c #384CC2",
"Y. c #3D54C8",
"T. c #3D55D0",
"R. c #445CC8",
"E. c #425CD5",
"W. c #445ED8",
"Q. c #4662DC",
"!. c #4763D7",
"~. c #4966E1",
"^. c #4B69E5",
"/. c #4D6DEB",
"(. c #4F71EE",
"). c #5174F4",
"_. c #567CFE",
"`. c #587FFF",
"'. c #5478F8",
"]. c #5174EF",
"[. c #6777CA",
"{. c #5981FF",
"}. c #6E82D4",
"|. c #8B8B8B",
" X c #868585",
".X c #949293",
"XX c #9B9B9B",
"oX c #969598",
"OX c #9A9BA3",
"+X c #9B9CB2",
"@X c #A4A4A3",
"#X c #ACABAB",
"$X c #A9A7A4",
"%X c #A8A8BC",
"&X c #B3B3B3",
"*X c #BBBBBB",
"=X c #B8B8B6",
"-X c #BBB7AD",
";X c #AAA2A0",
":X c #D1B487",
">X c #C2BBAF",
",X c #DAC195",
"<X c #E7C689",
"1X c #E7CA95",
"2X c #C4C2BF",
"3X c #EAD3AF",
"4X c #8A94CB",
"5X c #B2B4CA",
"6X c #C0BFC4",
"7X c #B7C1E4",
"8X c #C3C2C2",
"9X c #CBCBCB",
"0X c #C7C7CA",
"qX c #D6D2CB",
"wX c #D4D4D4",
"eX c #DCDCDC",
"rX c #D5D4D6",
"tX c #CFCCCC",
"yX c #DFE0E0",
"uX c #E4E4E4",
"iX c #ECECEB",
"pX c #E5E6EB",
"aX c #F5F5F5",
"sX c #FEFEFE",
"dX c #EFDDC4",
"fX c None",
/* pixels */
"fXfXfXfXfXfXfXfXfXfXfXfXfXfXfXfXfXfXfXfXfXfXfXfXfXfXfXfXfXfXfXfXfXfXfXfXfXfXfXfXfXfXfXfXfXfXfXfXfXfXfXfXfXfXfXfXfXfXfXfXfXfXfXfX",
"fXfXfXfXfXfXfXfXfXfXfXfXfXfXfXfXfXfXfXfXfXfXfXfXfXfXfXfXfX  fXfXfXfXfXfXfXfXfXfXfXfXfXfXfXfXfXfXfXfXfXfXfXfXfXfXfXfXfXfXfXfXfXfX",
"fXfXfXfXfXfXfXfXfXfXfXfXfXfXfXfXfXfXfXfXfXfXfXfXfXfXfX      fXfXfXfXfXfXfXfXfXfXfXfXfXfXfXfXfXfXfXfXfXfXfXfXfXfXfXfXfXfXfXfXfXfX",
"fXfXfXfXfXfXfXfXfXfXfXfXfXfXfXfXfXfXfXfXfXfXfXfXfXfX          fXfXfXfXfXfXfXfXfXfXfXfXfXfXfXfXfXfXfXfXfXfXfXfXfXfXfXfXfXfXfXfXfX",
"fXfXfXfXfXfXfXfXfXfXfXfXfXfXfXfXfXfXfXfXfXfXfXfX              fXfXfXfXfXfXfXfXfXfXfXfXfXfXfXfXfXfXfXfXfXfXfXfXfXfXfXfXfXfXfXfXfX",
"fXfXfXfXfXfXfXfXfXfXfXfXfXfXfXfX  fXfXfXfXfX          o     o fXfXfX  fXfXfXfXfXfXfXfXfXfXfXfXfXfXfXfXfXfXfXfXfXfXfXfXfXfXfXfXfX",
"fXfXfXfXfXfXfXfXfXfXfXfXfXfXfX    fXfXfX            o X   . X fXfX    fXfXfXfXfXfXfXfXfXfXfXfXfXfXfXfXfXfXfXfXfXfXfXfXfXfXfXfXfX",
"fXfXfXfXfXfXfXfXfXfXfXfXfXfX      fXfX              $ #   X X         fXfXfXfXfXfXfXfXfXfXfXfXfXfXfXfXfXfXfXfXfXfXfXfXfXfXfXfXfX",
"fXfXfXfXfXfXfXfXfXfXfXfXfXfX      fX              # 2 +     o           fXfXfXfXfXfXfXfXfXfXfXfXfXfXfXfXfXfXfXfXfXfXfXfXfXfXfXfX",
"fXfXfXfXfXfXfXfXfXfXfXfXfX                      X 1 3 +       o         fXfXfXfXfXfXfXfXfXfXfXfXfXfXfXfXfXfXfXfXfXfXfXfXfXfXfXfX",
"fXfXfXfXfXfXfXfXfXfXfXfX                        $ 3 5 .     o # .       fXfXfXfXfXfXfXfXfXfXfXfXfXfXfXfXfXfXfXfXfXfXfXfXfXfXfXfX",
"fXfXfXfXfXfXfXfXfXfXfXfX                      $ 1 3 5 .   o % %         fXfXfXfXfXfXfXfXfXfXfXfXfXfXfXfXfXfXfXfXfXfXfXfXfXfXfXfX",
"fXfXfXfXfXfXfXfXfXfXfX                      X < 1 5 3 o o % 3 #         fXfXfXfXfXfXfXfXfXfXfXfXfXfXfXfXfXfXfXfXfXfXfXfXfXfXfXfX",
"fXfXfXfXfXfXfXfXfXfX                        % < 3 3 X o = 1 < o         fXfXfXfXfXfXfXfXfXfXfXfXfXfXfXfXfXfXfXfXfXfXfXfXfXfXfXfX",
"fXfXfXfXfXfXfXfXfXfX                      o < < 1 +   $ < # O           fXfXfXfXfXfXfXfXfXfXfXfXfXfXfXfXfXfXfXfXfXfXfXfXfXfXfXfX",
"fXfXfXfXfXfXfX  fXfX                      X < 1 +   X % X o           fXfX    fXfXfXfXfXfXfXfXfXfXfXfXfXfXfXfXfXfXfXfXfXfXfXfXfX",
"fXfXfXfXfXfXfX                o o         X 1 $     # .                     fXfXfXfXfXfXfXfXfXfXfXfXfXfXfXfXfXfXfXfXfXfXfXfXfXfX",
"fXfXfXfXfXfXfX                o o         X %                         o     fXfXfXfXfXfXfXfXfXfXfXfXfXfXfXfXfXfXfXfXfXfXfXfXfXfX",
"fXfXfXfXfXfXfX            - j 7 o         X .   $ g h -     .       o X   fXfXfXfXfXfXfXfXfXfXfXfXfXfXfXfXfXfXfXfXfXfXfXfXfXfXfX",
"fXfXfXfXfXfXfX          @ o.-.;.j           O ^ u.a.s.p.q X .     o # o   fX    fXfXfXfXfXfXfXfXfXfXfXfXfXfXfXfXfXfXfXfXfXfXfXfX",
"fXfXfXfXfXfXfX        . z -.-.2.2.7       @ 4.s.d.s.d.1X8.#         o         fXfXfXfXfXfXfXfXfXfXfXfXfXfXfXfXfXfXfXfXfXfXfXfXfX",
"fXfXfXfXfXfXfX        - -.-.;.q.q.+.O   X 1.d.s.d.s.1X<Xi.g               . fXfXfXfXfXfXfXfXfXfXfXfXfXfXfXfXfXfXfXfXfXfXfXfXfXfX",
"fXfXfXfXfXfXfX      o r +.-.;.w.q.q.g   j s.s.d.d.d.3X:Xi.^           . 0 } } X.fXfXfXfXfXfXfXfXfXfXfXfXfXfXfXfXfXfXfXfXfXfXfXfX",
"fXfXfXfXfXfXfXfX  o   r o.-.;.w.w.w.$.- 6.s.s.s.d.1XdXi.y.k   = @     @ 0 p  .g b.!.Y.V.fXfXfXfXfXfXfXfXfXfXfXfXfXfXfXfXfXfXfXfX",
"fXfXfXfXfXfXfXfXfXw @ 7 o.+.-.>.r.u.r.3.i.u.u.s.<X,X7.4.y.4 k *.h   . 0 u } X.V T.{._.'.!.b.fXfXfXfXfXfXfXfXfXfXfXfXfXfXfXfXfXfX",
"fXfXfXfXfXfXfXfX& j r r 7 - r -.3.r.y.w.6.r.s.y.^ g 1 ! i.8.*.3.h * u | | &.@.I n.~._.{.{.(.z.j.k.M fXfXfXfXfXfXfXfXfXfXfXfXfXfX",
"fXfXfXfXfXfXfXv 6 i o.z o.,.;Xr k 4.e.>.5.t.^ 2 W -X:X,Xs.6.3.t.6 7 p p } ..j k.Z.A.Q.(._.{.(.!.'.T.S.fXfXfXfXfXfXfXfXfXfXfXfXfX",
"fXfXfXfXfXfXfXn 6 } z j o.;.:X;X7.=.o.*.+.k 7.9.0.p.<X1Xy.1.6.W > y } | ..#.e D K g.j.v.Y.)._.'.'._._.^.k.c fXfXfXfXfXfXfXfXfXfX",
"fXfXfXfXfXfXfXv , } | f w +.>.q.r.y.6.>.5.5.5.2.r.i.3X1Xy.4.G.j.b a } }  .#.5 g.K K K H P x.Q.'.C.^.'.{.(.A.U _ fXfXfXfXfXfXfXfX",
"fXfXfXfXfXfXfXx M y i i 8 r >.w.r.u.e.+.u.s.i.i.a.<X3Xp.6.=.!.j.b a } | ..#.V G K K K K K H Y.R.b.T.'.'.)._.!.R.K.XXfXfXfXfXfXfX",
"fXfXfXfXfXfXfXx Z 7 | } a 7 o.>.q.q.>.%.r.i.i.i.d.1X:X6.0.P.Q.F b z #.@.#.$.B H H H H K g.m.A.j.Y.^.Q.m.c.).'.'.P.8XfXfXfXfXfXfX",
"fXfXfXfXfXfXfX; S B 8 s u 8 2 r ;.q.q.2.5.r.s.d.<X8.1.7.P./.b.j.G.qXqXqXtX>X) n m m S K b.x.K K P P F m H m.Z.A.5XaXfXfXfXfXfXfX",
"fXfXfXfXfXfXfXfXc A 3  .$.9.oX_ , ~ :.2.2.r.s.t.*.<.) V.A.k.J k.5XwX=XwXyXeXOXb x m n n m n m n M N v A K P V.+XsXsX9XfXfXfXfXfX",
"fXfXfXfXfXfXfXfXfXv b <.8X0XeXeX' v B ~ -.=./ V F.M.j.z.k.S.U.D.uX$XXX*XiXaXrXoX' fXfXfXfXfXfXfXfXW R ` D.J.wXsXsXsXuXfXfXfXfXfX",
"fXfXfXfXfXfXfXfXfXfXfXW |.eXiX=XtXK.M Z H M ; m g.S b.E.).'.R.5XwX*XiXsXsXsXpX*X-XfXfXfXfXfXfXfXfXfX|..X#X&XuXsXsXsXiXfXfXfXfXfX",
"fXfXfXfXfXfXfXfXfXfXfXfXC XXeXeXuXeX%XG.L.P.V.T Y R L.[.[.4X5XwX9XaXsXsXsXaX#X*X2XR fXfXfXfXfXfXfXfXfX] .X#X6XaXsXsXuXfXfXfXfXfX",
"fXfXfXfXfXfXfXfXfXfXfXW ) ' $X9XiXrX=X8X5X9XwXwXwX9X=X*X0XwXyXiXsXsXsXaXrXXX$XiX%XV.fXfXfXfXfXfXfXfXfXfX] oX$X*X8XeXaXfXfXfXfXfX",
"fXfXfXfXfXfXfXfXfXfX XoX$X#X@X.X;X#X&X#X&X=X9XrX9X8X#X&XwXrXrXrX9X=X#XoX.X*XpX8XP.).C.fXfXfXfXfXfXfXfXfXfX XXX=XeXsXsXwXfXfXfXfX",
"fXfXfXfXfXfXfXfXfXfX.X@X&X=XwXwX2XXX' ' ]  X] / / ( ( ! ! l l k j 9 !  XXX=X%XP.).`.~.J fXfXfXfXfXfXfXfXfX@X*XaXsXaXuX@XfXfXfXfX",
"fXfXfXfXfXfXfX|.XXXX|.oX#XeXsXsXsXpXH.fXfXQ _ h q 9 a s s u u } d l / |.J.D.x./.`._._.Z.fXfXfXfXfXfXfXfXfXXX#XrXsXuX2XfXfXfXfXfX",
"fXfXfXfXfXfX XoX*XwX9X@X@XyXsXsXsXsXOXfXfXc J R _ { [ ,.,.,.,.J.K.D.` Y P H g.~._.(._.).M.fXfXfXfXfXfXfXfX.X.X|.8XuXfXfXfXfXfXfX",
"fXfXfXfXfXOX8XXX@XwX9X*XwXwXiXsXsXuXfXfXfXn K K K P Y Y Y Y L L P H K P K K H U.'.Z.(._.).b.fXfXfXfXfXfXfXfXfXfXfXfXfXfXfXfXfXfX",
"fXfXfXfX[ #X2X#X8X&XuX8XuXwX*XaXrXfXfXfXn H K K K H K H S S A A F D H H H H G m.E.g.B._.`.Q.Y fXfXfXfXfXfXfXfXfXfXfXfXfXfXfXfXfX",
"fXfXfXfXfXfXXX*X9XtXaXiXaX*X.XfXfXfXfXn H K K K K Z m G K K H K j.k.v.m.n.h.K f.c.G G m.).`.T.D fXfXfXfXfXfXfXfXfXfXfXfXfXfXfXfX",
"fXfXfXfXfXfXfXfX@XwXrXiXeXfXfXfXfXfXx H K K K K K H c x A H K K K P f.l.c.g.K K H G K K v.^._.N.fXfXfXfXfXfXfXfXfXfXfXfXfXfXfXfX",
"fXfXfXfXfXfXfXfXfXfXfXfXfXfXfXfXfX; S G K K K K K H S n c m H G K K K D S G K K H S H H H c.~./.U fXfXfXfXfXfXfXfXfXfXfXfXfXfXfX",
"fXfXfXfXfXfXfXfXfXfXfXfXfXfXfXfX: A G g.H G H K g.h.c.n.M.D N ) T Z A v x S K K G H m H G K c./.S.fXfXfXfXfXfXfXfXfXfXfXfXfXfXfX",
"fXfXfXfXfXfXfXfXfXfXfXfXfXfXfXfXc K l.c.S c.Z.E.~.).'._.{.A.) $XfXfXfXfXfXfXA D K K S S K K G m./.U fXfXfXfXfXfXfXfXfXfXfXfXfXfX",
"fXfXfXfXfXfXfXfXfXfXfXfXfXfXfX; H h.U.J h./.`.`.`._.`._.'.L.|.&XfXfXfXfXfXfXfXc A H K K K f.x.n.).A.fXfXfXfXfXfXfXfXfXfXfXfXfXfX",
"fXfXfXfXfXfXfXfXfXfXfXfXfXfXfXm f.W.n.H E.{._.`.`._.`.`.Q.J.@X=X$XfXfXfXfXfXfXfXfXc m m H f.Q._.^.E.^.b.fXfXfXfXfXfXfXfXfXfXfXfX",
"fXfXfXfXfXfXfXfXfXfXfXfXfXfXfXD E.!.D Z._.`._._._._._._.C..X/ l fXfXfXfXfXfXfXfXfXfXfXfXx Z x.^.M.b.`.].A.H.fXfXfXfXfXfXfXfXfXfX",
"fXfXfXfXfXfXfXfXfXfXfXfXfXfX; H U.M.P /._._._.`.`._.`.E.H.7.8 y fXfXfXfXfXfXfXfXfXfXfXfXfX; c F A D E.{._.4X8XfXfXfXfXfXfXfXfXfX",
"fXfXfXfXfXfXfXfXfXfXfXfXfXfXfXA K m U )._.`._._._.`.).z. X! 8 fXfXfXfXfXfXfXfXfXfXfXfXfXfX: v A D H v./.'.7XiXfXfXfXfXfXfXfXfXfX",
"fXfXfXfXfXfXfXfXfXfXfXfXfXfXfX; x n F Y.{._.`._.`.~.k.b fXfXfXfXfXfXfXfXfXfXfXfXfXfXfXfXfXfXB ; Z K j.Y.}.pXsXwXfXfXfXfXfXfXfXfX",
"fXfXfXfXfXfXfXfXfXfXfXfXfXfXfX: n K K j.^._.{.).S.J n fXfXfXfXfXfXfXfXfXfXfXfXfXfXfXfXfXfXfXW ) R T T I.+XpXsXiXfXfXfXfXfXfXfXfX",
"fXfXfXfXfXfXfXfXfXfXfXfXfXfXfX: c G m.!.Q.'.!.v.m fXfXfXfXfXfXfXfXfXfXfXfXfXfXfXfXfXfXfXfXfXfXfX|..X$XwXwXrXsXaXfXfXfXfXfXfXfXfX",
"fXfXfXfXfXfXfXfXfXfXfXfXfXfXfXfX; A l.^.Q.v.fXfXfXfXfXfXfXfXfXfXfXfXfXfXfXfXfXfXfXfXfXfXfXfXfXfXfX X.X#XwXeXiXyX8XfXfXfXfXfXfXfX",
"fXfXfXfXfXfXfXfXfXfXfXfXfXfXfXfXfX; c J fXfXfXfXfXfXfXfXfXfXfXfXfXfXfXfXfXfXfXfXfXfXfXfXfXfXfXfXfXfXfX X X@XXX8XsXrXfXfXfXfXfXfX",
"fXfXfXfXfXfXfXfXfXfXfXfXfXfXfXfXfXfXfXfXfXfXfXfXfXfXfXfXfXfXfXfXfXfXfXfXfXfXfXfXfXfXfXfXfXfXfXfXfXfXfXfXfX X#XeXsXsX2XfXfXfXfXfX",
"fXfXfXfXfXfXfXfXfXfXfXfXfXfXfXfXfXfXfXfXfXfXfXfXfXfXfXfXfXfXfXfXfXfXfXfXfXfXfXfXfXfXfXfXfXfXfXfXfXfXfXfXfXfXXX*XuXqX1.fXfXfXfXfX",
"fXfXfXfXfXfXfXfXfXfXfXfXfXfXfXfXfXfXfXfXfXfXfXfXfXfXfXfXfXfXfXfXfXfXfXfXfXfXfXfXfXfXfXfXfXfXfXfXfXfXfXfXfXfXfX/ l  .} y fXfXfXfX",
"fXfXfXfXfXfXfXfXfXfXfXfXfXfXfXfXfXfXfXfXfXfXfXfXfXfXfXfXfXfXfXfXfXfXfXfXfXfXfXfXfXfXfXfXfXfXfXfXfXfXfXfXfXfXfXfX0 8 u y fXfXfXfX",
"fXfXfXfXfXfXfXfXfXfXfXfXfXfXfXfXfXfXfXfXfXfXfXfXfXfXfXfXfXfXfXfXfXfXfXfXfXfXfXfXfXfXfXfXfXfXfXfXfXfXfXfXfXfXfXfXfXfX8 fXfXfXfXfX",
"fXfXfXfXfXfXfXfXfXfXfXfXfXfXfXfXfXfXfXfXfXfXfXfXfXfXfXfXfXfXfXfXfXfXfXfXfXfXfXfXfXfXfXfXfXfXfXfXfXfXfXfXfXfXfXfXfXfXfXfXfXfXfXfX"
};
