/* XPM */
static char *d0cec69d7feb4372b9ae8c907bb3a0962Xg08laScuBpTd56[] = {
/* columns rows colors chars-per-pixel */
"64 64 235 2 ",
"   c #190A05",
".  c #1C0E0A",
"X  c #150907",
"o  c #1D110D",
"O  c #1E1311",
"+  c #0B0000",
"@  c #220D0A",
"#  c #240B07",
"$  c #24120D",
"%  c #2B130E",
"&  c #2C1005",
"*  c #32140C",
"=  c #39120B",
"-  c #241512",
";  c #2B1612",
":  c #2C1A15",
">  c #2D1C19",
",  c #251A17",
"<  c #331611",
"1  c #3C1612",
"2  c #341A15",
"3  c #3C1B15",
"4  c #331E1A",
"5  c #3B1E1A",
"6  c #350A06",
"7  c #2E211E",
"8  c #35221D",
"9  c #3C221D",
"0  c #3B2219",
"q  c #332421",
"w  c #3C2621",
"e  c #3D2A24",
"r  c #3E2C29",
"t  c #352924",
"y  c #3F312C",
"u  c #46130D",
"i  c #431613",
"p  c #431B15",
"a  c #4A1C15",
"s  c #431D1A",
"d  c #4B1D1A",
"f  c #491613",
"g  c #521E1B",
"h  c #591E18",
"j  c #400D09",
"k  c #44231C",
"l  c #4B231D",
"z  c #48251B",
"x  c #53231C",
"c  c #5A241D",
"v  c #54271C",
"b  c #64251B",
"n  c #432621",
"m  c #4C2521",
"M  c #442A24",
"N  c #4B2B24",
"B  c #442D29",
"V  c #4B2D29",
"C  c #542522",
"Z  c #5A2623",
"A  c #542B24",
"S  c #5C2B24",
"D  c #532D2A",
"F  c #5B2D2A",
"G  c #45322D",
"H  c #4D322C",
"J  c #4A3227",
"K  c #543027",
"L  c #5C3125",
"P  c #53332C",
"I  c #5B332D",
"U  c #5D382D",
"Y  c #57392F",
"T  c #4C3531",
"R  c #4D3934",
"E  c #4F3C38",
"W  c #543531",
"Q  c #5B3532",
"!  c #543B35",
"~  c #5C3B34",
"^  c #553E39",
"/  c #5B3E39",
"(  c #632C24",
")  c #6A2D24",
"_  c #622E2A",
"`  c #6A2F29",
"'  c #643425",
"]  c #64332D",
"[  c #6B332D",
"{  c #63392D",
"}  c #6C3C2D",
"|  c #6D3127",
" . c #72362C",
".. c #75392D",
"X. c #723127",
"o. c #633532",
"O. c #6B3632",
"+. c #633B34",
"@. c #6C3B35",
"#. c #643E39",
"$. c #6C3D39",
"%. c #743B34",
"&. c #793C33",
"*. c #733E3A",
"=. c #743A36",
"-. c #55413B",
";. c #5C423C",
":. c #5B4339",
">. c #654136",
",. c #64433C",
"<. c #6C433C",
"1. c #6A473B",
"2. c #734235",
"3. c #7D4235",
"4. c #74433C",
"5. c #7C433C",
"6. c #74493D",
"7. c #7C493D",
"8. c #5C4640",
"9. c #5E4B43",
"0. c #634642",
"q. c #6B4642",
"w. c #654A44",
"e. c #6C4B44",
"r. c #664D48",
"t. c #6A4E49",
"y. c #744642",
"u. c #7B4542",
"i. c #744B43",
"p. c #7C4B44",
"a. c #744D4A",
"s. c #7C4D49",
"d. c #6C5147",
"f. c #6D524C",
"g. c #67534B",
"h. c #7B5146",
"j. c #73534C",
"k. c #7C524B",
"l. c #755448",
"z. c #6D5952",
"x. c #745651",
"c. c #7B5651",
"v. c #755B53",
"b. c #7C5B54",
"n. c #7B5E59",
"m. c #7C635A",
"M. c #7B6257",
"N. c #82453C",
"B. c #84483C",
"V. c #814741",
"C. c #834B44",
"Z. c #8A4E44",
"A. c #824D49",
"S. c #8A4E4A",
"D. c #845345",
"F. c #8B5246",
"G. c #84534C",
"H. c #8C544C",
"J. c #8C594D",
"K. c #86584B",
"L. c #935A4E",
"P. c #91544B",
"I. c #855551",
"U. c #8C5651",
"Y. c #845C54",
"T. c #8B5B54",
"R. c #815D59",
"E. c #8D5D5A",
"W. c #915652",
"Q. c #935B54",
"!. c #995F57",
"~. c #846156",
"^. c #84635B",
"/. c #8B645C",
"(. c #8A695E",
"). c #89665A",
"_. c #93635C",
"`. c #97655C",
"'. c #A2675F",
"]. c #856A62",
"[. c #8C6B63",
"{. c #896863",
"}. c #936562",
"|. c #936C64",
" X c #9C6B64",
".X c #9B6865",
"XX c #8D7166",
"oX c #8D756D",
"OX c #95736A",
"+X c #9B746C",
"@X c #9B796E",
"#X c #977267",
"$X c #9C7B73",
"%X c #9B7771",
"&X c #A26C64",
"*X c #A3746D",
"=X c #A57A6E",
"-X c #AB7B6D",
";X c #A77569",
":X c #A47C73",
">X c #AB7D74",
",X c #A57B76",
"<X c #B37D73",
"1X c #B47F79",
"2X c #B47D6F",
"3X c #9D8176",
"4X c #AD8375",
"5X c #AC837B",
"6X c #A6837A",
"7X c #B38274",
"8X c #B3847C",
"9X c #BB857B",
"0X c #BB8A7C",
"qX c #B6867A",
"wX c #C08A7C",
"eX c #AD8B82",
"rX c #AD8581",
"tX c #B58682",
"yX c #B38B83",
"uX c #BB8C84",
"iX c #BB8A86",
"pX c #BD9084",
"aX c #BC948A",
"sX c #B4948A",
"dX c #BC9893",
"fX c #C38C86",
"gX c #C5948C",
"hX c #C29489",
"jX c #CB9C94",
"kX c #C79894",
"lX c #CAA398",
"zX c #D2A39B",
"xX c #DDB3AB",
"cX c #D2A9A3",
"vX c #E5B8B5",
/* pixels */
"> X 7 , > q t q t r e 8 -.R T ^ 8.! r.;.e.w.j.t.r.M.;.g.w.t.c.e.j.e.l.f.f.W ].;.w.f.w.0.0.;./ / / H ^ -.8 B e e 8 7 q q 7 , , , ",
"- + o X   . . . $ ; - $ G e 8 8 e 9 V M D V W V H f.9 4 n s s s k 3 k 1 3 3 j.H P W V V V V N n M 9 H G $ ; $ $ o . . o . X X . ",
"- + o X .   @ @ $ $ $ ; R G w 4 n n D D Q I ~ Q ~ ^.n * k p 6 d i p s 6 1 N ^.,.~ Q Q D Q ~ Q D M w G G $ $   . - o . o . X . o ",
"- X o . : $ : : > > 8 9 -.^ T B M H V D ~ ~ #.#./ n.H 5 N D d A l A D l N ~ R.,./ Q ,.W ~ ~ ~ D H B W ! 2 : $ > > : - - - O O O ",
"q 7 t e R r G T R R -.^ f.r.r.0.v.m.g.x.M.n.^.].m.oXM.v.v.XX[.n.^.n.^.n.M.m.oXm.M.v.oXv.x.x.v.j.e.;.0.w.! ^ T 8.G G y y r t t t ",
"- - : 8 G 4 t 9 w 9 B n H M V B ;.f.H W ~ Q / ;.;./ ;.0.~ n.R.~ q.+.+.>./ ~ ;.:.~ W M./ P V W V W V N H w B M -.q 8 4 7 > , - - ",
"; > : 8 R 4 8 w w 9 M n M k N n e.n.I +.$.O.O.$.<.#.<.y.$.}.}.@.u.=.@.$.$.$.$.<.<.+.|.<.Q F O.I P N M N 9 n n 8.w 8 4 4 4 : - - ",
": 8 > w E 8 w M V M H H W P ~ P e./.Q <.y.*.*.y.i.y.y.y.y.*X.Xy.p.u.u.p.p.k.i.p.a.<.+Xi.$.+.4.+.~ W Y P M N M t.B w 8 q q 4 > 4 ",
"G w -.R ^ :.-.;.t.w.f.w.[.j.c.n.m.M.{.).%X|.|.|.OXsXm.{.[.OX(.(.).Y./.).:XOXsX@X(.OX(.XXXX^.~.^.^.M.~.M.e.d.,.w.^ ! ! ! T r r G ",
"8 ; e 8 e n n B N N V V b.,.+.~ :.:.,.+.y.$.$.<.<.6XP 0 k k p p a a a p v A +Xe.e.l.e.d.a.1.1.1.>.P 1.d.k V V n M w 9 w 9 : 4 w ",
"B 8 M 8 n 9 n V V P P I {.k.#.+.<.<.i.4.C.*.5.p.@.pX] a x d g Z c ( h h u x >X4.6.4.y.4.i.y.4.+.<.A i.~.k V Y k V n 9 9 4 2 4 w ",
"G e B n H B H W P ~ ~ +.{.k.$.<.i.k.p.A.U.S.S.H.V.8X*.@.*.@.S [ h ) ) ( ( =.1XU.K.s.U.s.I.T.A.4.p.+.c./.I ~ #./ W H V M n 9 w M ",
"^ ! ^ :.j.,.,.f.c./.).Y.%X|.).|.$X@X~._.&X X&X X*X8X*X:X:XkX:X X;X<X-X`. X X*X`.+X#XaX+X|.#X|./.).Y.~./.j.j.j.[.e.w.,.;./ ! ! ! ",
"0 9 9 H w.H P ~ Y #.+.o.$.+.+.y.^.v.N K ] ] O.] Z x { U A :XY.S S ( ( x ] ] A { A I +X>.z z k v p z 1 1 p p 1 a.V N M M n n 9 9 ",
"4 9 0 H f.H P ~ ~ ~ +.+.+.$.4.<.|.~.v S _ [  .` O.] $.{ Z *XI.x [ | ( ( ( c Z Z Z L ,X$.a a a l a l p p k z z ^.N N n k n n 9 5 ",
"w B n ^ b.W Y / ,.~ +.y.<.k.k.<.|.(.L 4.5.5.u.=.u.4.4.s.4.*X`.O.&.&.[ 5.[ ' 6.] O.] 8X4.S ] S C x C A A z z K [.~ Y P V V V M n ",
"w.;.f.n.v.n.c.n.R./.[./.6XOX/.~.#X|.|.*XqX8X8X*X*XkXyXrX,X8X&X<X7X<X<X`.&X XgX*X:X*XtX5X:X4X+X8X*X%X+X:Xn.[.^.$X^.c.a.j.x.t.8.;.",
"H V H H H W Q Q ~ q.<.<.@Xq.k l p k i a x x x d C rXa.Q I O.[ } ' ( _ ( ] $.tXi.p.i.i.p.p.p.p.u.s.y.c.{.H W H P P N m A V M M B ",
"! ! W P Q ~ #.o.o.y.$.$.5X$.6 p a C d x c h Z ( d gXy.F _ _  .| ..) ) ..( *.gX4.p.p.y.C.A.C.H.u.y.] I.OXP +.+.D F D D F D N V ! ",
"! W W Q 0.~ #.$.y.s.i.y.yXs.A +.l +.v S ( S ] O.o.tXa.y.s.p.5.3.3...&.7.*.p.fXA.G.s.T.G.A.A.H.p.T.y.).OX#.,.,.+.+.~ o.Q D N V H ",
"9.8.9.v.oXf.x.n.).).[.).5XXX(.(.eXlX@X:X=X=X>X6X,XdX6XeXrXlXpX-X-X;X>X-X=X:XuX5XrX6XxXaX:X,X=X:X:XOX@X3XXXXX].%Xc.x.x.j.g.w.;.;.",
": : 2 T j.5 k N m k A A K K I z R.OXI { { @.2.4.q.#.,.#.I :X).' @.} 2.{ O.] C +.<.+.yXI.$.4.+.2.$.<.,.,.f.e.,.{.N z n n n 9 4 : ",
"3 3 3 W c.s l C C C S ] Z ] _ x T.*X_ [ %.&.5.5.*.o.*.] S <X!.) )  .) [ %.=.O.5.[ [ 8XW.*.*.N.5.u.C.u.$.i.+.+.}.C g g d m m s 3 ",
"s N n Q R.C F Z ] O._ *.] *.[ o./.8X$.7.B.Z.B.V.C.u.p.u.*.9X'.&.N.Z.&.N.N.5.C.4.u.p.iX.XC.V.W.N.C.C.A.4.y.<.p.,XF F Z C C m m k ",
"z.-.;.f.f.x.n./.[.[.[.|.yX:X#X+X$X%X6X=X-X;X;X7X5XcXkXyX5XaXuX0X0X7XuX7X>X*XzX5XyXaXpXqX4X4X4XpXpXyX5XeX{.@X{.$X[.~.Y.b.x.f.f.v.",
"G 2 4 n k k k z p z p z #Xk.{ ~ / ~ U U ' ' ' } +.6Xk.<.y.<.2.2.2.} 2.2.@.2.pXh.p.k.k.i.i.h.6.h.G.a.).$Xe.j.,.,.1.,.#.#.~ P ! :.",
"P 5 1 s l p d i f c a u <XQ.[ $.+.+.] } ....X. .` fXu.@.p.[ %.&.&.....3.&.C.zXA.H.C.G.C.H.Q.Z.C.W.*.T.*X$.a.k.<.$.@.@.@.o.F I +.",
"Q m k m I A ] S S =.( h &XH.=.u.4.s.4.C.F.F.N.N.&.iXA.u.A.C.H.C.B.B.N.N.N.H.fXH.Q.H.`.H.Q.`.W.Z.H.5.`.>Xp.k.s.4.y.4.4.4.$.O.+.#.",
"f.g.f.n.[.c.).Y.|.*X`._.*X*X X=X5XaX@X7X0XwX2X7X<XgXtX,X>XjXzX0XwXwX0X7X9XuXjXpX8X>XjX8X>X>X=X;X=X*X,X5X+XOX[.:X(.E.Y.Y.Y.b.j.j.",
"0 9 M ;.x.N P A A C x S x ] ] C R.|.+.2.2.7.2.7.7.@.h.<.+.>X=XD.D.D.D.7.K.K.i./._.Y.uX_.D.D.D.K.K.I.i.>.1.1.<.+XA m l l N z k 3 ",
"9 9 k ,.~.m C x Z x c S c [ [ v |.,X$.2.2.N.3.B.C.[ G.i.$.8X>XF.F.F.Z.F.J.F.K.Q.T.K.uX_.C.C.C.C.5.A.s.6.k.6.<.OXS Z C C A N z k ",
"H M m q.|.D o.] ] ] @.] O.O.%.] |.yXi.D.C.F.N.Z.G.6.I.p.6.0X7XJ.L.L.Z.!.J.F.`.U._.U.gX`.U.H.H.H.G.A.s.6.a.y.h.:X] o.] F A A N k ",
"].f.b.^.b.{.|.|.:X|.+X XkX8X,X+XyX6XqX7X>X<XqXuXkXvXyX6XuXhXfX7X9X-X0X7XqX8XxX8X8XpX8XuXuX<X<X>X5X6X:X5X(.@XY.|._.}.Y.s.c.e.;.n.",
";.V N P D Q +.+.+.#.<.<.:X).y.<.y.<.7.7.2.5.p.G.k.aXs.<.p.2.3.2.7.2.7.2.2.7.pXp.p.G.p.s.s.6.4.2.+.>.R.OXY I A D A F C d m k 5 / ",
"0.V N D D I o.o.o.4.$.$.8X`.6.i.4.4.4.7.5.5.C.A.A.jXI.u.G.%.5.3.&.2.%.2.[ 7.jX4.A.C.p.6.C.V.N.5.p.$.).|.p k A A d g g i s s s / ",
"0.W P ~ q.o.<.<.4.p.y.y.*X_.G.K.i.k.6.C.B.C.A.A.s.tXE.s.G.C.C.3.7.D.D.K.G.T.hXs.G.p.T.A.A.A.C.A.K.4.(.@X+.~ I F F F F C C N n ! ",
"z.z.v.].%Xv.^.^.[./.[.[.@XOX+X#XeXaX=X4X4X8X8X8XyXdXdXeX5XzXpX;X-X7XqX4XyXpXaX6X6X:XzX8X:X>X=X=X:X@X3XeX3X$XOXeX{.~.~.b.n.v.g.z.",
"B G W 0.x.M P D I A U +.U U >.I R.|.1.i.7.p.7.h.Y.a./.c.s.8X_.} } } } L $.@.A { +.+.*Xi.] ] S L L P z z J N K [.,.~ +.~ ~ ~ H G ",
"N D I q.R.m F A S F _ ] ] [ ] ] `.>X6.Z.C.F.C.S.H.A.I.p.A.<XQ. .3.3.&...=.[ [ %.O.[ <XC.[ [ ( ` S ] ] S Q A F .X$.o.@.o.I o.D V ",
"W Q Q q.{.D o.] ] *.O.O.6.6.@.6.+XtXA.L.J.L.H.W.W..XE.I._.9X&XB.B.Z.N.F.5.%.C.*.*.@.fXH.5.N.&.5.6.@.o.F I A <.:Xp.$.y.@.Q Q I P ",
"g.9.9.r.x.v.e.b.).b.b.~.5X6X:X%X6XeXyX4X4X-X7X=X5XxX,X:XyXgX7X4X-X;X7X&X>X*XzXyX6XyX5X,X:X=X=XqX:X+X$X6X^.].m.(.^.R.b.c.l.w.w.g.",
"G > : 8 0 9 9 k z z k p ).i.>.1.,.e.1.6.6.2.6.2.i.yXI A I L v v ' c S S S { 5X6.<.y.y.<.<.@.] @.<.+.k.[.H ! P J V N N M k 0 9 B ",
"W < < k 1 = d i u x a j  Xs.O.4.#.q.$.4.5.&.5.N.5.gXo.Z _ ( _  .) b b | c =.jX5.p.u.A.u.C.C.5.5.=._ G.:Xz D A p m l l l l k m P ",
"~ n k V P l A C x _ Z x  XH.*.u.y.k.$.p.C.N.B.Z.Z.iXA.*.@.*.O. ...X...&.` 5.fX5.A.u.U.u.C.C.C.C.S.*.U.+XA I ~ I I F F A m m V W ",
"g.f.w.f.OXf.e.c.Y.Y.I.(.*X*X_.(.6XdX+X4X7X-X2X7X>XpXyXtX@XjXuX=X7X<XwX9X8X0XjX8XiX5XzX8X>X>X=X*X>X X*X@X[.{.XX3Xx.j.l.e.w.,.0.g.",
"; w : e f.9 < k 1 = = l = p i = l.[.+.6.2.2.2.2.2.] a.a.+.5X+XK.J.L.`.L.`.T.s.Y.I.k.5XY.h.i.6.2.p.4.y.+.d.,.,.(.M k s 3 < * < 2 ",
"% : % n f.< 1 1 d i a v u a d = k.$X<.6.5.5.3.3.7.*.y.4.o.>X Xp.H.P.F.J.Q.G.p.G.A.p.8XT.p.p.7.2.6.u.4.+.<./ :.{.N k 3 1 1 * * < ",
"8 : 4 W j.3 A k C l S C Z x Z d b.rXy.A.p.C.C.7.p.G.6.u.y.8X*XH.L.!.C.Q.!.H.Q.G.U.s.iXU.A.G.G.p.p.p.p.i.+.,.e.$XP A l k s 5 3 2 ",
"9.G ;.;.w.t.a.e.c.i.~.Y.:X|.|.|.:X,X:X X+X*X*X>X*XaX,XpXiXpXgX8X9X7X7X<XfX>XjX:X>XyX:X6X5X4X5X,X#X+X%X+XR./.R.XXb.x.j.t.0./ ;.0.",
"8   : $ % * < * 3 3 k s b.q.Y +.I +.o.F I +.+.<.<.,XT.p.A.T.T.U.J.C.H.H.U.U.8Xk.s.K.i.s.K.k.k.p.Y.a.Y.b.N N N n V V M M n 5 n M ",
"B $ 2 % 2 < 3 3 1 3 3 1 ^.j.P +.I @.@.@.$.*.@.*.$.tXQ.4.C.A.u.U.H.N.W.H.A.Q.iXG.G.s.s.s.G.G.A.p.k.+.R.[.D W / V V N M M n n n V ",
"8 $ : : 9 2 k n n m N N R.c.#.<.+.4.$.i.s.G.i.6.4.*XT.G.T.I.p.U.`.L.`.!.Q._.tXE.E.k./.I.I.I.G.k.j.,.^.OX~ ~ ! W H V M M n w w n ",
"-.R ! ;.f.0.e.t.j.e.b.b.{.{.^.^.%X$X~.OX+X:X+XOX|.:X@X:X:XsXrX@X*X+X X`.@XOX:X+X+X[.yXOX(.[.).(.R.R.{.[.j.t.q.^.x.f.t.r.w.8.;.;.",
"t w w G ;.M V V V k Q Q D Y Q P l.e.1 z k N l l k l l m z b.c.l L L v v +.A N I Q P (.~ z N z l 3 k 3 3 5 5 5 x.P V M M M 9 5 4 ",
"8 w 8 G ;.9 n M V V W P H W H P I.G.i C a d d d Z C Z Z Z _.E.Z | ( ( _ ] ] F _ F Z .XF i x a p l n 2 2 5 5 2 f.T V B B B e 9 8 ",
"> 8 8 G 8.9 n N V W H N ~ ;.N ~ a.k.z o.C F _ ] ] S F o.@._.I.] O.( =.*._ $.@.F o.o.>X+.x ] Z l m n k V M M n f.T B B B B e 8 4 ",
"y e G R R T W ! / 0.t.;.XXx.x.m.m.m.n.^.].{.OXOX[.$X[.{.^.OXOX[.|._.|.~.+X[.$X^.m.].).m.j.j.b.d.j.w.f.].0.t.^ ;.! ! R T B e e B ",
": - $ > 4 2 4 9 3 5 9 2 0.H M N M J 9 M M M Y Y P ~.Q P P H Y W U L U K ~ ~ ^.k 0 3 < 2 * * * & < % H t.< 4 2 4 ; ; ; ; $ @ $ ; ",
"> - $ ; : ; 2 5 9 9 9 5 w.! B n k N k m m l A C F *Xo.A o.m A I ] S ] ] F +.+Xi m 1 p s s p p p * # W f.; 2 2 ; @ @ @ @ @ . $ - ",
", - $ : > : 2 4 5 5 9 5 ;.! H N V P D Q Q F o.F o..X$.F +.o.Q +.$.] $.$.F $.}.d l 1 l p p p p 3 k < B ;.4 4 ; ; 4 : ; - - $ - : ",
"t 7 8 r G r M B T ! ! ! f.r.w.0.z.x.d.f.l.e.j.j.j.^.b.j.f.[.m.j.Y.i.~.j.j.n.^.e.j.f.].w.,.w.e.,.8.;.^ ^ ^ ! B 8.G B r e t q q t ",
"o . o : 8 : ; 2 ; 2 2 2 9 w w e -.T 0 0 0 0 N m m 3 V M 3 d.;.z K z I N P P n P H H t.9 < < < & ; 4 ; # ; % # R 4 : - - - o . . ",
"o X o : > : ; ; 2 9 9 9 9 w w w :.H 4 < 3 s m d l p k n 3 e.w.k K l A A P P N P H V f.k 3 * * * % : ; # ; $ - E : - - - - o . . ",
". X o - : ; $ % % 2 2 2 2 9 5 4 ! N < 1 s s l i i l 1 s 3 / ,.s A x z K N m P k N 5 0.k 3 * & * < # % % % $ - e : - - - - o .   "
};
