/* XPM */
static char *b643c56cee7841739fa1784ae55d023biwlfxoL4CB36ebAD[] = {
/* columns rows colors chars-per-pixel */
"64 64 218 2 ",
"   c #010500",
".  c #050B00",
"X  c #090E01",
"o  c #0C1302",
"O  c #0A1403",
"+  c #131B05",
"@  c #1B1805",
"#  c #191F0A",
"$  c #162205",
"%  c #142A04",
"&  c #1A2B05",
"*  c #1A2509",
"=  c #1C2A09",
"-  c #1D3206",
";  c #1E3108",
":  c #272608",
">  c #222E0B",
",  c #2C2A0D",
"<  c #352A06",
"1  c #23330B",
"2  c #27380D",
"3  c #2A3B0E",
"4  c #3C320C",
"5  c #312E12",
"6  c #3B2F10",
"7  c #273310",
"8  c #2C3E10",
"9  c #343213",
"0  c #3B3415",
"q  c #333F16",
"w  c #463B16",
"e  c #44371A",
"r  c #433A1A",
"t  c #4A3D1D",
"y  c #2D440A",
"u  c #324B0A",
"i  c #2E4111",
"p  c #314512",
"a  c #354B15",
"s  c #384E17",
"d  c #364718",
"f  c #3A4F19",
"g  c #3A5017",
"h  c #3D541A",
"j  c #4A411E",
"k  c #4D4D1D",
"l  c #524113",
"z  c #53441C",
"x  c #55491D",
"c  c #425819",
"v  c #445B1D",
"b  c #4B671B",
"n  c #48621C",
"m  c #667E19",
"M  c #4D4320",
"N  c #4D4B2C",
"B  c #524522",
"V  c #554923",
"C  c #5A4C26",
"Z  c #5B4D28",
"A  c #405323",
"S  c #475D20",
"D  c #495F25",
"F  c #585526",
"G  c #5E512A",
"H  c #645425",
"J  c #63542C",
"K  c #6C5A2B",
"L  c #685730",
"P  c #665930",
"I  c #6B5C33",
"U  c #715F36",
"Y  c #4C6322",
"T  c #4D622D",
"R  c #526B26",
"E  c #556B28",
"W  c #566E29",
"Q  c #5C7526",
"!  c #5B732C",
"~  c #586E30",
"^  c #5F7830",
"/  c #69672B",
"(  c #627A2B",
")  c #6E6334",
"_  c #6D6A33",
"`  c #716134",
"'  c #776A36",
"]  c #746439",
"[  c #7A6A3C",
"{  c #687334",
"}  c #637C32",
"|  c #7B753A",
" . c #7D7140",
".. c #806B31",
"X. c #816E3F",
"o. c #80703F",
"O. c #816F42",
"+. c #847442",
"@. c #837B44",
"#. c #8A7B44",
"$. c #887947",
"%. c #8D7C4A",
"&. c #779A0A",
"*. c #72891C",
"=. c #7A991F",
"-. c #7FA117",
";. c #698528",
":. c #6A8429",
">. c #738C28",
",. c #729321",
"<. c #7F9E2C",
"1. c #678035",
"2. c #6A8236",
"3. c #6E8935",
"4. c #6E8639",
"5. c #748332",
"6. c #728C35",
"7. c #70873A",
"8. c #748B3C",
"9. c #788F3E",
"0. c #7B9435",
"q. c #76913B",
"w. c #7A913E",
"e. c #7D9341",
"r. c #7F9840",
"t. c #83A601",
"y. c #84AE01",
"u. c #8BAD01",
"i. c #8BAE0E",
"p. c #85B300",
"a. c #8CB400",
"s. c #86BC00",
"d. c #8DBC01",
"f. c #85B208",
"g. c #8DB20B",
"h. c #8DBB0B",
"j. c #92B501",
"k. c #92BD01",
"l. c #94BA08",
"z. c #93BD0A",
"x. c #85A816",
"c. c #8BAC14",
"v. c #8DAE1A",
"b. c #87B112",
"n. c #8FBB13",
"m. c #93BD12",
"M. c #93B61B",
"N. c #94BC1E",
"B. c #86982B",
"V. c #879835",
"C. c #909B3E",
"Z. c #88A928",
"A. c #90AC2C",
"S. c #8DB02C",
"D. c #93B421",
"F. c #99BD23",
"G. c #93B929",
"H. c #88A435",
"J. c #88A23F",
"K. c #97AF3C",
"L. c #94B532",
"P. c #8FC300",
"I. c #92C401",
"U. c #9BC401",
"Y. c #96C901",
"T. c #99CA01",
"R. c #9BCB01",
"E. c #9BCD01",
"W. c #9DCE01",
"Q. c #93C20B",
"!. c #9ED001",
"~. c #99C617",
"^. c #9CC416",
"/. c #A1C601",
"(. c #A2CE01",
"). c #A9CE02",
"_. c #A4CF0B",
"`. c #A4D201",
"'. c #ABD401",
"]. c #ABD902",
"[. c #B2D601",
"{. c #B3DB01",
"}. c #BADE01",
"|. c #9DC72A",
" X c #9FC23B",
".X c #A2C924",
"XX c #A3C739",
"oX c #C5E702",
"OX c #8A8547",
"+X c #819644",
"@X c #849946",
"#X c #8B9C40",
"$X c #879B48",
"%X c #8A9E4A",
"&X c #989A49",
"*X c #8F8555",
"=X c #9C9854",
"-X c #A99D5C",
";X c #89A541",
":X c #89A348",
">X c #8CA24C",
",X c #91AC44",
"<X c #97A54A",
"1X c #99B64B",
"2X c #8DA850",
"3X c #97B151",
"4X c #9DB751",
"5X c #A6B644",
"6X c #A7A75B",
"7X c #A8B458",
"8X c #A1BB5B",
"9X c #AAA764",
"0X c #B5B369",
"qX c #A3C348",
"wX c #B1CD40",
"eX c #B0D157",
"rX c #ABC664",
"tX c #CFE882",
/* pixels */
"k.I.P.W.U.d.P.Y.I.Y.Y.P.`.T.T.I.T.Y.Y.(.P.P.P.P.P.P.P.P.I.Y.Y.E.W.).d.I.P.P.P.P.P.P.Y.Y.I.Y.Y.E.k.Y.T.'.a.P.d.Y.Y.I.P.P.I.Y.Y.Y.",
"I.P.Y.E.a.P.P.P.I.I.Y.Y.T.Y.T.I.Y.T.I.Y.P.P.P.P.P.P.P.P.I.I.Y.U.k.d.d.I.P.P.P.P.P.P.I.Y.I.I.Y.E.I.Y.Y./.T.'.}.p.I.P.P.P.P.I.P.P.",
"I.P.Y.T.T.E.E.P.P.P.Y.I.Y.Y.Y.P.T.I.P.P.P.P.Y.P.P.P.P.I.T.Y.I.T.'.T.d.P.I.P.P.P.P.P.P.I.Y.P.I.I.I.Y.W.I.T.I.W.].a.P.P.P.P.P.P.P.",
"I.P.Y.Y.Y.I.a.d.P.P.P.P.I.Y.I.I.I.I.P.P.P.P.W.d.`.I.P.P.P.P.P.I.d.P.Y.[.d.Y.(.P.P.P.P.P.I.I.P.P.I.Y.P.Y.Y.Y.Y.T.d.P.P.P.P.P.P.P.",
"I.P.Y.Y.Y.Y.Y.P.P.P.P.P.P.I.I.P.P.I.P.I.P.Y.d.(.Y.T.P.P.P.P.P.P.P.P.!.d.Y.`.t.P.P.P.P.P.I.Y.T.P.I.P.P.Y.Y.Y.W.d.I.P.P.P.P.P.P.P.",
"d.I.I.Y.Y.I.(.I.P.P.P.P.P.d.d.P.I.P.I.Y.d.T.T.Y.Y.U.P.P.P.P.P.P.P.I.Y.I.W.a.`.(.Y.P.I.P.P.T.I.P.P.P.P.I.Y.Y.d.P.P.P.P.P.P.P.P.P.",
"d.d.P.P.d.!.U.d.P.P.P.d.a.a.a.a.d.Y.Y.I.Y.Y.Y.'.d.d.k.P.P.P.P.P.P.I.Y.T.Y.T.Y.T.U.P.eXP.|.rXXXP.~.P.P.P.P.P.I.I.P.P.P.(.d.U.P.'.",
"Y.'.k.a.d.P.a.I.P.P.P.P.P.P.I.d.k.I.I.I.I.Y.`.U.d..XQ.I.P.I.I.P.P.I.Y.Y.I.d.c.L.Z.qX;.w.0.<.~.rXP.P.P.P.P.d.k.P.P.P.T.U.`.a.W.d.",
"T.U.U.d.I.P.P.P.P.P.I.P.P.I.P.P.P.P.Y.Y.Y.I.Y.I._.V.w.S.;X2X8X,.y.d.P.L.>X;.;.c 3.8.e.8.7.$X>.h.h.a.a.a.a.a.a.a.I.I.Y.Y.I.E.U.T.",
"I.k.I.d.a.a.a.a.a.a.d.Y.Y.Y.Y.I.P.d.I.I.E.'.d.Y.4X4.9.3.w.8.8.8.6.;X;.8.9.9.9.+Xe.e.e.e.9.+X@Xw.y.d.y.a.a.a.a.P.I.I.d.I.I.I.I.I.",
"P.Y.k.P.d.a.a.a.d.P.I.P.Y.T.I.J.b.P.tXP.P.P.Y.2XQ 9.e.+Xw.+X+X9.8.9.4.9.e.@X@X@X@X@X@X@Xe.e.+X@X;.J.I.d.P.P.Y.d.P.I.`.d.(.d.P.P.",
"T.(.d.P.P.P.P.I.I.I.I.Y.I.T.(.T.,X8Xw.@Xq.q.8.8.e.+X+X+X@X@X@X$Xe.9.e.e.@X@X@X@X@X@X@X@X@Xe.e.+X@Xw.e.Y.d.P.`.k.P.T.I.Y.(.d.P.Y.",
"k.d.I.I.P.P.I.T.I.E.Y.Y.E.I.k.m.0.e.e.9.8.9.9.@Xe.e.@X+X@X@X@X@X@X@Xe.e.@X@X@X@X@X@X@X@X@X+X+X@X@X+Xw.6.U.P.Y.U.Y.Y.Y.'.a.Y.Y.I.",
"T.I.T.Y.Y.I.I.Y.Y.d.E.Y.Y.(.|.>.e.e.9.+X9.8.4.e.e.@Xe.+X@X@X@X@X@X@X+X@X$X@X@X@X@X@X@X@X@X@X@X@X@X@X+X8.q.d.Y.I.E.Y.T.d.I.P.I.T.",
"P.Y.Y.`.Y.I.I.Y.E.d.U.T.I.n.;.e.e.e.e.9.9.} } ! 9.+Xw.e.@X@X@X@X@X+Xe.8.4.e.@Xe.@X@X@X@X@X@X@X@X@X@X@Xe.} 3.Y.I.P.I.T.`.d.P.P.P.",
"P.W.Y.W.T.Y.U.Y.W.d.F.3X:X0.e.w.8.8.9.9.4.! ! ! W ^ 2.8.9.@X+X@Xe.4.8.} 8.e.7.e.w.e.e.+X@X@X@X@X@X@X@X$Xe.b ,X1Xz.I.I.P.P.P.P.P.",
"d.W.W.I.T.k.I.T.`.d.XX4.+X@X+X@Xw.@X$X} ^ ! W ! ! } 1.1.2.8.8.8.4.9.} @X@X} 7.2.2.9.8.e.@X@X@X@X@X@X@Xe.@X! 8.J.i.a.a.a.d.P.P.P.",
"P.d.(.Y.`.a.d.[.k.F.0.w.} 9.e.%X8.%X} 2.} ! E Y W e.4.^ 2.2.4.2.e.e.@Xw.e.} } } } } w.8.9.$X@X@X@X@X@X+X8.} h 2.<.g.a.a.k.I.P.P.",
"P.d.a.k.a.I.P.a.d.I.rX;X! } ! 8.} 2.} } ! ! Y Y 8.$X9.2.4.2.4.9.@X+X9.} 7.W ! W W } 1.9.%X7.+X@X@X@X@X+X8.} W g ~.qXI.Y.T.T.T.P.",
"T.I.I.I.P.P.P.P.I.d.I.eXn ! } ! } } } } ! ! Y g } @X@X7.7.4.8.8.2.8.} +X>XE W Y c E } ^ ! @Xe.e.@X@X@X+X8.! W ! I.Y.Y.Y.Y.W.U.{.",
"Y.I.T.I.I.T.T.(.a.a.a.a.( W ! ! } } } W W E c i v } } +Xe.8.4.4.2.e.@X>X} Y h a g a Y } >X4.e.@X2.%X2.9.2.} Y ! `.Y.Y.I.I.P.].k.",
"W.I.Y.P.E.Y.W.y.a.a.a.a.@X! W ! ! } W W W Y i p g g c Y E } ! E ! Y E 4.h a a h s a h Y E 8.} >X! 8.2.1.2.W E r.E.T.k.d.E.a.P.(.",
"P.(.E.a.E.Y.Y.`.y.a.@Xb R ! W ! ! E ! } E a i i i g c c Y Y h Y Y Y i p i a i p g v Y s n ! } 2.} 2.2.2.} ! Y ! k.d.a.a.T.Y.a.I.",
"I.P.'.a.a.].U.U.(.:X( 9.9.4.} W W } 2.E a p i 8 h Y v v c c W 4.e.2.Y i 3 2 Y 2.2.! Y } W ! 2.2.2.2.2.} ! E Y u M.a.I.a.(.d.P.P.",
"Y.Y.P.a.a.y.Q.8X0.w.e.4.e.9.w.2.9.1.! R s p i 3 4.1.E } 9.h ! 9.e.c S $ + 1 a 2.8.E Y ! } 2.2.2.2.} ! ! E Y Y Q -.T.Y.E.P.I.P.Y.",
"I.Y.P.P.P.a.4X3.! g Y Y ^ e.@X%X@X} E s a p 3 s +X9.8.4.8.a 1 } e.f X o X = i S E 9.( E ! } } } } W E Y Y E u b W.U.E.I.Y.P.Y.T.",
"(.d.P.P.d.d.L.R a s Y Y E E ! 2.8.a c g p a i D v e.1.$ p 3 > o 2.  o o o $ i 1 W } W E E ! ! ! ! } n Y E u G.G.f.'.I.Y.d.'.Y.U.",
"P.I.P.P.I.(.^.Y a a h h R Y Y v c s a a a 3 3 3 1 W 2 o o 3 o o   o o o o = i 3 1 i h h v Y v } 8.%Xr.Y v 3 ;.I.I.d.U.I.P.P.I.d.",
"I.P.P.P.P.Y.T.D a p p g s g h g g 3 W 4.p S 2 i a   o o o X o o o o + + o X 3 p 3 2 2 p a g v @X$XY @Xa a 3 ! P.P.P.P.k.k.Y.d.P.",
"Y.Y.P.P.P.P.I.2.a i p a g a s a p h 2.v 9.7.3 p 2 o o o o o o o o   B . o o X i i 2 2 2 i a a } h a h s 3 3 ~ I.P.P.U.k.I.P.'.E.",
"Y.Y.I.P.P.I.P.G.- 3 p p i a a i p p Y 8.8 a * + X o o o + + o o X V 5 o o o o X o 3 3 2 3 8 p 3 p p p 8 i 1 Y P.P.d.j.`.P.T.I.Y.",
"I.I.Y.I.I.I.P.P.A p i i 8 p i i 3 2 ! f + o o o o o o o o : * O ( H = o o o o o o + 3 2 3 3 p i p p i 3 2 = $XP.P.P.`.d.'.W.Y.Y.",
"Y.I.I.I.d.d.d.d.,.h 8 i p 3 3 3 3 3 $ * X o + + * = $ o   X.{ d.=.< Q.  o o + # o X 3 3 1 3 3 i p i 3 2 1 & &.P.P.P.a.I.Y.T.T.U.",
"I.I.P.I.d.a.a.a.,Xc p Y i y i 3 2 1 . 2.X o o o o : M q > V < ,X: , B.R @ J # + o o $ i 2 1 1 2 2 2 1 1 3 d T.P.P.P.T.Y.W.d.E.d.",
"P.P.P.I.P.I.I.I.3Xc & y R Z.Q Q ; T m.Y.Q.2.+ o . F ] B r j 0 ) , @.0 ' z X o o o o X 2 3 2 1 1 1 1 1 2 % _.d.P.P.I.P.(.P.T.I.I.",
"P.P.P.P.Y.Y.I.Y.I.%  XS.P.P.I.Y.XXY.Y.Y.P.P.P.f.P.k ] B G r r ] C e J K B.;.  o o o o X . > p 1 1 1 2 & x.d.d.U.T.I.I.I.P.I.P.I.",
"P.P.T.Y.Y.Y.I.Y.I.^.I.T.Y.P.P.P.a.k.Y.I.I.P.P.P.Z.w r M t I J J ] | H *.k.`.M.} # .   o o X + 3 3 1 1 1 m y.I./.U.Y.Y.I.I.P.P.P.",
"P.P.'.Y.I.P.P.`.'.T.I.(.E.W.'.I.P.(.T.P.P.P.d./.5X, B J r e P P ' B ' p.}.'.T.s.W.P.Z.  o o X   3 3 3 y D.k.d.'.W.T.Y.Y.P.P.P.P.",
"P.P.s.'.d.P.'.P.Y.P.P.W.`.I.d.I.I.d.I.d.I.d.(.d.h.K 5 $., j J L +.K B.d.Y.P.P.d.T.Y.I.v.c 7 *.Q.Y 1 ; 3.Y.P.I.P.I.P.U.Y.P.P.P.d.",
"d.Y.`.d.P.I.P.I.P.P.P.P.P.P.P.P.P.I.U.T.k.Y.U.I.D.w J ] M j C $.B OXP.P.P.P.P.I.k.d.W.(.U.a.I.d.P.P.e.U.d.I.Y.I.Y.P.W.P.P.P.I.'.",
"Y.(.t.P.P.P.P.P.P.P.P.P.P.P.P.P.I.Y.Y.Y.Y.T.I.Y.M.x L  .0 r ] , B.a.a.a.d.P.P.P.P.I.U.Y.d.I.Y.I.P.P.U.Y.Y.Y.Y.d.W.P.I.P.P.P.(.P.",
"T.k.`.`.`.P.P.P.P.P.P.P.P.P.P.P.P.P.P.P.Y.I.I.I.[ I t %.9 t x &Xa.a.a.a.d.E.Y.Y.Y.I.I.P.P.d.I.Y.Y.d.).Y.Y.k.W.I.U.`.P.P.P.I.Y.Y.",
"I.I.U.a.y.I.I.P.P.I.P.I.P.T.d.P.I.(.d.'.d.P.P.7X' C B ] M J ) a.a.d.k.I.P.P.T.T.T.E.I.P.d.`.Y.I.P.U.W.I.Y.d.`.P.P.I.P.P.P.I.Y.T.",
"I.Y.d.I.I.I.I.P.P.P.].d.I.Y.U.I.T.Y.!.U.P.P.^.' G [ C J L j v.P.Y.I.P.Y.Y.Y.I.I.W.k.T.P.I.d.P.P.P.I.d.T.P.P.d.I.P.d.d.d.d.P.I.Y.",
"Y.T.Y.(.P.P.P.P.P.I.P.'.d.T.U.Y.T.T.d.P.I.Y.6X] L [ H Z I 4 m.P.Y.Y.I.E.Y.I.W.Y.a.T.a.I.d.W.Y.E.T.Y.I.Y.I.I.P.P.a.a.a.a.P.P.Y.I.",
"I.k.'.'.P.P.P.P.P.P.P.Y.U.Y.Y.I.I.Y.'.d.P.P.*XV B [ t P V B &.I.Y.Y.Y.a.!.Y.P.`.(.a.d.P.d.(.T.U.Y.U.U.T.I.I.P.P.I.P.P.I.P.P.T.Y.",
"W.P.a.a.I.P.P.P.P.P.P.Y.I.I.I.I.I.I.d.I.P.P.OXP O.Z B C J J / d.W.Y.T.P.a.T.W.y.U.I.P.P.I.s.d.'.d.T.U.P.d.d.P.d.I.E.a.I.P.P.U.`.",
"[.d.P.d.a.a.a.a.a.k.P.P.P.I.P.I.I.P.I.Y.P.P.C ' J M ' e I I 4 c.T.Y.T.P.P.d.a.[.Y.'.(.P.I.'.d.P.P.P.I.I.'.a.W.U.Y.Y.(.k.I.I.P.k.",
"d.I.P.a.a.a.a.a.a.I.P.P.P.I.W.Y.Y.P.Y.Y.Y.6XX.B L ] 0 [ L M [ C d.(.a.I.P.P.P.Y.W.I.Y.I.T.T.Y.Y.[.P.P.Y.I.Y.I.Y.I.Y.T.Y.W.P.P.P.",
"P.I.P.P.d.d.d.d.I.d.d.P.k.(.Y.Y.I.Y.Y.Y.^.H J L B t [ I J L 9 C #.OX' =Xh.P.P.P.Y.T.Y.Y.Y.Y.P.(.Y.P.P.Y.Y.I.P.I.I.T.T.Y.k.I.P.P.",
"I.I.P.P.P.P.I.d.a.a.a.a.Y.T.Y.T.T.Y.I.I.Q.e G G ] J Z G G r t %.) [ ] +...b.P.P.`.Y.T.P.Y.Y.Y.Y.P.P.P.I.I.P.P.P.T.d.P.P.P.I.P.P.",
"I.I.P.P.P.T.P.d.I.P.P.P.P.P.a.'.Y.Y.d.Y.u.N.` [ Z r j J C r J B Z j +.I o.C.a.d.P.P.P.I.I.P.Y.I.P.P.P.P.P.d.P.(.I.d.I.I.I.I.P.P.",
"I.I.Y.Y.Y.P.W.oXa.I.I.I.I.d.T.I.Y.h.v.=XH @.L I t M J B G H 9 O.$.[ j V H %.d.y.k.P.d.j.k.a.P.P.P.P.P.P.I.`.a.U.Y.a.Y.Y.].a.P.P.",
"P.I.Y.Y.Y.W.U.p.I.I.d.a.d.I.P.I.9XC +.I +.B [ J F 0 w U [ $.] 0 j x F j w G -X'.T.I.k.'.a.].d.P.P.P.P.P.d.'.T.k.Y.I.Y.E.k.T.I.P.",
"Y.T.Y.Y.Y.Y.W.oXa.u.u.y.u.d.A.n.M.z V [ w I M F P.P.b.{ 6 U @.$.: c.U.a.{ +.B [ &X=X0XW.Y.E.I.P.P.P.P.P.W.).'.T.Y.Y.Y.I.T.E.).d.",
"Y.Y.'.I.I.(.'.p.I.I.I.k.7X+.>.| @ H V 5.L.N , D.I.P.&X&.n.F %.%.` y.k.`.a.| C V _ #X/ V.T.Y.T.P.P.P.P.P.P.T.Y.Y.Y.Y.I.T.Y.T.d.P.",
"Y.Y.P.].(.d.P.I.P.P.P.P.P.d.k.`.F.x.Y.Y.I.I.I.I.I.<XH C l Z B Z z l.P.Y.(.d.U.Y.Y.U.T.B.0XT.I.I.P.P.P.P.I.P.P.k.a.a.P.I.I.I.P.P.",
"P.'.y.P.I.U.d.I.I.P.P.P.P.a.a.y.U.T.I.U.Y.W.k.wX*Xx K.x.H./ P V ) E.`.Y.Y.T.d.Y.Y.I.m.OXQ.Y.P.P.P.P.P.P.P.P.I.d.u.u.d.P.P.P.P.P.",
"'.U.a.P.I.d.d.d.a.j.d.d.I.a.a.a.U.k.E.p./.a.k.d.I.P.P.P.P.I.k.y.T.d.Y.T.Y.Y.Y.Y.Y.P.I.I.I.P.I.P.P.P.P.P.P.P.I.I.I.I.P.P.P.P.P.P.",
"I.y.I.P.P.a.a.a.a.a.a.a.P.d.a.a.a.U.a.a.a.a.d.I.d.P.P.P.P.P.Y.'.W.(.Y.I.U.Y.I.I.I.P.P.P.I.d.I.P.P.P.P.d.d.a.d.P.I.u.y.y.d.P.P.P.",
"P.I.P.P.P.P.P.P.P.P.P.I.I.P.d.a.a.a.a.a.a.d.P.d.d.P.P.P.P.T.d.T.Y.Y.T.I.P.P.P.P.P.P.I.P.s.}.p.P.P.P.d.a.a.a.d.P.P.P.I.P.P.T.U.P.",
"P.P.P.I.P.P.P.P.P.P.P.a.a.I.P.P.P.P.P.I.I.P.P.P.P.P.P.P.P.(.P.P.Y.Y.Y.T.I.P.P.P.P.P.P.T.k.(.k.W.d.P.P.P.P.P.P.P.`.j.Y.).k.`.j.T.",
"P.P.P.P.P.P.P.P.Y.W.P.I.I.P.s.`.P.P.'.d.I.P.P.P.P.P.P.P.I.U.d.P.P.P.P.I.P.P.P.P.P.d.}.W.).T.I.`.a.I.P.d.d.P.P.W.Y.).W.U.T.I.`.a.",
"'.k.I.Y.T.P.Y.`.T.W.[.P.Y.`.'.Y.P.'.I.'.P.P.P.P.P.P.P.I.Y.I.Y.E.(.P.I.I.P.P.P.P.P.Y.Y.'.W.T.Y.T.k.P.'.}.U.I.P.T.I.Y.I.Y.I.Y.T.(."
};
