/* XPM */
static char *_27609109ff0407ae62329fc059b64b3buPFlFvrS8ohDpEE[] = {
/* columns rows colors chars-per-pixel */
"64 64 242 2 ",
"   c #041608",
".  c #0C240C",
"X  c #0B290D",
"o  c #122D0E",
"O  c #0C330D",
"+  c #12320F",
"@  c #143B0F",
"#  c #0C2B12",
"$  c #182E12",
"%  c #0E3313",
"&  c #0F351F",
"*  c #133512",
"=  c #143A13",
"-  c #1B3B12",
";  c #193917",
":  c #243518",
">  c #1C410F",
",  c #1C4415",
"<  c #1E4A15",
"1  c #164318",
"2  c #1D4B1C",
"3  c #25560A",
"4  c #204517",
"5  c #234C15",
"6  c #28471B",
"7  c #234C1A",
"8  c #265517",
"9  c #2B5A15",
"0  c #24531C",
"q  c #2A551B",
"w  c #2D5C1C",
"e  c #325D1C",
"r  c #2F621E",
"t  c #316415",
"y  c #35641B",
"u  c #376819",
"i  c #3B6C1C",
"p  c #3B7215",
"a  c #3E731A",
"s  c #1A4B21",
"d  c #1F5323",
"f  c #284A21",
"g  c #394B25",
"h  c #275823",
"j  c #385826",
"k  c #2B6228",
"l  c #366724",
"z  c #3B7127",
"x  c #43771D",
"c  c #447B1D",
"v  c #49522E",
"b  c #495C2C",
"n  c #48682D",
"m  c #437523",
"M  c #467B24",
"N  c #4B7C24",
"B  c #497B2A",
"V  c #53762C",
"C  c #5A6C37",
"Z  c #587933",
"A  c #65673C",
"S  c #726E3F",
"D  c #647937",
"F  c #707444",
"G  c #807C47",
"H  c #45821B",
"J  c #4B851D",
"K  c #4A8919",
"L  c #508B1C",
"P  c #579A1D",
"I  c #4C8324",
"U  c #4C8627",
"Y  c #548D24",
"T  c #568728",
"R  c #558C2C",
"E  c #5B8A2C",
"W  c #5A9424",
"Q  c #599726",
"!  c #5C9B24",
"~  c #5C952C",
"^  c #588734",
"/  c #5D9732",
"(  c #619C28",
")  c #639C2B",
"_  c #678736",
"`  c #6A8C36",
"'  c #669737",
"]  c #639B33",
"[  c #73983D",
"{  c #5FA226",
"}  c #66A728",
"|  c #6CAC2C",
" . c #70AE2F",
".. c #6CB227",
"X. c #73B52D",
"o. c #74BB2D",
"O. c #7ABC2D",
"+. c #6AA433",
"@. c #6EAB33",
"#. c #6EA43B",
"$. c #72AC33",
"%. c #72A53B",
"&. c #75AB3B",
"*. c #74B333",
"=. c #7AB535",
"-. c #75B934",
";. c #7CBD33",
":. c #76B33C",
">. c #7BB53B",
",. c #7DBB3B",
"<. c #78C22C",
"1. c #7FD02E",
"2. c #7CC333",
"3. c #7EC736",
"4. c #7C8845",
"5. c #7D9546",
"6. c #7BA843",
"7. c #7DB742",
"8. c #83BC3E",
"9. c #83CB2E",
"0. c #84C33C",
"q. c #85C938",
"w. c #8ACC3D",
"e. c #8BD439",
"r. c #91D83A",
"t. c #9AE73C",
"y. c #859947",
"u. c #8B924E",
"i. c #8A8953",
"p. c #948D58",
"a. c #979758",
"s. c #A69B5D",
"d. c #B09E5F",
"f. c #89A749",
"g. c #83BC44",
"h. c #8CB44E",
"j. c #88BA49",
"k. c #8DA451",
"l. c #99A757",
"z. c #97B956",
"x. c #A8A85D",
"c. c #A8B05D",
"v. c #A69C63",
"b. c #9BB062",
"n. c #A9A966",
"m. c #ADAA65",
"M. c #B7A969",
"N. c #A9B767",
"B. c #B5B76C",
"V. c #BBAD70",
"C. c #BCB374",
"Z. c #BFB778",
"A. c #C1AC67",
"S. c #C2AD6D",
"D. c #C8B56B",
"F. c #C2AE72",
"G. c #C4B472",
"H. c #C9B977",
"J. c #D3BC75",
"K. c #D2BE7C",
"L. c #86C342",
"P. c #89C543",
"I. c #8DCC43",
"U. c #8CC34B",
"Y. c #8BC748",
"T. c #91CC44",
"R. c #95CA4B",
"E. c #8DD443",
"W. c #93D343",
"Q. c #99DA46",
"!. c #94D24A",
"~. c #9AD54C",
"^. c #9CDD4C",
"/. c #99C955",
"(. c #9ED853",
"). c #A3DC4E",
"_. c #A4C95A",
"`. c #A4D859",
"'. c #B1DD5F",
"]. c #9AE246",
"[. c #9FF348",
"{. c #A2E449",
"}. c #A9E856",
"|. c #B2ED55",
" X c #B8F75A",
".X c #A8C465",
"XX c #ADDF63",
"oX c #B4DE68",
"OX c #B8C873",
"+X c #B4E864",
"@X c #BEF666",
"#X c #D7C279",
"$X c #DCC37C",
"%X c #C4D077",
"&X c #EBCE6D",
"*X c #E3C676",
"=X c #E6CA76",
"-X c #EACE74",
";X c #E4C77B",
":X c #E6CA7C",
">X c #E9CC7D",
",X c #EDD274",
"<X c #EDD27C",
"1X c #F1D577",
"2X c #F3D97C",
"3X c #C8EF6F",
"4X c #C7F76C",
"5X c #D4FB6A",
"6X c #D8FA78",
"7X c #CCBA82",
"8X c #DBC582",
"9X c #D8C587",
"0X c #D8D48B",
"qX c #E6CB82",
"wX c #EACE83",
"eX c #E1C788",
"rX c #E3CC8C",
"tX c #EACE8A",
"yX c #EDD285",
"uX c #EED48B",
"iX c #F1D784",
"pX c #F3D984",
"aX c #F1D68D",
"sX c #F2D98D",
"dX c #F9DF88",
"fX c #E7CE91",
"gX c #EED592",
"hX c #EFD799",
"jX c #F1D692",
"kX c #F1D792",
"lX c #F3D995",
"zX c #F2D996",
"xX c #F2D79B",
"cX c #F3DA99",
"vX c #F3DA9B",
"bX c #D8F38A",
"nX c #E8FF83",
"mX c #EEFF89",
"MX c #F5FF94",
"NX c #F4DCA2",
"BX c #F4DDA9",
"VX c #F8FFA9",
/* pixels */
"aXuXaXuXuXiXuXaXuXuXuXaXaXaXaXaXaXkXkXkXuXaXaXuXkXaXkXaXaXkXaXuXuXkXaXuXkXuXaXaXaXuXuXaXtXkX2XaXaXkXaXaXkXaXuXaXuXaX2XuXaXaXaXaX",
"kXuXzXdXxXvXvXzXvXvXzXaXkXuXaXaXaXzXsXzXzXvXvXkXkXaXuXuXaXaXaXkXzXzXkXkXaXuXkXaXuXpXaXaXuXkXuXkXkXaXaXaXuXaXuXaXpXkXgXaXgXpXuXaX",
"zXzXkXaXaXqXwX:X:X:XuXvXvXzXkXaXzXvXvXvXzXNXvXzXvXzXzXzXkXvXvXNXuXvXvXvXzXvXsXkXaXaXaXaXaXaXaXaXiXuXuXuXaXuXxXuXaXuXsXkXsXzXzXvX",
"aXaXyXwXqX,XwX:X:X:X:X:XuXvXzXzXzXNXzXkXaXuXkXuXzXzXzXzXuX>X=X;XwX;X:XwXkXzXvXvXzXvXkXkXkXuXxXvXsXvXzXvXvXgXsXsXvXvXzXvXvXvXzXzX",
"wX>X;X,X:XtXyX:XyXuXyXaXuXzXkXzXzXkXkXgXkXaXaXkXkXaXwX:X:X:X>X>X:XwX;X:X:X:XwXgXvXzXvXvXvXvXpXkXkXvXvXzXzXgXvXvXaXkXkXkXuXkXgXyX",
"yXkXaXuXkXuXuXdXvXzXvXkXaXuXaXaXaXtXkXzXaXuXgXuX>X:X:XwXqX=X<XwX:XtXwXwX:XuXwXaXuXaXaXkXuXaXuXaXuXaXaXvXvXzXvXvXzXkXaXuXaXuXaXuX",
"zXkXvXvXzXuXwX:X=X:XwXgXzXvXvXzXzXzXkXuXuX1XwXuXkX>XwX>X:X:X:XqX>XyXwXyXaXuXvXuXyXaXuXuXzXvXaXkXgXuXkXyXvXzXvXzXvXzXvXvXkXzXvXzX",
"vXkXyX:X:X>XwX=XwX=XtX*X:XuXaXuXuXuXkXvXkXuXyXyX:XyXwXuXwXuXuXwXuXuXuXuXaXuXuXaXaXaXaXgXpXkXaXkXgXuXgXaXaXsXkXkXzXvXkXvXvXsXvXvX",
">X:XwX:XtX:X:X:X:XwXqX:XuXwXwXkXaXaXaXhXvXkXzXsXkXuXuXuXuXaXyXNXzXuXkXiXkXuXaXaXuXaXaXzXvXzXkXBXvXvXvXzXkXqXzXaXkXaXkXzXpXkXuXyX",
"wXwX:X>X>X:X:X:X>XwXuXyXuXzXuXuXuXaXkXkXzXvXzXvXkXkXkXaXkXkXkXsXgXiXuXuXuXuXaXuXaXvXvXuXyXuX;X*X>XqXvXvXNXkXvXuXkXuXaXuXyXyXqX<X",
"wX:X>XqXyXuX:XyXvXuXgXuXkXuXzXzXkXzXwXuXwX:XuXyXhXyXpXzXvXvXvXvXgXgXn.uXkXzX9Xn.gXqX=X=XwX:XyX;XqXyXuXyXzXgXgXpXvXxXaXNXzXgXuXyX",
"uXuXuXaXyXuXaXuXkXaXtXvXkXkXuXyX:XtX>XtXyXyX:XqX:X:X;X=XfXwXwXJ.MX8X@X(.vXkX3X+X~..Xl.N.8XuXtX;XqXtXwXuXyXtXsXvXhXdXvXvXaXyXiXaX",
"uXvXuXuXaXkXzXvXvXvXkXuX:XwXwX:XuXyX:XwX:XwX:Xm.7XJ.:XwX=XwXwX_.U.}.~.M.3XrXl.).I.l.U.~.+X$XpXaXyXuXyXiXuXaXuXuXkXaXuXkXiXxXhXwX",
"sXkXvXvXvXvXvXuXyXwXyXwX>XwXwX:XqXqXwXwXN.bX;X6Xs.MXG.;XuXuXwXk.!.).>.L.T.@Xx.Q.W.a.^.I.{.N.yXwXuXaXuXkXuXuXaXyXaXaXkXuXaXaXuXaX",
"vXzXvXuXaXaXwXwXgXyXyXuXuXwX,XtXyX<XuX$X.X@Xl.h._.(.B.3XaXwX/.y.f.!.~.n  Xm.N.W.0.w.=.w.T.8.6X9XkXzXsXvXvXzXkXaXaXaXuXaXsXvXvXvX",
"2XaXaXwXsXaXyXkX2XgXaXwXaXuXuXzXuXgXuXK.mXoXL.j.g.XX~. XG.uXy.}.L.T.I.f.T.a.8.=.~ w. .;.*.T.|.rXzXvXvXuXpXkXgXgXvXNXvXzXsXkXaXaX",
"uXaXuXkXuXuXaXaXuXkXuXaXH.B.C.c.vXuXaXuXkX/.`.U L.Y.8.R.kXuXsXj.'.~.B P.y {.W.8.~ @.2.0 *.W.aXm.sXkXuXaXhXaXuXuXaXaXaXgXyXgXpXuX",
"zXvXvXvXzXzXzXwXzXyXkXqXK.3Xl.`.l.uXuX#XMX0X`.^ ^.!.j.H.aXM.wXK.[ I.Q.R O q.X.X.m e.q q.6.V.L.4XeXuXaXaXaXuXkXaXaXvXvXzXuXaXyXvX",
"kXuXuXwXwXuXwXkXvXvXkXmX}.h.j.~.f.uXaXN.6X`.z.#.&.7.$.P.G.n.g.9Xa.{.g.L.l ) ;.U.T ~ 1 r.i.i.t.6.aXuXaXaXkXuXpXgXaXuXuXaXkXaXvXkX",
":X-X;XtX=X:XqX-X=XwXwXC.5Xj.0.T.T.#XuXkXb././ r h ^.I ].5.}.e.M.5.Y.%.Y.0.< W ) O.= Y } ` e.$.uXuXaXkXkXuXaXkXzXzXpXkXuXkXvXkXwX",
":X:XwX:X>X:X;XyX:X8XnXc.$Xh.5.2.f.vXvXvXZ.@XY.`.' 2 ~ i.A.W.4.m.yXw.j.y.L.M = Y <.O ;.o.T *.].l.zXvXuXvXvXvXsXzXaXkXzXzXzX:XwX:X",
":XuX>X;XwXwX>XwX$X'.R.). XG.t.v.3.$X].;XqX_.bXY.!./ , w.I.M @.Q.qXI.j.+.' 2.r 5 N 5 ' w } 5.H.>XqX:X:XuXaXNXNXuXvXvXvXsX:X:X>X:X",
"qX>X>XwXwXaXuXM.MXU.).:.$.M.o.| I +.$.wXwXXX!.$.R !.= =.+.@ e.H.:XR !.6.| | ) q 8 , u >.! ~ [.D.:XwXtX=XtX:XuXvXvXvXkX*XwX,X:X>X",
"yXaXuXuXuXyXuXaX4X`.g.,.] u.} ) } Y [ 8XuX%X`.~.< P.= w.e *.3.qXv.w.-.B ,.u #.L = } W P E M.S.:X:X:XH.d.k.8X#X:XuXwXyXkXtXwXgXuX",
"aXaXaXuXuXuXC.8X_.k.W.@.w q.} c ..a G.6XK.kXm.g.(.0 4 q.* $.kX7XE.T *.%.u J K i 7 0 u H | qXwXuX:X8X4.f.~.F.mXqXfXuXgXuXpXkXuXuX",
"aXuXgXkXuXuX%X6XG.uX^.>.R I } c 9 } s.;.].J.bX~.z {.7 N i -.vX#.R >.,.' I a u 5 e W v.V.#XuXaXuXxXk.].w.>.|.u.H.aXaXpXuXuXaXaXpX",
"vXzXvXvXgXV.%Xf. X4.|.N R * i ..u O.v.*.) 6.8X6.' U ,.1 Y 4.u.-.v.n +.' K 8 8 8 P 4.yXzXrXC.0XC.aX$X}.Y >.g.y.3XsXuXuXuXzXuXuXkX",
"zXkXkXkXkXK.6X`.~.y.H.E.W ! z = J } E E } 4.k.H.{.w ,.q @.G 1.w y.J.R I.B P # 9 H x :XqXK.nX3XrXC.N.] I e.5.].p.uXkXzXzXkXvXNXzX",
"kXzXuXyXqX:Xa.4Xg.!.I.) ) | } y 5 ..W c -.! q.s.h.6.0 l q *.L = 3.:Xj _ J.M.J . p L s.H.6Xj.n..Xk.f.V ~ +.,.Q.C.zXzXzXzXkXuXaXaX",
"yX=X>X:X,X:X:XS.:X[ ,.R I # 5 * 7 # 8 % e 9 %.l.,.7.0.] k q 7 i T ^.d.%.<.I c * p t a.l.`.6.4Xj.~.,.l +.-.u.kXN.H.uXkXiXvXsXaXyX",
":XqX>X>X:X:X>X>Xj.Y.I.D a.3.| +.x W X.} % X.n.x.8.^ ~ -.+.w + X.Y @.=.#._ i t , = i.y.{.^ P./.j.:.q.l | +.r.I.W.`.aXuXaXuX:XwXqX",
"-X:XwX:X:X:XfX#XqXy.5.gX#.+.n 2 0 0 q o.7 o.4.>.,.$.l m @.q = Y m ~ i >.yXH < = + ;.E 1 W.z.k.w.@.R z ] 9.*.*.W.}.n.qXwX>XyX*X>X",
":XwX:XwXyXN.%XOX3XuXyXuXV.uXwX:.^ T N = ~ u ` #.P.~ q.m # l , W ) W @.g.fXc 9 * , O 9 K T %.8.,.] s e.w +.l >.L.}.M.wXuXwX,X:X:X",
"pXaXyXiXK.b.nXN._.N.m.kXkXgXzXkXF.$.+.% ~ < ~ 4.:.V V.n ~ 1 q I o.` i X.] Y q @ t p c &.h.] f.~ 3.d U h / 0.0.L.eXuXkXuXuXxXyXyX",
"aXuXkXgXC.6XoXz..XN.B.9XN.%X9X9Xm.' >.s 7 0 2.` U H.sX~ ) = + I i <.5 ;.F ) |.; 3 g.U.Q.j.E n +.~ s ~ l k B 8.>.pXuXaXyXwXyXzXaX",
"vXvXpXzXOXbXuXOX/.XX/.z./.l.(.`.D.qX4.; k h q.kXz 6./.c.C * 0 = y } 5 =._ )  .=.l 0.0.~.u I y q.; -.s 2.q.E.Q.gXvX#XOXzXvXtXzXkX",
"sXkXgXzXvXvXVX_.4X`./ %.#.6.Y 7.&.` D.Q.R ; F NXj ^ |.K.) - h * 9.<.5 O.<.! W | N q.$.W.h c 0 = d & o.2.7XeXfXvXl.n.3XH.kXsXuXaX",
":XwXwX:XqX;X,Xn.XX^ Y.[ P./ w r l L.v.p.~ / k C f 6X>.z.c } 4 1 * - m ! ) } O W.=.*.m (.- , - q w ..a.i.gXhX8X6XG. X).l.aXtXuXwX",
"yXwXwXwXwXwXJ.%X%.}.#.I.!.7.^.Q.L.; ].7.Q.l k d A @Xm }.D.Z.E * ; e o.= 9.5 ( x | ) x Z . 4 y P W W V r.H.rX8X X.Xh.6.kXuXyXwXuX",
"wXgXaXwXuXaXuXm.`.z.5./.uX9Xa.n.B ~ k ; 7 M s A zXz.B ^.[ E.T X 2 . m N < H x W 8 a ;.{.  * ! u < p J W 9Xi.l.k.E Q.7.uXuXzXuXuX",
"aXuXaXkXaXaXuXkXaX#XkXaXuXuXaX[ &.' v.:.^ z s 9Xk.@X%.m w.:.$ . 0 - ..c = p N $.> r.T   , 8 . t ! D N s.f.I.].M w.i.gXuXaXaXaXaX",
"kXsXkXkXvXNXuXzXvXzXNXvXkXN.kX(.:.Y.aX_ n.j s g wXF.}.^ l / T E <   i <.- c p.D Y W y T = , J i d.M.M._.s.r.U ;.@.:XwXvXgXkXaXgX",
"vXvXzXvXzXzXvXzXtXkXwXqXB.6X_._.U.g.H.eXF 6 l 1 S h.Y.:./ y *.6 $ ,   y X 8 i } @ | | _ + 9 a ..W 2.} o.p.q.q V s.:XwXuXzXvXvXvX",
"kXzXzXzXuXuX:XwX:X$XuXwXN.6XL.' U #.j h g v * l 1 ;X4.E.0.U M ~ E.. 8 1 5 @ Y Y x c <.b 7 , a F <.8 ..W ~ l Y y./.wXuXaXyXkXuXkX",
":XqX:X:X:X:X:X=X:X=XuXqXwXK.x.}.g.k.uX>XyXwXeX2 h ; qXm.M.o.w  .N   . X + X } 9 , a ..s., < L Z z 2 M w 0 P } o.<.rXuXkXvXyXyX>X",
"uX:X>XqXwX>XyXwXwXuXuXuXgX#X5XR.^.m.kXaXaXG.N.i.k 1 % ; : Y 0 m ..6 { B :.X - + V W { qX, 4 0 % , 8 < J { Y a.K.8XuXaXuXuXyXuXwX",
"yXwXwXuXyXuXuXuXuXvXyXgX2XuXH.l.qXaXuXaXaXK.+XqXv h q = % . } 2 Y - ! Y H . 7 g zXzXfXrX4 , > K p a a Y V.D Z uXuXkXaXgXaXyXyXyX",
"uXuXaXaXgXuXuXaXaXuXgXkXNXuXaXkXuXkXvXvXzXvXb z uXG.F 0 * . 6 i 2 { J < - $ , F uXyXqXs.0 + C i.u t uX8XuXkXuXuXgXuXgXpXuXaXuXuX",
"aXuXkXaXaXaXaXsXuXaXkXaXaXkXkXvXzXzXvXvXvXrXn p.h vXkX4 ,   K a t u u 9 H - o g G G s.- , A.;XaXA p H.uXsXaXaXkXkXuXaXgXkXaXuXaX",
"aXaXaXiXaXzXuXaXuXaXaXaXzXvXzXvXuX;XyXqX>X;XqXyXC f 6 6 - * o t c - - t 8 t . , 0 0 0 - M.>X>X*X:XuXkXvXzXvXzXvXvXvXvXvXaXkXaXaX",
"zXaXaXaXuXzXaXaXkXuXzXvXvXkXwX;X:X>XwX-XwX:X:X:X:XS.$XzXgX* 4 * * 4 * t t 5 X 7 * F A.:X:X>X:XyXwXwXpXkXkXaXaXgXaXuXkXvXzXaXuXaX",
"aXuXuXaXaXzXaXvXvXzXvXkXuX>X:X>X:X:X:XqX:X:X:X:XqXyXyXyXuXuX: 4 7 7 , * o . = @ ;XwX-XuXuXyXyXaXyXkXaXyXsXaXaXaXaXaXpXkXzXvXzXkX",
"kXzXNXzXzXtXzXzXaXuX<XwXuXwX>XwXwX:X:X:X>XwXyXwXaXuXuXkXuXuXaXM.G A 6 - , 1 @ H.uXyXyXuXuXyXzXuXsXuXkXaXkXaXaXsXuX2XuXaXuXaXkXkX",
"aXyXpXuXuXkXkXuXwXwX>XyXwXwXuXwXuXyXyX>XvXyXuXuXuXaXyXgXkXkXzXzXzXzXpXgXF.M.uXuXuXaXuXuXuXaXaXaXaXuXyXaXkXaXaXwXaXaXaXaXaXaXkXuX",
"zXkXkXkXaXuXaXaXkXaXkXaXkXuXaXyXuXuXkXuXwXgXpXkXkXzXvXzXvXgXvXzXzXsXkXzXzXzXzXkXaXuXpXuXaXaXaXkXaXaXuXaXuXaXaXaXuXuXuXaXaXaXkXaX",
"uXuXuXaXkXzXvXvXzXvXzXvXzXzXvXzXkXkXaXkXaXaXgXzXzXvXkXwXwX>X:X:XqX&XqXuXuXzXvXzXvXkXkXkXaXuXaXgX2XkXaXzXzXzXvXvXzXuXkXaXzXaXpXaX",
"kXzXzXzXkXwXqX>X:XwXqXuXzXvXvXNXzXvXkXzXuXvXvXvXkXwX:X>XqXwX:X:XyXwX:X:XiXwX;XaXzXzXvXvXvXzXzXvXzXgXuX:XwX;X:X:XgXzXNXkXkXzXkXvX",
"aXaXwX:XwX>X:XuX:X:X:X:X-X;XwXuXzXvXvXkXvXkXsXuXwX>XwXwXqX-XwXwXyXkXyXuXqXyXsXuXuXuXaXaXaXaXyX,X:X:X:XwX>XyXqX:X:X=X:XaXvXkXaXaX",
">X=X:X:X>X:X>X:XwX:X:X:X:XwXwXwXyXuXuXaXyXuXyXyXyXwXyXuXyXuXuXwXuXyXuX2XaXuXaXaXaXaXuXyXuXwX:X<XwX>XuXyXwX-XyX:XwX>X:X:X:XyXuXyX",
"wX>X:XwXwXwX:XwX:XwXwXuXyXaXuXuXaXpXsXaXsXuXuXaXuXaXkXuXuXaXuXaXuXkXgXgXaXaXuXuXyXwX:XqX:XwXwXwXwXwX>X:XwX:X:XwXqX:XwXtX>XwXwXtX",
"wXwX;XyXwXuXyXyXwXyXaXuXyXaXuXaXaXgXxXsXgXkXuXaXuXkXsXiXaXgX2XkXuXaXuXuXaXyXkXwX:XwX>XwX:XwXwXyX:X:X:X:X:XwX:XwXwXgXpXwXaXwXuX>X",
"uXuXpXgXuXaXuXuXsXsXkXuXsXaXaXuXaXaXpXkXaXgXkXuXaXaXaXiXgXaXkXaXyXkXkXaXaXyXwXwXuXwXwX:XwX:X>X:XuXuXwXuXuXzXyXwXgXuXuXuXuXaXuXuX",
"pXuXuXaXuXaXaXaXaXaXuXaXaXaXaXaXkXaXkXuXkXkXkXkXaXzXkXkXaXaXyXkXvXaXaXuXuXuXwXkXwXyXyXwXwXaXyXuXwXgXyXuXyXgXuXkX<XaXaXaXuXaXaXaX",
"aXkXaXuXkXaXaXaXkXaXaXaXaXaXaXaXaXaXaXaXuXaXaXkXaXaXaXuXkXaXaXaXaXkXtXuXaXaXuXaXuXaXuXaXaXuXaXuXaXuXaXaXaXaXaXaXuXaXaXaXaXaXuXaX"
};
