/* XPM */
static char *xpm_[] = {
/* columns rows colors chars-per-pixel */
"64 64 256 2 ",
"   c #4D9FB4",
".  c #55AEBE",
"X  c #65B6B9",
"o  c #1AB8DC",
"O  c #3AA9CA",
"+  c #38ABD8",
"@  c #2CB6D9",
"#  c #3BB3DC",
"$  c #37B8D7",
"%  c #32AFD3",
"&  c #3AACE4",
"*  c #37ADE6",
"=  c #2BB7E6",
"-  c #34B3E4",
";  c #3BB5E5",
":  c #3DB9E5",
">  c #33B4EB",
",  c #3CB6EB",
"<  c #34BBEB",
"1  c #3CBAEB",
"2  c #35BBE3",
"3  c #3CBBF3",
"4  c #37BBF5",
"5  c #29ACE8",
"6  c #3C9DD2",
"7  c #469CCC",
"8  c #49AACC",
"9  c #57ABCA",
"0  c #48B6CA",
"q  c #54B4CD",
"w  c #5BB7CB",
"e  c #44ACDB",
"r  c #4AABD6",
"t  c #57ACD5",
"y  c #4CB3D5",
"u  c #4ABAD5",
"i  c #43B3DB",
"p  c #4CB5DC",
"a  c #4CBBDD",
"s  c #44B8D9",
"d  c #54B3D4",
"f  c #5BB5D3",
"g  c #5BBBD4",
"h  c #53B3DC",
"j  c #5BB5DB",
"k  c #54BBDC",
"l  c #5CBBDC",
"z  c #54BAD4",
"x  c #69B6CB",
"c  c #79B8CD",
"v  c #66AEDB",
"b  c #63B5D4",
"n  c #63BBD4",
"m  c #64BCDC",
"M  c #6CBDDC",
"N  c #68B7D6",
"B  c #75BAD7",
"V  c #6AAEC6",
"C  c #45AEE4",
"Z  c #45B4E3",
"A  c #4AB5E2",
"S  c #45BBE4",
"D  c #4BBBE3",
"F  c #43B4EB",
"G  c #4BB4EC",
"H  c #43BCEB",
"J  c #4ABCEB",
"K  c #55B6E2",
"L  c #53BBE4",
"P  c #5ABCE2",
"I  c #53BDE9",
"U  c #5DBCEB",
"Y  c #59B4E7",
"T  c #44BCF3",
"R  c #48BAF4",
"E  c #51BAF3",
"W  c #56AEE5",
"Q  c #64BDE2",
"!  c #6ABEE2",
"~  c #60B6EA",
"^  c #78BDE6",
"/  c #68B4EF",
"(  c #39C8DA",
")  c #27C2D1",
"_  c #39C3EB",
"`  c #3BC3F7",
"'  c #26C9EC",
"]  c #1EC6EA",
"[  c #4BC5DD",
"{  c #58C3DC",
"}  c #5AC3CA",
"|  c #6CC2DD",
" . c #69C5D9",
".. c #7CC3D5",
"X. c #74C2DD",
"o. c #7BC4DB",
"O. c #77C9D9",
"+. c #76CDD4",
"@. c #4DC2E4",
"#. c #4CC2EB",
"$. c #45C4EB",
"%. c #53C2E5",
"&. c #5BC2E2",
"*. c #54C3EA",
"=. c #5BC4EB",
"-. c #58CAE7",
";. c #4BC3F3",
":. c #45C3F6",
">. c #56C6F6",
",. c #5ED2E3",
"<. c #63C2E4",
"1. c #6CC3E4",
"2. c #6BC9E9",
"3. c #73C4E3",
"4. c #7AC5E4",
"5. c #74CAE3",
"6. c #7CCAE5",
"7. c #75CCEB",
"8. c #7CCBEB",
"9. c #77C4EA",
"0. c #78D4E9",
"q. c #6ACBF3",
"w. c #77C9F3",
"e. c #69D0F9",
"r. c #79D6F7",
"t. c #6ED3E8",
"y. c #6EE4F2",
"u. c #96C0BC",
"i. c #86BDD9",
"p. c #8FBACC",
"a. c #8ABBE7",
"s. c #8BC4DB",
"d. c #85C5D8",
"f. c #94CDDB",
"g. c #96C7D7",
"h. c #96D4DB",
"j. c #89CED4",
"k. c #A4C9D9",
"l. c #B7CBD7",
"z. c #A8D3DB",
"x. c #B7D7DD",
"c. c #B3E5DE",
"v. c #83C5E3",
"b. c #83CBE4",
"n. c #8BCCE4",
"m. c #83CBEB",
"M. c #8CCDEA",
"N. c #8AC5E5",
"B. c #94CCE3",
"V. c #9BCDE4",
"C. c #93CEEA",
"Z. c #98C9E8",
"A. c #8CD3EA",
"S. c #87D5E9",
"D. c #94D3E4",
"F. c #9BD2E4",
"G. c #94D3EB",
"H. c #9BD4EA",
"J. c #9CD9EB",
"K. c #99DAE8",
"L. c #88D7F5",
"P. c #9BDCF2",
"I. c #96D9F6",
"U. c #89C8F3",
"Y. c #A2CEE3",
"T. c #A3CFEA",
"R. c #A3D3E4",
"E. c #ACD4E4",
"W. c #A3D5EA",
"Q. c #ABD5EB",
"!. c #A4DAED",
"~. c #ACDBEC",
"^. c #A8DAE5",
"/. c #B4D4E3",
"(. c #B3DCE4",
"). c #BBDBE5",
"_. c #B2D5EA",
"`. c #B3DBEC",
"'. c #BBDCED",
"]. c #BAD5E3",
"[. c #A4DAF2",
"{. c #ACDBF2",
"}. c #A6D9F9",
"|. c #B3DDF4",
" X c #BDDEF1",
".X c #B3DAF8",
"XX c #AECAEF",
"oX c #9BE5F9",
"OX c #92E1F0",
"+X c #A9E4EC",
"@X c #BCE2EC",
"#X c #B7E5EA",
"$X c #ABE4FB",
"%X c #A7E6F9",
"&X c #B3E2F3",
"*X c #BCE3F2",
"=X c #B5ECFD",
"-X c #BCEBFB",
";X c #B8E5FA",
":X c #BCF3FF",
">X c #B9F8FD",
",X c #A9F3FF",
"<X c #CDD4DA",
"1X c #CBE7D8",
"2X c #C2DEEB",
"3X c #C7DCE8",
"4X c #C2DEF2",
"5X c #C9DDF5",
"6X c #D4D7EA",
"7X c #E8D9EA",
"8X c #C4E3ED",
"9X c #CBE3ED",
"0X c #CCEAEC",
"qX c #C6E3E4",
"wX c #D2E5ED",
"eX c #D3EBEE",
"rX c #D9E7E8",
"tX c #D9F4ED",
"yX c #C5E3F3",
"uX c #CBE5F2",
"iX c #C5EAF4",
"pX c #CCE9F3",
"aX c #C3E4FA",
"sX c #CBE4FA",
"dX c #C4EBFC",
"fX c #CBECFC",
"gX c #D3E4F3",
"hX c #D2EAF4",
"jX c #D4EDFB",
"kX c #DCEDFC",
"lX c #DCE8F6",
"zX c #C4F4FF",
"xX c #CCF3FD",
"cX c #CBFCFF",
"vX c #C4FAFB",
"bX c #DBF1F4",
"nX c #D4F3FC",
"mX c #DCF3FD",
"MX c #D4FDFE",
"NX c #DBFCFF",
"BX c #D5F6F5",
"VX c #C9F1EB",
"CX c #E7EBEB",
"ZX c #E6EBF8",
"AX c #F7EBFB",
"SX c #E2F3FD",
"DX c #EBF4FE",
"FX c #E4FCFF",
"GX c #EBFDFE",
"HX c #E6F5F5",
"JX c #FFF5FF",
"KX c #F3FEFF",
"LX c #FBFEFE",
"PX c #F6F9F9",
"IX c #F8F1E6",
"UX c #E9E8D9",
/* pixels */
"` * & G H @ @ 2 + S : _ H 2 1 # @ I C o ] R F ' J + + , & T ` = _ 2 # : 4 > * C , , F , , 3 , , * F - + < 3 = = , , , > F , , 4 ",
"> 3 R F = @ 3 ;.;.$.+ 5 - - < + o G G = ' E C = & # R R * - _ 1 4 ; + + > 4 T A 3 , 3 , , , , 3 & G , * , , * 1 , , , , , , , , ",
"5 R E * = < 3 F > 4 , > > T 3 4 > R R < 3 G G - ; > :.:.* + # O 4 1 i # 4 ` T F , , , , , F , , > T F , F C & G , , , , , , , , ",
"* F R , 4 ` ; 6 5 > :., - , , 3 4 R F , * C G 3 :.* 4 3 ; G U j 5 ; h p , 4 4 + , , , : , , : , 4 3 < , T C & J , , : , , , , , ",
"1 ; , 3 < ; P 9.>.* A e K =.e C :.= - #.# @ _ < 1 5 < < ; q.%X>Xe Q 6.m C & 3 , ; : ; H , , : : @ 2 @ @ < H - 1 : : F : F H : : ",
": F T T % O m.NXe.7 j b.%X,XN j U O s L.t.$ = - $ : :.1 O N dXKX$XzXxX+X! & - :.: ; : ; ; : : : O @.[ % $ :.< < : 1 : 1 ; ; , : ",
"2 H :.< +  .&XPXL.9 D.zXFXMXs.}.}.0 +.cX}.$ @ Z i ; :.H r i.wXPXGXKXPXNXG.i + 3 : : : ; ; : ; : x OXOXl i J 1 > H : : : : S H ; ",
": T F + a S.fXAXvXN.dXBX1Xl.p.FXGX..OXKXyX0 $ Y @.$ % H w.=XKXPXrXUXIXGX=Xl + , ; : : : S ; : ; k.MXcXm.d A F * H : S 1 : : 1 S ",
"J r d 8.=XcXfX2XnXdX}.M.C..XjXDXIXKXnXuXKX@Xw _ @ < 1 8 BXPXGXaXrX8XxXFXHX1X5.> I # @ 2 _ _ H F x.GXGXGX:X  b.b.( O 7 W ;._ @ i ",
"F ; A U w.L.n.d.m.4.1.Q 3.L.[.{.k.}.I.G.^.P.q.4 s #.e.S.GXCXrXsX).`.;XNXKXBX6.+ F , 1 _ $.Z e 8 nXGXAXSXNXg.vXzX.X0.( ) 1 E H _ ",
", 1 H H S A A A y 0 # $ : @.D k Q A E >.j Q >.5 A I L.=XGXCX<X4X%XP.[.fXGXNXJ.v 3 T ;.#.y j I.zXGXKX7XZXKX0XGXKXAXdXy._ @ & G R ",
"F H H H ; , 1 1 S : 2 1 _ < 2 - R * > :.H # > 3 R Z j m.-XdX{.T.P.J.F./.gXmXfX|.J ; 8 8 B W.nXLXmXlX7XCXKXrXLXIXZXPXmXG.$ % C / ",
"k k A D S J $.$.;.J F R ;.T T :.e e.*.Z >.R e =.4 ; O   8 t.r.q.b.K.(.x./.gXGXKXr.P 9 n.cXGXGX<XiXgXlXkXGX0XbX<X1XPXJXZXR.5.&.y ",
"k z d y a A p Z ;.C e t h r e F N vX%X  D >.A f % %.r.0.e 1 H ; } h.#X(.Y.{.nXKXr.r.m.,XcXcX8Xl.$X$XfX.X>X+XiXsX#X#XiXkXAXaXt.) ",
"s s S A A Z A A J C h ! M f r d '.GXBXB i 3 J f x K.MXNX7.J ; e p 5.K.m.q.w.I.x.r k 2.1.m f M 8.7.8.oX8.0.1.I.}.L.2.5.L..XP.<.) ",
"2 1 ;.T F G G E H p ! L.oXOXS.r.PXrX0XP.H 5 :.7.cXrXUXKXd.U K <.1 =.1.h * R K V *.# + ; J R S - 8 r 2.8 s $ P 9.1 + r A ( @ e v ",
"G S I L L a a %.c }.MXMXnXbXmXbX@XxXxX/.g.E.iXnXKXlX6XSXNXn.0 $ ) *.e / / + [ ( @ g c w ( _ $.Y h r U p >.G E F r P I p p A D C ",
"I I J D S D S D 2.r.L.f.f.!.&X=XM.P.%XP.G.P.P.I.%X~.`.fXcXA.j *.a L + i =.p s D 2.$XfXC.u : S t *.J *.O D D >.F S A a A A D I D ",
"L A A p Z H S H [ s y 0 q g g f r h P K P U K 8 { t.O.S.A.! r Y Y r 0 0 ,.q.r W H.GXKX'.f Z E K 2 % #.y u O s D J S Z S D S D I ",
"K A S D #.#.H S _ _ # S @.[ Z # A S Z e Z J J e [ @.k d k p C J G r 0.j.%XoXh A /.KXLX].b K *.J H O k 0.%X .b f ;.H S J #.D S D ",
"P L @.#.#.*.D A P h d k K K ;.>.%.=.I D a L *.*.A I p i -.#.$.;.2 1.xXHXKXMXl @ pXHXHXVXG.2.D $ e.j o.T.FXNX&XV Z A I D D @.D s ",
"L L @.@.a y t f N.a.N.C.8.Y r J r p k k h y y p K U D S #.@.$ s [ OXGXLXJXgXB [ jX0XtXFXMX$X8.} r I.fXk.gXGXMXc 9 ! 2.P y D *.s ",
"p A a u 0 w o.B.DXkXNXFXzX8.y r a L I =.=.L L L L I D a { t t ^ h.xXlXZXPXqX(.h.dXpXtXHXPXDX-Xh.  %XNX<X<X9XzXd.i.P.oX! 9 P =.S ",
"L *.-.[  .6.$XcXLXCXrXNX:XO.g k J Z Z Z S Z A S @.@.@.P 1.^ XXDXrXKXrXVXBXBXKXKXsXNXHX<X7XJXHX#Xt.oXMXqXHXxX=X .|.MXvX4.9 P =.Z ",
"l m 3.P.:XMXNXnX4X'.@XpXSXGXaXB r @.$.$.r Q I ( { 0 g 9 N %X:X-X+XcX'.sXsX`.=X+X5X X|.`.@XuXkXAXLXqXx.0XcXNXNXVXdXxXcX=XL.| a D ",
"p p h | m.A.B.s.X.+.0.+...4.2.k &.y g n 1.g &.=.k u q.&.8 b x V d.%XW._..X|.>X^.[.H.J.%X%X%X{.&XMX&XF.G.s.d...V d.s.b.6.| h h k ",
"#.$.S p h h h t s [ ,.[ d t u # @.b .XsX>Xw 9 ! e O #.>.A I h P b 4.6.M.v.G.$Xs.g w w m | M m l | q d K p P Q Q f q 9 f j l P P ",
"-.*.*.L D D L I ~ U L &.^ ^ ~ K $ i.JXLXFXX B a.L.j K L *.>.u u U Y U &.k | 4.b [ s y K U L @.#.k s #.;.Z Z U U &.L P k P { <.l ",
"g g { l l l P %.v Y p h 9.^ b l  .z.JXUXtXj.:XGX=XB N n z P u z >.s s u 0 u d l -.P P / / ~ I %.&.a -.e.D K P l D @.*.%.k k g k ",
"w w n n g g g g b 7.[ O k P [ ,.>XhXAX<XtXVXGXLX].g.!.m.n n g 5.k z g x O.2.y =.d d Y U ~ t 9 x x . q l l j <.M p k a k k k k l ",
"Q l l l m g g f z.>XS.x 6.OX5.+.LXGXbXjXPXKXKX1XjX-XvXI.b d r d x P.`.p.;X=Xb l b m =.-.&.N f.~.A.B n m z f m f 2.m j j l &.{ { ",
"=.U L P P P l k CXLX).p.jXGX`.p.IXCXVXvXSXKXCX1X{.V.A.v 8 P L a d.GXJX6XLXGXB t N m u $ 0 +.&XGX%X4.N P P <.q.2.I.6.b f | &.{ p ",
"j z p D &.<.B V c.NXGXhX0XNX0Xu.#X#X#X=X=X$XJ.n.4.| j z n o.V._.FXFXmXhXkXmXuXl.X V K.%X..j.cXnXSXR.x q } s.gXJXGX).i.9 m 2.&.d ",
"2.2.q.&.z M G.=X3XBXGXSXSXGXGXnXSX3Xx.Y.{.P.b.x b b j m 7.I.=XcX^.^.E.z.&X=X;X|.xXyXkXSXfXBXDX6XFXE...S.,XcXZXAXGXiXB.M Q <.| g ",
"b Q m f 9 c !.xXuXgXZXDXSXlXkXGXJXJXDX5XB.B M  .4.! Q j g b x c O. .B  .O.O.6.S.;X@X5XgXiXuX3X<X8X(.+X:XzXdXiXtXxX*XG.5.<.l &.| ",
"9.! M 4.P.=XdXiXyX4X5XjXsX_.'.fXZXGXSX;Xs.N <.q.^ 9.1.<.Q  . .N 1.n g  .| w g  .w M i.d.O. .x o.c i.N.Z.i.c d.h.z.D.n.3.<.| 1.3.",
"w.^ X.A.$XzX@Xz.D.H.H.!.{.%X[.oXh.j.....6.8.9.~ ! ^ 3.7.7.7.7.7.3.! 1.w.w.! ! w.*.2.! 4. .a K e.1.n 9 v ^ U.5.1.d.o.B M 3.| 3.X.",
"M M B ..d.d.i.i.| O.b.o.b.A.S.O.} w w  .5.9.9.^ ^ ! 3.3.| M n m ^ ^ 9.m.8.3.^ ^ w.^ a.a.M.8./ w.e.q.q.w.w.w.9.2.3.X.X.3.3.4.X.M ",
"3.6.6.O... .^ 9.M 5.6.3.M 3.1.M | 7.S.0.X.M 9.m.M X.X.O.O.S.L.U.3.6.4.X.X.3.X.M a.p./.uXR.v.8.^ M 3.7.O.N N B a.5.9.5.4.4.4.3.X.",
"5.O.X.+.5.6.8.q.3.3.8.m.4.^ 4.L.U.a.i.^ ^ 5.7.5.8.o.O.....B ^ ^ X.6.O.M X.L.S.6.+.j.NXNXh.+.+.5.m.o. ...G.$X|._.1.2.7.6.o.o.4.4.",
"6.6.6.4.6.6.6.v.6.| 7.q.9.m.B H.m.9.2.t.7.X.d.V.8.4.9.w.w.L.w.w.r.| d.z.3XbXSX5X .%XNXKX6Xk.o.t.U.c g.2X3XKXLXZXw.8.9.5.5.5.5.O.",
"v.6.8.6.v.6.v.8.6.O.m.3.M.=X;XiXH.d.o.d.A.[.&XiXB.s.s.d.v.o.o.o.2.B h.0XFXGXSX5Xx !.nXbXbXnX&X..m.c ^.NXrXCXKXZXi.n.G.C.n.v.v.b.",
"m.b.b.b.b.b.m.v.c j.!.d.g.dXNXGXiX(.g.h.&XxXmXGXxXxXiX~.Y.f.f.f.N.s. XFXGXGXmX3Xk.yXmXbXFXGXNX_.J.s.zXGXGXrXDXHX_.aXjXdX.Xa.i.i.",
"n.m.n.M.m.M.n.m.b.s.F.i.g.yX9XhXMX@XE.R.#XyXuX9XyXyX@XE.f.g.j.h..X.XsXkXlXhXmXiXSXmXbXNXtXwXkXKX{.R.iXFXmXrXHXCXgXkXFXnX.XY.N.Z.",
"C.n.M.M.n.C.M.n.oXm.a.N.{.dXR.Y.&X{.H.C.C.Z.V.g.s.g.f.V.B.n.n.I.dXaXfXfX2X9XnXxXDXlX8XVX#Xx.gXDX`.^.R.k.x.pXbX1Xx.(.`.&X~.K.A.M.",
"C.G.C.C.G.C.C.G.M.n.$X$X[.H.i.H.f.D.I.M.m.M.M.Z.n.n.G.I.I.L.I.I.W.R.`.&XE.Q.*X@X5X2XE.z.#XxXjX3XzX-XE.g.(.NXGXeX^.R.h.f.D.G.A.S.",
"G.H.C.H.V.G.G.V.p._.NXnXE.g.s.$Xj.D.H.G.M.G.I.G.K.K.B.n.n.B.a.s.s.d.F.J.F.F.W.F.R.!.W.V.~.:X=XF.*X-X&XH.$XxXxXnX%XW.F.B.B.D.n.n.",
"G.V.H.C.H.C.H.H.qXeXGXrXbXFX*XF.j.h.F.s.s.B.B.j.K.h.f.f.R.E._.Y.G.n.G.OXn.G.J.V.G.n.G.[.G.i.d.P.g.V.H.G.J.f.g.`.T.H.Z.B.B.F.F.R.",
"H.H.P.F.h.(.'.hX^.K.+XK.J.[.P.oXg.k.z.2XhXhXwX<XDXDXCXrXHXLXCX<XY.V.C.M.L.G.D.h.R.R.W.H.F.B.V.f.D.D.F.V.Y.V.F.D.D.D.D.D.F.h.F.F.",
"V.H.H.F.R.@XmXGXqXc.z.z.g.g.g.s.-XdXnXMXFXFXFXFXGXGXGXHXGXKXKXFX2X`.~.!.!.R.z.z.R.F.W.!.H.H.W.[.K.H.F.R.W.H.J.K.J.J.J.H.F.F.F.F.",
"T.W.!.+X&XfXFXKXKXGXSXeX0X8X'./.W.{.&X`.E./.'.2X8XjXhX8X9XnXNXNXFXmXBXxXdXVX8X@XF.W.!.W.W.W.!.{.J.J.W.W.H.W.J.J.!.J.J.W.H.H.K.F.",
"Q..X-XdXsXiX8X5XDXbXlXhXxXxXdX*XW.W.W.Y.Y.f.Y.XX^.`.`.z.g.E.`.#X9X8X'.).`.@X).).[.J.W.R.Q.^.R.R.W.W.[.W.W.W.W.!.R.T.T.W.Q.[.{.[.",
"~.|.;XdXyX'.E.k./._._.`.|.{.{.F.&X{.{.{..X.X|.{.`.+X~.Q.R.~.Q.Q.!.R.V.k.z.Q.Q.W.}.W.E./.qX*X`.Y.{.Q.W.W.Q.Q.Q.Q./.E.E.Q.~.Q.[.{.",
"~.~._._._._.`.~..X{..X&X|.{.[.[.~.E.R.R.{.{.Q.T.|.|.~.|.&X;X.X{.$X{.~.|.|.|.{..X}.Q.x.qXHXGXnX@XsX'./.E.`.*X4X'.8X8X@X@X`.Q.W.W.",
"+X^.R.E._._.{.&XQ.Q.`.Q.E.E.'.aX`.`.`.`.`.|.|.|._.Q.Q._.|.`.`._.^.~.@X9XuXuX'.E.{.@XwXHXPXLXGXbXGXgX).).uXnXjXgXbXeXwX8X'.`.E.Q.",
"+X+X#X|. X|.~.!.(.(.x.x.x.3XSXKX@X*XyX`._._.|.;X X X X|._._.`. X@X0XbXKXLXKXlXgX{.yXHXLXPXPXGXFXKXSX3XqXnXGXGXZXtXtXVX0X8X@X#X~.",
"'. X X'.'. X'. Xx.].].9XSXDXDXDXHXHXHXHXFXHXrX<X'.'._.'. XyXaXaXGXGXFXSXSXFXFXFXrXZXGXGXSXnXnXnXDXDXGXFXbX0X3X).aXaXaX X X X'.`.",
"'.'.'.'.'. X'.'.pXpXjXjXkXjXkXkXFXHXFXGXKXGXFXbXaXaXyX'.'.'.'.4XhXuXuX3X2X3X9X5XlXZXDXmXpX'.).`.gXhXkXmXnXjXhXjXiXiXyX*X X X'.'.",
"4X X'.4X X4X2X XhXjXmXjX8X2X@XyX8X9XpXhXnXmXhXhXjXfXaXyX X'.'. X2X2X2X).).).3X2X3X9X9XyX2X'.'.*X/.'.yXuXuXpXhXjXyXyXyX4XyX4X4X4X",
"yXyXyX4XyX4XyXyX3XyXsX8X@X@X`.(.).).).'.8X@X).(.sXsXuXyXyXyXyXyXiXaXyX4X4XyXyXyX].).2X8XyX*XaXfX`.@X'. X4X2X5XgX5XyXyXyXyXyXyXyX",
"yX8XuXyXyXuXyX8XuXuX8X8X0XiXiX#XiXuXiXuXuXiXyX8XyX8XuXyXyXyXuXuXyXyXyXyXaXyXaXuXuXuXyXyXyX4XaXaX-XdXiXiXyX4XyXsXuXyXuXyXuXiXuXuX",
"uXuXuXuXuXuXuXuXhXuX3XuXpXjXiX8XpXiXiXpXpXfXpXfXpXpXuXuX9XuX9X8XyXuXyXyXyXuXsXuXpXhXuXuXyXyXyX5XyXuXuXiXuX8XsXhXuXuXuXuXuXuXuXuX",
"pXuXuXuXuXuXuXuXuXuXuXsXhXuX9X5X8X8X8XuX8XuXpXpXhXpXpXpXpX9XuX9X9XpXgXhXhXhXhXhX0XqX0XuXhXhXhXjX3X5XuX9X9X8X9XuXpXuXuXpXuXuXpXuX",
"hXgXhXhXhXhXhXhXyXuXhXjXgX6XgXZX0XhXgX0X0X0XhXhXuXhXhXhXjXpXhXhXwXwXwXeXgXeXeXhXeXeXeXhXlXgXhX6XrXwXrXlXwX0X0XpXhXhXhXhXhXhXuXhX"
};
